<?xml version="1.0" standalone="no"?>
<!DOCTYPE svg PUBLIC "-//W3C//DTD SVG 1.1//EN" "http://www.w3.org/Graphics/SVG/1.1/DTD/svg11.dtd" >
<svg xmlns="http://www.w3.org/2000/svg">
<metadata>
This is a custom SVG webfont generated by Font Squirrel.
Copyright   : Copyright c 2005 Parachute wwwparachutegr  All rights reserved
Designer    : Panos Vassiliou
Foundry     : Parachute Worldwide
Foundry URL : httpwwwparachutegr
</metadata>
<defs>
<font id="ECSquareSansProRegular" horiz-adv-x="1138" >
<font-face units-per-em="2048" ascent="1536" descent="-512" />
<missing-glyph horiz-adv-x="552" />
<glyph unicode="fj" horiz-adv-x="1032" d="M68 903v58q0 37 34 36h101v125q0 332 364 332q180 0 293 -47q27 -10 21 -43l-9 -47q-6 -29 -53 -23q-176 20 -254 21q-104 0 -156.5 -46t-52.5 -151v-121h518q37 0 37 -34v-1033q0 -82 -13 -138t-52 -109.5t-120 -79t-204 -21.5q-39 0 -41 35l-4 47q-2 33 29 39 q156 31 203 69t47 154v942h-400v-833q0 -35 -32 -35h-84q-37 0 -37 35v833h-101q-34 0 -34 35z" />
<glyph unicode="ffj" horiz-adv-x="1585" d="M68 903v58q0 37 34 36h101v125q0 332 364 332q170 0 283 -41q90 78 270 78t293 -47q27 -10 21 -43l-9 -47q-6 -29 -53 -23q-176 20 -254 21q-104 0 -156.5 -46t-52.5 -151v-158h518q37 0 37 -34v-1033q0 -82 -13 -138t-52 -109.5t-120 -79t-204 -21.5q-39 0 -41 35l-4 47 q-2 33 29 39q156 31 203 69t47 154v942h-400v-833q0 -35 -32 -35h-84q-37 0 -37 35v833h-400v-833q0 -35 -32 -35h-84q-37 0 -37 35v833h-101q-34 0 -34 35zM356 997h400v162q0 78 18 139q-121 16 -209 17q-104 0 -156.5 -46t-52.5 -151v-121z" />
<glyph unicode="&#xfb00;" horiz-adv-x="1294" d="M68 903v58q0 37 34 36h101v125q0 332 364 332q162 0 273 -39q80 80 250 80q123 0 233 -43q25 -10 20 -43l-8 -47q-8 -31 -53 -23q-113 16 -174 17q-104 0 -151.5 -46t-47.5 -151v-162h256q35 0 35 -34v-60q0 -35 -35 -35h-256v-833q0 -35 -32 -35h-84q-37 0 -37 35v833 h-400v-833q0 -35 -32 -35h-84q-37 0 -37 35v833h-101q-34 0 -34 35zM356 997h402v166q0 80 16 135q-125 16 -209 17q-104 0 -156.5 -46t-52.5 -151v-121z" />
<glyph unicode="&#xfb01;" horiz-adv-x="1032" d="M68 903v58q0 37 34 36h101v125q0 332 364 332q180 0 293 -47q27 -10 21 -43l-9 -47q-6 -29 -53 -23q-176 20 -254 21q-104 0 -156.5 -46t-52.5 -151v-121h521q33 0 32 -34v-928q0 -35 -32 -35h-84q-37 0 -37 35v833h-400v-833q0 -35 -32 -35h-84q-37 0 -37 35v833h-101 q-34 0 -34 35z" />
<glyph unicode="&#xfb02;" horiz-adv-x="997" d="M47 903v58q0 37 35 36h100v125q0 332 365 332q129 0 229 -27l76 15q37 6 37 -35v-1372q0 -35 -33 -35h-84q-37 0 -37 35v1265q-125 14 -190 15q-104 0 -156.5 -46t-52.5 -151v-121h246q35 0 34 -36v-58q0 -35 -34 -35h-246v-833q0 -35 -33 -35h-84q-37 0 -37 35v833h-100 q-35 0 -35 35z" />
<glyph unicode="&#xfb03;" horiz-adv-x="1585" d="M68 903v58q0 37 34 36h101v125q0 332 364 332q170 0 283 -41q90 78 270 78t293 -47q27 -10 21 -43l-9 -47q-6 -29 -53 -23q-176 20 -254 21q-104 0 -156.5 -46t-52.5 -151v-158h521q33 0 32 -34v-928q0 -35 -32 -35h-84q-37 0 -37 35v833h-400v-833q0 -35 -32 -35h-84 q-37 0 -37 35v833h-400v-833q0 -35 -32 -35h-84q-37 0 -37 35v833h-101q-34 0 -34 35zM356 997h400v162q0 78 18 139q-121 16 -209 17q-104 0 -156.5 -46t-52.5 -151v-121z" />
<glyph unicode="&#xfb04;" horiz-adv-x="1585" d="M68 903v58q0 37 34 36h101v125q0 332 364 332q170 0 283 -41q90 78 270 78q129 0 230 -27l75 15q37 6 37 -35v-1409q0 -35 -32 -35h-84q-37 0 -37 35v1302q-125 14 -191 15q-104 0 -156.5 -46t-52.5 -151v-158h246q35 0 35 -36v-58q0 -35 -35 -35h-246v-833 q0 -35 -32 -35h-84q-37 0 -37 35v833h-400v-833q0 -35 -32 -35h-84q-37 0 -37 35v833h-101q-34 0 -34 35zM356 997h400v162q0 78 18 139q-121 16 -209 17q-104 0 -156.5 -46t-52.5 -151v-121z" />
<glyph unicode="ft" horiz-adv-x="1202" d="M68 903v58q0 37 34 36h103v138q0 162 76.5 246.5t255.5 84.5q123 0 233 -43q25 -10 21 -43l-9 -47q-8 -31 -53 -22q-113 16 -174 16q-104 0 -151.5 -46t-47.5 -151v-133h383v181q0 29 35 39l82 22q35 10 35 -31v-211h227q35 0 35 -34v-60q0 -35 -35 -35h-227v-620 q0 -82 29.5 -103.5t123.5 -17.5l111 8q25 2 34 -3t11 -21l8 -48q2 -27 -18 -38q-76 -41 -232 -41q-125 0 -173 55t-48 162v667h-381v-833q0 -35 -32 -35h-84q-37 0 -37 35v833h-101q-34 0 -34 35z" />
<glyph unicode=" "  horiz-adv-x="552" />
<glyph unicode="&#x09;" horiz-adv-x="552" />
<glyph unicode="&#xa0;" horiz-adv-x="552" />
<glyph unicode="!" horiz-adv-x="458" d="M133 76q0 92 92 92q55 0 74.5 -22.5t19.5 -69.5t-19 -73t-74.5 -26t-74 26t-18.5 73zM156 1323q0 35 32 35h91q29 0 28 -35l-24 -950q-2 -33 -25 -33h-53q-29 0 -29 33z" />
<glyph unicode="&#x22;" horiz-adv-x="579" d="M121 1335q0 23 24 23h86q23 0 23 -23l-21 -346q0 -18 -22 -18h-53q-16 0 -17 18zM326 1335q0 23 24 23h88q20 0 21 -23l-19 -346q-2 -18 -22 -18h-53q-18 0 -19 18z" />
<glyph unicode="#" d="M37 506l16 59q6 25 33 25h248l57 239h-248q-12 0 -16 1t-9 5.5t1 14.5l16 57q8 25 33 25h250l94 397q6 27 31 27h65q27 0 21 -31l-94 -393h223l96 397q6 27 29 27h67q29 0 23 -27l-99 -397h259q33 0 26 -27l-14 -53q-6 -23 -29 -23h-266l-59 -239h260q33 0 26 -27 l-14 -55q-6 -20 -29 -21h-268l-113 -462q-6 -25 -22 -25h-70q-29 0 -22 31l110 454h-223l-113 -460q-6 -25 -22 -25h-72q-27 0 -20 31l110 454h-248q-14 0 -20 6.5t-4 14.5zM451 590h223l59 239h-225z" />
<glyph unicode="$" d="M113 111l12 55q6 25 37 18q223 -33 356 -37v488q-195 41 -289 114.5t-90 241.5q4 166 102.5 259t276.5 104v172q0 12 19 12h75q16 0 17 -16v-168q203 -12 307 -54q33 -12 27 -43l-15 -55q-8 -27 -39 -22q-147 18 -272 26h-8v-446q94 -18 154.5 -41t116.5 -65t81 -111.5 t23 -169.5q-10 -344 -375 -373v-170q0 -14 -17 -14h-75q-18 0 -19 12v172q-254 10 -379 66q-34 12 -26 45zM299 993q-2 -100 43 -140t172 -69l4 -2v424q-115 -8 -165 -62.5t-54 -150.5zM629 150q209 25 215 202q4 123 -40 176.5t-175 83.5v-462z" />
<glyph unicode="%" horiz-adv-x="1679" d="M51 940q0 426 318 426q88 0 151.5 -26.5t97 -65.5t53 -99.5t24.5 -112.5t5 -122q0 -66 -4 -114t-22.5 -116.5t-51 -112.5t-98 -77t-155.5 -33q-88 0 -151.5 31t-94.5 72t-48.5 110.5t-20.5 117.5t-3 122zM184 926q0 -164 35 -242t150 -78q119 0 158.5 82t39.5 238 q0 172 -37.5 248.5t-160.5 76.5q-59 0 -97.5 -24.5t-56.5 -73.5t-24.5 -100t-6.5 -127zM508 -16l565 1423q12 27 33 27h65q27 0 17 -31l-563 -1426q-10 -25 -31 -24h-66q-30 0 -20 31zM979 440q0 426 317 426q88 0 151.5 -26.5t97.5 -65.5t53.5 -99.5t24.5 -112.5t5 -122 q0 -66 -4 -113.5t-22.5 -116.5t-51 -113t-98.5 -76.5t-156 -32.5q-88 0 -151.5 30.5t-94 71.5t-48 110.5t-20.5 117.5t-3 122zM1112 426q0 -164 35 -242t149 -78q119 0 159 82t40 238q0 172 -38 249t-161 77q-59 0 -97 -25t-56.5 -74t-24.5 -100t-6 -127z" />
<glyph unicode="&#x26;" horiz-adv-x="1415" d="M76 354q0 270 334 459q-104 150 -105 268q0 127 80 212t215 85q127 0 209 -74.5t82 -187.5q0 -106 -68.5 -187t-208.5 -163q160 -246 369 -455q205 203 244 494q4 27 35 26l55 -2q31 -2 31 -41q-12 -162 -92 -320.5t-177 -252.5q143 -131 279 -205q23 -14 10 -37l-33 -59 q-18 -25 -47 -12q-63 29 -156.5 94t-162.5 131q-213 -150 -449 -150q-195 0 -319.5 94.5t-124.5 282.5zM219 358q0 -131 80 -191.5t211 -62.5q180 0 360 119q-207 199 -389 479q-262 -145 -262 -344zM457 1092q0 -82 86 -211q98 51 150 103t52 124q0 61 -43 101t-104 40 q-70 0 -105.5 -50t-35.5 -107z" />
<glyph unicode="'" horiz-adv-x="419" d="M137 1335q0 23 25 23h86q23 0 22 -23l-20 -346q0 -18 -23 -18h-53q-16 0 -16 18z" />
<glyph unicode="(" horiz-adv-x="591" d="M127 637q0 135 25.5 260t71.5 227.5t84 168t89 139.5q14 23 37 8l39 -23q25 -16 12 -33q-203 -307 -202 -747q0 -504 202 -805q12 -16 -12 -33l-37 -20q-25 -18 -39 4q-270 375 -270 854z" />
<glyph unicode=")" horiz-adv-x="595" d="M133 -168q203 301 203 805q0 440 -203 747q-10 18 12 33l39 23q23 14 39 -8q51 -76 88 -139.5t83 -167t72 -228.5t26 -260q0 -475 -269 -854q-16 -23 -41 -4l-37 20q-24 17 -12 33z" />
<glyph unicode="*" horiz-adv-x="702" d="M102 958q-10 18 9 29l145 96l-147 88q-18 14 -7 35l19 29q12 23 37 10l151 -78l6 170q0 12 5.5 16.5t21.5 4.5h45q14 0 19.5 -4t5.5 -19l6 -166l151 76q18 10 33 -10l21 -33q10 -14 -5 -24l-151 -97l149 -98q18 -10 5 -33l-19 -30q-12 -18 -33 -9l-151 84l-6 -170 q0 -12 -4.5 -16t-20.5 -4h-47q-14 0 -17.5 3t-5.5 17l-8 172l-155 -79q-20 -12 -31 8z" />
<glyph unicode="+" d="M170 629v71q0 27 27 27h307v297q0 29 26 29h84q25 0 25 -29v-297h299q31 0 31 -27v-71q0 -25 -31 -25h-299v-313q0 -29 -25 -29h-84q-27 0 -26 29v313h-307q-27 0 -27 25z" />
<glyph unicode="," horiz-adv-x="399" d="M84 -250q-14 10 6 31q68 59 68 145q0 78 -52 140q-18 25 9 43l82 61q25 20 51 -2q59 -53 59 -125q0 -213 -162 -313q-23 -16 -36 -2z" />
<glyph unicode="-" horiz-adv-x="757" d="M72 629v63q0 27 28 27h557q29 0 29 -27v-63q0 -25 -29 -25h-557q-28 0 -28 25z" />
<glyph unicode="." horiz-adv-x="380" d="M94 80q0 94 92 94q55 0 75 -23.5t20 -70.5q0 -98 -95 -98q-55 0 -73.5 25.5t-18.5 72.5z" />
<glyph unicode="/" horiz-adv-x="524" d="M23 -102l356 1495q6 27 33 26h67q20 0 15 -30l-355 -1495q-6 -25 -28 -25h-68q-26 0 -20 29z" />
<glyph unicode="0" d="M94 698q0 676 477 676q131 0 225.5 -42t144.5 -103.5t80 -158.5t37 -179t7 -193q0 -72 -2 -126t-13.5 -133t-31 -137t-56 -121.5t-87 -104.5t-128 -67.5t-176.5 -26.5q-96 0 -171.5 25.5t-125 63.5t-84 100t-53 117.5t-29 137.5t-12.5 137t-2 135zM256 678 q0 -109 6 -183.5t24.5 -148.5t52.5 -118t92 -71.5t140 -27.5q102 0 171 40t103 120t46 170t12 219q0 115 -6 191.5t-25.5 150.5t-55.5 117t-97.5 68.5t-147.5 25.5q-80 0 -138 -30t-92 -77t-53.5 -122.5t-25.5 -149.5t-6 -174z" />
<glyph unicode="1" d="M233 27v90q0 29 31 28h246v1022h-229q-16 0 -22.5 5.5t-6.5 19.5v49q0 29 22 35l193 65q39 16 80 17h86q25 0 30 -8.5t5 -26.5v-1178h268q31 0 31 -28v-90q0 -27 -31 -27h-672q-31 0 -31 27z" />
<glyph unicode="2" d="M102 29v94q0 33 23 55q262 252 330 322q84 80 204 202q152 152 152 287q0 68 -9 107t-39 70.5t-88.5 44t-156.5 12.5q-133 0 -344 -29q-31 -4 -39 23l-12 57q-6 31 27 45q135 53 368 53q250 0 352.5 -89t102.5 -267q0 -131 -40 -213t-147 -193q-139 -143 -477 -463l4 -2 h656q31 0 30 -28v-90q0 -27 -28 -27h-840q-29 0 -29 29z" />
<glyph unicode="3" d="M98 84l11 53q8 29 41 25q246 -31 348 -31q76 0 131 12.5t108.5 45t81 103t27.5 177.5q0 88 -50.5 130t-156.5 60l-246 41q-39 6 -39 43v62q0 33 21 53l375 350v2h-605q-31 0 -30 31v88q0 27 28 27h777q37 0 36 -31v-82q-2 -51 -41 -86l-348 -326v-2l164 -28 q281 -51 281 -320q0 -281 -133.5 -389t-391.5 -108q-233 0 -366 55q-29 10 -23 45z" />
<glyph unicode="4" d="M37 395v82q0 31 20 58l676 794q20 27 58 27h83q27 0 27 -25v-817h164q29 0 29 -29v-90q0 -27 -29 -26h-164v-338q0 -31 -31 -31h-98q-29 0 -29 29l2 340h-677q-31 -1 -31 26zM238 514h507v606l-4 2l-501 -604z" />
<glyph unicode="5" d="M113 84l10 53q8 29 41 25q242 -31 346 -31q158 0 245 69.5t87 268.5q0 88 -52.5 131t-154.5 59l-449 74q-53 10 -45 66l82 528q4 29 37 29h655q27 0 27 -25v-90q0 -29 -31 -29h-555l-53 -346l418 -63q287 -45 287 -321.5t-129 -387t-379 -110.5q-231 0 -365 55 q-28 10 -22 45z" />
<glyph unicode="6" d="M92 629q0 121 8.5 212t39 197.5t85 174t152.5 113.5t235 46q209 0 344 -53q33 -14 27 -45l-12 -57q-8 -27 -39 -23q-211 29 -324 29q-100 0 -169.5 -33t-106.5 -98.5t-53.5 -138t-20.5 -175.5q291 31 422 31q193 0 285 -104.5t92 -323.5q0 -207 -135.5 -303t-352.5 -96 q-78 0 -140 10t-109.5 25.5t-83 47t-60 59.5t-40 78t-25 88t-13.5 104.5t-5 110.5t-1 124zM254 629q0 -301 45 -385q63 -119 279 -119q315 0 315 252q0 145 -52.5 212.5t-189.5 67.5q-139 1 -397 -28z" />
<glyph unicode="7" d="M84 1239v88q0 31 31 31h866q16 0 27.5 -10.5t11.5 -22.5v-74q0 -45 -25 -94l-585 -1161q-12 -25 -39 -14l-105 28q-31 12 -14 41l592 1161h-731q-29 0 -29 27z" />
<glyph unicode="8" d="M72 360q0 274 231 359v4q-84 31 -136 103.5t-52 162.5q0 190 116.5 288.5t333.5 98.5q211 0 328 -93t117 -282q0 -84 -54.5 -164.5t-142.5 -113.5v-4q113 -35 178.5 -127t65.5 -227q0 -176 -134.5 -279.5t-363.5 -103.5q-487 -1 -487 378zM240 377q0 -252 319 -252 q133 0 230.5 60.5t97.5 174.5q0 70 -24.5 120t-76 83t-104.5 53.5t-135 38.5q-53 -10 -88 -19t-80 -30.5t-72.5 -49.5t-47 -74t-19.5 -105zM283 1004q0 -96 71.5 -143.5t206.5 -76.5q154 25 217.5 75t63.5 145q0 231 -277 231q-154 0 -218 -57t-64 -174z" />
<glyph unicode="9" d="M88 973q0 205 134 302t351 97q86 0 154 -11t116 -37t84 -55.5t59.5 -78.5t36.5 -92t19.5 -111.5t8.5 -123t2 -138.5q0 -121 -8.5 -212t-40 -197.5t-86 -174t-152.5 -113.5t-236 -46q-213 0 -342 53q-35 12 -26 45l12 55q6 27 37 25q215 -29 324 -29q100 0 169.5 33 t106.5 97.5t53.5 138t20.5 173.5q-268 -29 -422 -28q-190 0 -282.5 103.5t-92.5 324.5zM252 975q0 -145 51 -213t189 -68q121 0 397 31q0 301 -43 383q-63 121 -279 121q-315 0 -315 -254z" />
<glyph unicode=":" horiz-adv-x="399" d="M106 80q0 94 93 94q55 0 74.5 -23.5t19.5 -70.5q0 -98 -94 -98q-55 0 -74 25.5t-19 72.5zM106 807q0 94 93 94q55 0 74.5 -23.5t19.5 -70.5q0 -98 -94 -98q-55 0 -74 25.5t-19 72.5z" />
<glyph unicode=";" horiz-adv-x="399" d="M74 -250q-14 10 6 31q68 59 67 145q0 78 -51 140q-18 25 8 43l82 61q25 20 52 -2q59 -53 59 -125q0 -213 -162 -313q-23 -16 -37 -2zM106 807q0 94 93 94q55 0 74.5 -23.5t19.5 -70.5q0 -98 -94 -98q-55 0 -74 25.5t-19 72.5z" />
<glyph unicode="&#x3c;" d="M172 633v63q0 23 21 35l747 402q25 14 25 -17v-100q0 -20 -25 -35l-573 -311v-6l575 -314q25 -12 25 -37v-106q0 -29 -23 -14l-749 403q-23 10 -23 37z" />
<glyph unicode="=" d="M170 465v74q0 27 29 26h741q29 0 29 -26v-74q0 -25 -29 -25h-741q-29 0 -29 25zM170 793v73q0 27 29 27h741q29 0 29 -27v-73q0 -25 -29 -25h-741q-29 0 -29 25z" />
<glyph unicode="&#x3e;" d="M172 207v106q0 25 25 37l575 314v6l-573 311q-25 14 -25 35v100q0 31 25 17l747 -402q20 -12 21 -35v-63q0 -27 -23 -37l-749 -403q-23 -15 -23 14z" />
<glyph unicode="?" horiz-adv-x="720" d="M25 1294q-6 33 26 45q100 39 250 39q188 0 284.5 -80.5t96.5 -232.5q0 -66 -27.5 -120t-56.5 -81.5t-80 -64.5q-102 -76 -149 -141.5t-47 -168.5q0 -84 2 -114q0 -35 -25 -35h-78q-29 0 -35 31q-8 51 -8 139q0 125 62.5 210t187.5 185q41 33 56.5 46.5t31.5 42t16 61.5 q0 94 -56 134t-181 40q-63 0 -221 -15q-31 -2 -39 25zM174 80q0 94 94 94q55 0 74.5 -23.5t19.5 -70.5q0 -98 -94 -98q-57 0 -75.5 25.5t-18.5 72.5z" />
<glyph unicode="@" horiz-adv-x="1665" d="M96 682q0 307 230.5 513t554.5 206q328 0 515 -191.5t187 -496.5q0 -195 -102.5 -307.5t-235.5 -112.5q-180 0 -237 131q-164 -90 -285 -90q-201 0 -201 203q0 129 67.5 189t207.5 60h196v52q0 80 -35.5 109.5t-132.5 29.5q-113 0 -204 -12q-27 -4 -29 12l-8 41 q-4 23 24 35q84 29 240 28q164 0 214 -63.5t50 -198.5v-305q0 -117 137 -117q96 0 158.5 86t62.5 232q0 262 -159.5 422.5t-429.5 160.5q-281 0 -477.5 -177t-196.5 -437q0 -272 181 -444t466 -172q117 0 244 38q23 6 28 -10l15 -43q8 -29 -17 -39q-121 -51 -280 -51 q-324 0 -536 202t-212 517zM641 543q0 -59 23.5 -82t85.5 -23q96 0 245 82v168h-211q-72 0 -107.5 -31.5t-35.5 -113.5z" />
<glyph unicode="A" horiz-adv-x="1122" d="M33 33l428 1292q8 31 39 31h114q29 0 39 -31l428 -1296q2 -7 2 -13q0 -16 -18 -16h-125q-27 0 -35 27l-100 335h-500l-106 -329q-10 -33 -43 -33h-107q-20 0 -20 16q0 7 4 17zM352 508h408l-103 342l-98 332h-6l-96 -326z" />
<glyph unicode="B" horiz-adv-x="1140" d="M147 35v1288q0 33 37 33h432q193 0 295.5 -94.5t102.5 -253.5q0 -84 -40 -167t-134 -128l2 -2q113 -35 163 -133.5t50 -204.5q0 -166 -107.5 -269.5t-263.5 -103.5h-494q-43 0 -43 35zM305 145h328q254 0 254 242q0 104 -64.5 175t-189.5 71h-328v-488zM305 776h322 q90 0 154.5 63.5t64.5 155.5q0 98 -62.5 157.5t-187.5 59.5h-291v-436z" />
<glyph unicode="C" horiz-adv-x="1101" d="M133 664q0 119 11.5 213t45 190t89 160.5t150.5 104.5t224 40q231 0 367 -53q33 -14 27 -45l-13 -57q-8 -27 -39 -23q-211 29 -342 29q-92 0 -158.5 -31t-103.5 -79t-57.5 -126t-26.5 -149.5t-6 -173.5q0 -90 7 -161t29.5 -143.5t60.5 -119.5t102.5 -77t152.5 -30 q111 0 340 29q33 4 41 -25l10 -53q6 -35 -22 -45q-133 -55 -369 -55q-125 0 -219 37.5t-150.5 98t-91 151.5t-47 184.5t-12.5 208.5z" />
<glyph unicode="D" horiz-adv-x="1263" d="M156 35v1288q0 33 37 33h389q160 0 270.5 -51.5t169.5 -147.5t83.5 -211t24.5 -264q0 -152 -24.5 -267.5t-82.5 -213t-169 -149.5t-272 -52h-383q-43 0 -43 35zM315 147h252q63 0 112.5 10.5t105 42t92 86t61.5 152t25 228.5q0 166 -31 277.5t-87.5 167.5t-118.5 77.5 t-144 21.5h-267v-1063z" />
<glyph unicode="E" horiz-adv-x="1034" d="M152 33v1290q0 35 36 35h707q35 0 35 -33v-80q0 -35 -37 -35h-582v-432h523q35 0 34 -33v-79q0 -33 -34 -33h-523v-488h598q33 0 33 -34v-78q0 -33 -35 -33h-719q-36 0 -36 33z" />
<glyph unicode="F" horiz-adv-x="980" d="M158 35v1290q0 33 39 33h692q35 0 35 -33v-80q0 -35 -37 -35h-572v-432h506q35 0 35 -33v-79q0 -35 -37 -35h-502v-596q0 -35 -34 -35h-88q-37 0 -37 35z" />
<glyph unicode="G" horiz-adv-x="1236" d="M135 666q0 117 12.5 212t46 190t91 159.5t151.5 104.5t221 40q229 0 367 -53q33 -12 27 -45l-15 -57q-4 -27 -37 -23q-215 29 -342 29q-90 0 -155.5 -31t-103.5 -79t-59.5 -125t-27.5 -150.5t-6 -173.5q0 -115 15.5 -202t53.5 -167t112.5 -123t183.5 -43q168 0 260 33 v418h-187q-37 0 -36 34v80q0 33 34 33h314q39 0 39 -35v-586q0 -55 -56 -71q-172 -51 -358 -51q-291 0 -418 176t-127 506z" />
<glyph unicode="H" horiz-adv-x="1218" d="M147 35v1286q0 37 37 37h88q33 0 33 -37v-528h608v528q0 37 37 37h88q33 0 33 -37v-1286q0 -35 -33 -35h-88q-37 0 -37 35v610h-608v-610q0 -35 -33 -35h-88q-37 0 -37 35z" />
<glyph unicode="I" horiz-adv-x="520" d="M176 35v1286q0 37 37 37h90q35 0 35 -37v-1286q0 -35 -35 -35h-90q-37 0 -37 35z" />
<glyph unicode="J" horiz-adv-x="856" d="M18 74l15 57q6 27 37 21q133 -18 213 -19q137 0 187 49t50 160v979q0 37 37 37h88q37 0 37 -37v-993q0 -170 -90 -258t-293 -88q-143 0 -250 43q-33 15 -33 37q0 6 2 12z" />
<glyph unicode="K" horiz-adv-x="1126" d="M143 35v1286q0 37 37 37h88q33 0 33 -37v-715l4 -2l162 207l426 524q20 23 47 23h125q14 0 18 -9.5t-4 -19.5l-446 -547l459 -753q4 -6 3 -12q0 -4 -1 -8q-4 -9 -19 -9h-125q-31 0 -47 29l-375 626l-227 -278v-342q0 -35 -33 -35h-88q-37 0 -37 35z" />
<glyph unicode="L" horiz-adv-x="991" d="M154 33v1288q0 37 34 37h91q33 0 32 -37v-1176h615q20 0 27.5 -7t7.5 -27v-78q0 -33 -33 -33h-738q-36 0 -36 33z" />
<glyph unicode="M" horiz-adv-x="1513" d="M152 35v1292q0 31 30 31h90q31 0 45 -31l340 -706l99 -213h4l100 221l340 696q18 33 51 33h82q31 0 31 -31v-1292q0 -35 -35 -35h-88q-37 0 -37 35v971h-6l-72 -158l-299 -610q-12 -27 -41 -27h-59q-31 0 -43 25l-311 634l-64 136h-4v-971q0 -35 -33 -35h-86 q-34 0 -34 35z" />
<glyph unicode="N" horiz-adv-x="1288" d="M147 35v1292q0 31 33 31h84q29 0 51 -33l555 -856l109 -172h6v1024q0 37 35 37h86q33 0 33 -37v-1288q0 -33 -33 -33h-78q-33 0 -53 33l-547 844l-119 194h-6v-1036q0 -35 -35 -35h-84q-37 0 -37 35z" />
<glyph unicode="O" horiz-adv-x="1306" d="M127 698q0 676 522 676q135 0 234.5 -40t155 -101.5t88 -154.5t43 -180t10.5 -200q0 -115 -8.5 -200.5t-40 -189t-86 -170t-157 -111.5t-241.5 -45q-100 0 -180 23.5t-133 61t-92 96t-60.5 117t-35 136.5t-16.5 140t-3 142zM291 678q0 -272 76.5 -412.5t279.5 -140.5 q211 0 292 137t81 416q0 283 -82 420t-291 137q-195 0 -275.5 -141.5t-80.5 -415.5z" />
<glyph unicode="P" horiz-adv-x="1054" d="M147 35v1290q0 33 37 33h389q188 0 305 -101.5t117 -293.5q0 -76 -20.5 -144.5t-65.5 -131t-131 -99.5t-203 -37h-268v-516q0 -35 -35 -35h-88q-37 0 -37 35zM307 692h266q264 0 265 269q0 125 -74 188t-203 63h-254v-520z" />
<glyph unicode="Q" horiz-adv-x="1312" d="M129 698q0 676 520 676q135 0 234.5 -40t156 -101.5t89 -154.5t43 -180t10.5 -200q0 -231 -48.5 -397t-193.5 -250l264 -74q20 -6 20 -22q0 -7 -3 -16l-39 -84q-10 -28 -33 -29q-8 0 -19 4l-434 154q-16 -2 -47 -2q-100 0 -180 23.5t-133 61t-92 96t-60.5 117t-35 136.5 t-16.5 140t-3 142zM293 678q0 -268 80 -410.5t276 -142.5q201 0 287 140.5t86 412.5q0 283 -82 420t-291 137q-195 0 -275.5 -141.5t-80.5 -415.5z" />
<glyph unicode="R" horiz-adv-x="1077" d="M137 35v1290q0 33 35 33h418q168 0 281.5 -96.5t113.5 -288.5q0 -127 -63.5 -232.5t-196.5 -146.5l281 -559q3 -8 3 -15q0 -6 -2 -10q-5 -10 -20 -10h-117q-33 0 -45 27l-262 544h-268v-534q0 -37 -35 -37h-88q-35 0 -35 35zM295 713h252q272 0 272 262q0 236 -268 235 h-256v-497z" />
<glyph unicode="S" horiz-adv-x="1077" d="M100 84l15 57q6 23 35 21q229 -29 364 -29q152 0 231.5 57.5t79.5 161.5q0 137 -57 189.5t-227 81.5q-86 14 -141.5 27.5t-118 40t-97 62t-58.5 95t-24 137.5q0 186 114 285.5t325 99.5q238 0 366 -53q35 -12 27 -45l-12 -55q-8 -27 -39 -25q-211 29 -342 29 q-154 0 -216.5 -58.5t-62.5 -171t58.5 -150.5t232.5 -69q84 -14 137 -27.5t114.5 -42t96.5 -67.5t58.5 -104.5t23.5 -153.5q0 -209 -129 -302t-338 -93q-94 0 -210 15t-179 42q-33 14 -27 45z" />
<glyph unicode="T" horiz-adv-x="985" d="M35 1245v80q0 33 35 33h848q35 0 34 -33v-80q0 -35 -37 -35h-344v-1175q0 -35 -32 -35h-88q-37 0 -37 35v1175h-342q-37 0 -37 35z" />
<glyph unicode="U" horiz-adv-x="1243" d="M141 492v829q0 37 35 37h90q35 0 35 -37v-836q0 -172 81 -263t241 -91q326 0 325 354v836q0 37 37 37h88q33 0 33 -37l-2 -829q0 -147 -35 -240q-109 -266 -446 -266q-346 0 -443 262q-39 101 -39 244z" />
<glyph unicode="V" horiz-adv-x="1142" d="M51 1325q-3 8 -2 14q0 17 21 17h104q31 0 39 -29l205 -631l155 -489h7l155 489l201 631q8 29 41 29h102q19 0 20 -17q0 -7 -3 -16l-428 -1294q-8 -29 -41 -29h-107q-31 0 -39 27z" />
<glyph unicode="W" horiz-adv-x="1669" d="M41 1327q-1 6 -1 11q0 20 21 20h107q29 0 37 -29q223 -774 252 -874l59 -209h4l58 200q45 180 176 623l-74 256q-10 33 18 33h107q31 0 39 -29q223 -774 252 -874l57 -209h6l53 200l250 883q8 29 39 29h103q19 0 19 -19q0 -7 -3 -18l-375 -1290q-8 -31 -39 -31h-106 q-33 0 -41 29l-193 659l-32 117l-5 -2l-32 -121l-191 -653q-8 -29 -37 -29h-112q-29 0 -35 29z" />
<glyph unicode="X" horiz-adv-x="1069" d="M37 9q-1 3 -2 7q0 7 6 15l408 667l-377 627q-8 12 -4 22.5t18 10.5h119q27 0 43 -27l160 -278l124 -217l127 223l158 270q14 27 47 27h111q14 2 19 -9.5t-1 -21.5l-377 -627l408 -669q5 -6 5 -13q0 -4 -2 -7q-5 -9 -19 -9h-117q-29 0 -45 29l-180 305l-134 227l-122 -213 l-191 -319q-16 -29 -47 -29h-117q-14 0 -18 9z" />
<glyph unicode="Y" horiz-adv-x="1038" d="M35 1329q-2 5 -2 9.5t2 9.5q4 8 16 8h121q27 0 39 -25l190 -358l113 -211h12l121 219l191 350q14 25 43 25h106q23 0 23 -15q0 -7 -4 -16l-408 -719v-571q0 -35 -33 -35h-86q-37 0 -37 35v571z" />
<glyph unicode="Z" horiz-adv-x="999" d="M74 33v71q0 35 16 62l651 1044h-591q-35 0 -35 35v80q0 33 32 33h744q33 0 33 -29v-82q0 -27 -17 -53l-645 -1049h633q35 0 35 -32v-78q0 -35 -33 -35h-791q-32 0 -32 33z" />
<glyph unicode="[" horiz-adv-x="518" d="M86 -172v1565q0 31 35 30h264q29 0 29 -26v-76q0 -29 -33 -29h-148v-1366h150q31 0 31 -26v-76q0 -29 -31 -29h-260q-37 0 -37 33z" />
<glyph unicode="\" horiz-adv-x="524" d="M23 1389q-6 31 14 30h67q27 0 33 -26l357 -1495q6 -29 -19 -29h-69q-23 0 -29 25z" />
<glyph unicode="]" horiz-adv-x="516" d="M102 -100q0 27 31 26h156v1366h-154q-33 0 -33 29v76q0 27 29 26h268q37 0 37 -30v-1567q0 -31 -39 -31h-264q-31 0 -31 29v76z" />
<glyph unicode="^" horiz-adv-x="1003" d="M43 831l365 500q16 25 53 25h86q43 0 57 -25l350 -500q12 -23 2 -30l-38 -31q-20 -16 -33 -2l-381 461l-383 -451q-18 -16 -39 -2l-37 29q-12 10 -2 26z" />
<glyph unicode="_" horiz-adv-x="1024" d="M-14 -197q0 29 28 29h994q31 0 30 -29v-47q0 -25 -28 -24h-996q-29 0 -28 22v49z" />
<glyph unicode="`" horiz-adv-x="1019" d="M346 1389q-16 20 6 30l94 41q27 12 35 -6l144 -293q10 -23 -7 -28l-59 -27q-20 -8 -31 6z" />
<glyph unicode="a" horiz-adv-x="1052" d="M90 266q0 176 90 260t291 84h283v70q0 113 -52.5 156t-187.5 43q-133 0 -289 -19q-35 -6 -41 19l-12 53q-6 29 33 45q117 41 340 41q121 0 195.5 -24.5t110.5 -78t47 -110.5t11 -152v-452q0 -59 11.5 -71.5t62.5 -16.5q35 -2 35 -27v-51q0 -31 -41 -37q-37 -6 -72 -6 q-72 0 -105.5 26.5t-43.5 92.5h-4q-215 -127 -385 -127q-145 0 -211 70.5t-66 211.5zM248 272q0 -84 33.5 -115.5t124.5 -31.5q145 0 348 117v239h-301q-100 0 -152.5 -46t-52.5 -163z" />
<glyph unicode="b" horiz-adv-x="1042" d="M104 113v1292q0 20 7.5 28.5t27.5 8.5h86q37 0 37 -37v-444l2 -5q158 61 291 62q225 0 311 -129t86 -383q0 -268 -92 -396t-328 -128q-231 0 -378 49q-50 19 -50 82zM264 150q133 -20 262 -21q68 0 110 12.5t80 48t55 109.5t17 188q0 215 -50 302.5t-175 87.5 q-150 0 -299 -46v-681z" />
<glyph unicode="c" horiz-adv-x="870" d="M92 506q0 88 8.5 154.5t34 137t68.5 115.5t119.5 75t181.5 30q199 0 311 -47q25 -10 21 -43l-9 -47q-8 -27 -53 -23q-209 20 -272 21q-139 0 -191.5 -81t-52.5 -290q0 -221 53.5 -303t190.5 -82q117 0 280 20q41 4 45 -26l9 -43q1 -5 1 -10q0 -22 -24 -33 q-102 -47 -309 -47q-104 0 -180 27.5t-120 72.5t-69.5 115.5t-34 140.5t-8.5 166z" />
<glyph unicode="d" horiz-adv-x="1044" d="M88 489q0 272 88 400.5t316 128.5q133 0 280 -57l4 2v442q0 39 35 39h86q20 0 26.5 -8.5t6.5 -30.5v-1370q0 -35 -33 -35h-86q-35 0 -35 35v76l-6 2q-197 -129 -348 -129q-186 0 -260 124.5t-74 380.5zM250 485.5q0 -221.5 42 -291t144 -69.5q125 0 338 117v589 q-152 45 -295 46q-131 0 -180 -85t-49 -306.5z" />
<glyph unicode="e" horiz-adv-x="1001" d="M94 498q0 520 416 520q100 0 176 -26.5t119 -66.5t69.5 -103.5t35.5 -122.5q13 -85 14 -143q0 -107 -90 -107h-578q2 -184 62.5 -254t205.5 -70q70 0 285 25q41 4 47 -27l8 -45q6 -29 -22 -41q-131 -55 -328 -55q-109 0 -187.5 29.5t-122.5 74.5t-69.5 117.5t-33 138.5 t-7.5 156zM256 578h502q0 61 -9.5 108t-34 94t-77.5 73t-131 26q-129 0 -184.5 -75.5t-65.5 -225.5z" />
<glyph unicode="f" horiz-adv-x="741" d="M68 903v58q0 37 34 36h103v117q0 162 76.5 247t255.5 85q123 0 233 -43q25 -10 21 -43l-9 -47q-6 -24 -36 -24q-8 0 -17 1q-113 16 -174 17q-104 0 -151.5 -46.5t-47.5 -150.5v-113h256q35 0 35 -34v-60q0 -35 -35 -35h-256v-833q0 -35 -32 -35h-84q-37 0 -37 35v833 h-101q-34 0 -34 35z" />
<glyph unicode="g" horiz-adv-x="1046" d="M98 494q0 262 95.5 393t326.5 131q209 0 375 -49q51 -14 51 -82v-891q0 -74 -7 -124t-30.5 -101.5t-65.5 -82t-115 -49t-175 -18.5q-223 0 -334 47q-31 12 -22 43l8 45q4 29 51 23q133 -18 289 -19q139 0 190 45t51 156v82q-164 -61 -290 -61q-225 0 -311.5 129 t-86.5 383zM262 512q0 -215 51.5 -303t178.5 -88q135 0 294 47v682q-172 23 -262 22q-63 0 -105 -12t-81 -49t-57.5 -110.5t-18.5 -188.5z" />
<glyph unicode="h" horiz-adv-x="1048" d="M113 35v1374q0 35 32 35h84q37 0 37 -35v-520l2 -2q201 131 365 131q96 0 157.5 -26.5t91 -83t39 -116t9.5 -153.5v-604q0 -35 -37 -35h-86q-35 0 -35 35l2 624q0 129 -34.5 173.5t-131.5 44.5q-109 0 -342 -117v-725q0 -35 -37 -35h-84q-32 0 -32 35z" />
<glyph unicode="i" horiz-adv-x="456" d="M141 1264q0 88 88 88q51 0 69.5 -21.5t18.5 -66.5t-18 -69t-70 -24q-53 0 -70.5 24t-17.5 69zM152 35v928q0 35 36 34h84q33 0 33 -34v-928q0 -35 -33 -35h-84q-36 0 -36 35z" />
<glyph unicode="j" horiz-adv-x="491" d="M-100 -336q-2 33 28 39q156 31 203 69t47 154v1037q0 35 37 34h82q37 0 37 -34v-1033q0 -82 -13.5 -138t-52.5 -109.5t-120 -78.5q-70 -22 -170 -22h-33q-39 0 -41 35zM168 1264q0 88 88 88q51 0 69.5 -21.5t18.5 -66.5t-18.5 -69t-69.5 -24q-53 0 -70.5 24t-17.5 69z " />
<glyph unicode="k" horiz-adv-x="913" d="M125 35v1374q0 35 35 35h84q37 0 37 -35v-917l4 -3l106 138l289 346q20 27 45 26h106q16 0 23.5 -12t-4.5 -26l-305 -367l346 -557q4 -7 4 -13t-3 -12q-7 -12 -22 -12h-106q-29 0 -47 29l-273 446l-163 -199v-241q0 -35 -37 -35h-84q-35 0 -35 35z" />
<glyph unicode="l" horiz-adv-x="485" d="M145 158v1249q0 35 35 35h82q37 0 37 -35v-1198q0 -49 20.5 -62.5t81.5 -13.5q33 0 35 -20l8 -66q2 -25 -20 -35q-51 -23 -111 -22q-94 0 -131 43t-37 125z" />
<glyph unicode="m" horiz-adv-x="1658" d="M117 35v928q0 35 33 34h83q37 0 37 -34v-70l2 -2q203 127 338 127q211 0 264 -148q213 147 371 148q178 0 236.5 -91t58.5 -276v-616q0 -35 -35 -35h-86q-35 0 -35 35v616q0 129 -33.5 177.5t-125.5 48.5q-98 0 -324 -119q4 -33 4 -111v-612q0 -35 -35 -35h-90 q-31 0 -30 35l2 631q0 106 -34 158.5t-122 52.5q-102 0 -326 -117v-725q0 -35 -34 -35h-86q-33 0 -33 35z" />
<glyph unicode="n" horiz-adv-x="1034" d="M109 35v928q0 35 32 34h84q37 0 37 -34v-74l6 -2q201 131 361 131q96 0 157.5 -26.5t91 -83t39 -116t9.5 -153.5v-604q0 -35 -37 -35h-86q-35 0 -35 35l2 606q0 139 -35 187.5t-131 48.5q-109 0 -342 -117v-725q0 -35 -37 -35h-84q-32 0 -32 35z" />
<glyph unicode="o" horiz-adv-x="1030" d="M94 516q0 502 414 502q109 0 189.5 -30t125.5 -75t71 -115.5t34 -134t8 -147.5q0 -72 -4 -124t-17.5 -119.5t-42 -113.5t-73.5 -89t-119 -64.5t-172 -21.5q-113 0 -192.5 33.5t-121.5 81.5t-66 127t-29 140.5t-5 149.5zM252 501.5q0 -200.5 52 -287.5t204 -87 q160 0 214 85t54 290q0 203 -54 289t-214 86q-152 0 -204 -87.5t-52 -288z" />
<glyph unicode="p" horiz-adv-x="1019" d="M113 -322v1285q0 35 34 34h84q35 0 35 -34v-74l6 -4q207 131 349 131q186 0 259.5 -125t73.5 -383q0 -270 -88 -398t-313 -128q-137 0 -283 57l-2 -2v-359q0 -39 -37 -38h-84q-20 0 -27 7.5t-7 30.5zM268 168q156 -45 295 -45q131 0 180.5 85t49.5 306q0 152 -21.5 231.5 t-58.5 104t-107 24.5q-123 0 -338 -116v-590z" />
<glyph unicode="q" horiz-adv-x="1046" d="M98 487q0 262 98.5 396.5t331.5 134.5q221 0 369 -49q49 -16 49 -82v-1209q0 -39 -35 -38h-86q-37 0 -37 38v363l-2 2q-152 -59 -290 -59q-229 0 -313.5 117.5t-84.5 385.5zM262 496q0 -213 51.5 -294t178.5 -81q137 0 296 47v682q-150 23 -256 22q-129 0 -199.5 -79.5 t-70.5 -296.5z" />
<glyph unicode="r" horiz-adv-x="671" d="M164 35v928q0 35 33 34h86q37 0 36 -34v-84l5 -5q43 35 137 77t170 57q8 2 14 1q7 0 10 -2q6 -5 11 -24l8 -86q1 -6 1 -11q0 -27 -28 -30q-84 -16 -187.5 -47t-140.5 -51v-723q0 -35 -34 -35h-88q-33 0 -33 35z" />
<glyph unicode="s" horiz-adv-x="892" d="M90 74l8 43q4 31 45 26q184 -23 289 -22q113 0 164 36t51 113q0 90 -39 122t-162 50q-84 12 -137 27.5t-108.5 45.5t-83 82t-27.5 128q0 141 95.5 217t263.5 76q197 0 307 -45q29 -14 20 -43l-8 -49q-4 -27 -53 -23q-211 20 -269 21q-113 0 -154.5 -34t-41.5 -116 q0 -74 40 -97.5t171 -43.5q84 -12 134 -26.5t105.5 -46.5t82 -88t26.5 -140q0 -158 -108.5 -230.5t-274.5 -72.5q-211 0 -313 47q-27 12 -23 43z" />
<glyph unicode="t" horiz-adv-x="661" d="M49 903v58q0 37 35 36h115v222q0 29 34 38l82 23q7 2 13 2q22 0 22 -33v-252h228q35 0 34 -34v-60q0 -35 -34 -35h-228v-620q0 -74 28 -97.5t118 -23.5q4 0 118 8q25 2 34 -3t11 -21l9 -48q2 -27 -19 -38q-76 -41 -231 -41q-125 0 -173 55t-48 162v667h-113q-35 0 -35 35 z" />
<glyph unicode="u" horiz-adv-x="1048" d="M115 358v605q0 35 35 34h88q33 0 32 -34v-607q0 -139 36 -187t132 -48q115 0 344 119v723q0 35 35 34h84q35 0 35 -34v-928q0 -35 -35 -35h-84q-37 0 -37 35v71l-4 5q-207 -131 -360 -131q-96 0 -158.5 26.5t-92.5 81.5t-40 116.5t-10 153.5z" />
<glyph unicode="v" horiz-adv-x="948" d="M39 965q-4 10 -4 16q0 16 20 16h113q20 0 33 -28l205 -574q63 -188 71 -213h4l74 219l201 570q10 27 30 26h113q19 0 19 -13q0 -7 -5 -17l-354 -940q-10 -27 -35 -27h-94q-25 0 -33 25z" />
<glyph unicode="w" horiz-adv-x="1409" d="M39 965q-4 10 -4 16q0 16 20 16h111q25 0 35 -28q20 -68 71.5 -227.5t77.5 -245.5l90 -289h4l93 282q14 45 45.5 138.5t48.5 142.5l-58 195q-8 33 17 32h108q27 0 33 -28l148 -459q2 -10 38.5 -128t55.5 -179h4l100 332l135 436q8 27 31 26h113q17 0 17 -15q0 -6 -3 -15 l-313 -940q-8 -27 -35 -27h-90q-27 0 -35 24.5t-47 139.5t-59 178q-12 39 -40 121t-42 125h-4l-80 -244l-105 -317q-8 -27 -33 -27h-90q-25 0 -35 25z" />
<glyph unicode="x" horiz-adv-x="886" d="M23 10q-2 4 -2 9q0 7 4 14l325 475l-309 457q-8 12 -3 22t19 10h123q16 0 37 -26l223 -338l222 338q16 27 36 26h125q14 0 19.5 -10t-2.5 -22l-312 -455l326 -477q5 -8 5 -15q0 -4 -2 -8q-5 -10 -19 -10h-125q-25 0 -41 27l-234 360l-235 -360q-16 -27 -43 -27h-119 q-14 0 -18 10z" />
<glyph unicode="y" horiz-adv-x="954" d="M51 965q-4 10 -3 16q0 16 20 16h108q23 0 33 -28l168 -469l110 -314l115 328l156 457q8 27 33 26h110q17 0 17 -15q0 -6 -3 -15l-469 -1299q-10 -29 -40 -28h-95q-29 0 -18 32l119 328z" />
<glyph unicode="z" horiz-adv-x="886" d="M68 29v59q0 35 18 59l541 711h-496q-35 0 -35 35v74q0 31 35 30h637q37 0 37 -28v-74q0 -33 -21 -57l-522 -693h514q37 0 37 -32v-78q0 -35 -35 -35h-680q-30 0 -30 29z" />
<glyph unicode="{" horiz-adv-x="544" d="M49 592v43q0 18 23 24q66 20 84 67.5t18 133.5v387q0 82 40 137.5t130 55.5q39 0 107 -10q29 -6 28 -33v-47q0 -27 -30 -31l-60 -4q-41 -2 -54 -19.5t-13 -60.5v-377q0 -199 -115 -246l2 -4q70 -37 90 -92t20 -147v-396q0 -41 14.5 -59t55.5 -20l60 -5q31 -4 30 -28v-49 q0 -27 -28 -31q-51 -10 -107 -10q-170 0 -170 190v406q0 57 -4 88.5t-27.5 63.5t-68.5 46q-25 7 -25 27z" />
<glyph unicode="|" horiz-adv-x="485" d="M178 -203v1594q0 35 37 34h55q33 0 33 -34v-1594q0 -35 -33 -35h-55q-37 0 -37 35z" />
<glyph unicode="}" horiz-adv-x="544" d="M49 -139q0 25 31 28l59 5q41 2 55.5 20t14.5 59v396q0 92 20.5 147t89.5 92l3 4q-115 47 -115 246v377q0 43 -13.5 60.5t-54.5 19.5l-59 4q-31 4 -31 31v47q0 27 29 33q68 10 106 10q90 0 130 -55.5t40 -137.5v-387q0 -43 3 -68.5t12.5 -55t31 -48t56.5 -29.5 q23 -6 22 -24v-43q0 -20 -24 -27q-45 -14 -69 -46t-28 -63.5t-4 -88.5v-406q0 -190 -170 -190q-55 0 -106 10q-29 4 -29 31v49z" />
<glyph unicode="~" d="M166 565q72 160 235 160q70 0 201 -56.5t176 -56.5q78 0 129 74q23 27 43 14l41 -24q18 -10 13 -35q-84 -164 -240 -164q-59 0 -190.5 58.5t-180.5 58.5q-41 0 -68.5 -15.5t-70.5 -68.5l-4 -6q-6 -4 -8 -5t-9.5 0t-15.5 5l-41 26q-18 10 -10 35z" />
<glyph unicode="&#xa1;" horiz-adv-x="458" d="M135 899q0 47 19.5 72.5t75 25.5t74 -25.5t18.5 -72.5q0 -92 -93 -92q-55 0 -74.5 22.5t-19.5 69.5zM147 -348l25 950q2 33 25 33h53q29 0 29 -33l20 -950q0 -35 -33 -35h-90q-29 0 -29 35z" />
<glyph unicode="&#xa2;" d="M197 502q0 88 8 155.5t35.5 140t76 119t133.5 75t203 26.5l43 280q2 23 27 23h53q8 0 11.5 -1t7.5 -4t3 -8t-1 -16l-41 -282q106 -14 168 -39q25 -10 20 -43l-8 -47q-8 -27 -53 -23l-148 14l-110 -749q106 0 262 20q41 4 45 -26l8 -43q6 -29 -22 -43q-102 -47 -314 -47 l-43 -287q-2 -12 -3 -17.5t-6 -9.5t-15 -4l-68 2q-23 2 -20 25l47 299q-94 14 -155.5 56t-92.5 115t-41 149.5t-10 189.5zM362 508q0 -184 35 -270t121 -107l113 748q-150 0 -209.5 -82t-59.5 -289z" />
<glyph unicode="&#xa3;" d="M131 29v61q0 35 33 51q72 33 92 104.5t23 182.5v26q0 24 1 63.5t1 82.5h-95q-20 0 -27 7t-7 28v67q0 31 32 31h97l-5 281q-2 162 100.5 259t272.5 97q190 0 328 -53q35 -16 24 -47l-12 -56q-4 -29 -37 -22q-25 2 -85 11t-109 13.5t-103 4.5q-119 0 -172 -54.5t-51 -160.5 l6 -273h371q35 0 35 -31v-67q0 -35 -35 -35h-371v-133q0 -254 -69 -320h233q233 -2 354 -2q35 0 35 -34v-82q0 -18 -8 -23.5t-29 -5.5h-790q-33 0 -33 29z" />
<glyph unicode="&#xa4;" horiz-adv-x="1030" d="M49 139q-23 23 8 49l129 127q-74 106 -73 260q0 121 65 232l-117 117q-25 25 -4 47l66 63q23 23 45 0l113 -114q90 61 227 63q141 0 237 -68l125 127q25 25 48 2l63 -63q23 -23 0 -49l-131 -129q66 -106 65 -219q0 -135 -71 -248l133 -133q31 -27 6 -51l-63 -66 q-23 -20 -50 8l-133 133q-96 -61 -229 -59q-121 0 -209 47l-133 -135q-27 -29 -51 -4zM272 575.5q0 -124.5 61.5 -194.5t174.5 -70q117 0 183.5 74t66.5 190q0 123 -65.5 194t-184.5 71q-113 0 -174.5 -70t-61.5 -194.5z" />
<glyph unicode="&#xa5;" d="M82 1347.5q4 8.5 16 8.5h123q25 0 39 -25l303 -577h12l312 577q14 25 41 25h108q33 0 17 -31l-381 -674h311q20 0 21 -22v-70q0 -18 -19 -18h-338v-90h334q23 0 23 -25v-70q0 -18 -19 -18h-338v-303q0 -35 -35 -35h-88q-35 0 -35 35v303h-333q-20 0 -21 20v74q0 18 23 19 h331v90h-333q-20 0 -21 18v74q0 18 23 18h307l-381 678q-6 10 -2 18.5z" />
<glyph unicode="&#xa6;" horiz-adv-x="485" d="M178 -203v752q0 35 37 35h55q33 0 33 -35v-752q0 -35 -33 -35h-55q-37 0 -37 35zM178 682v700q0 35 37 35h55q33 0 33 -35v-700q0 -35 -33 -35h-55q-37 0 -37 35z" />
<glyph unicode="&#xa7;" horiz-adv-x="872" d="M74 -193l16 43q8 27 47 17q129 -35 262 -35q98 0 171 45t73 156q0 45 -31.5 86t-72.5 65q-41 23 -134.5 64t-140.5 65q-178 100 -178 250q0 68 29.5 144.5t85.5 132.5q-111 80 -111 221q0 147 112.5 227t266.5 80q201 0 303 -65q20 -12 12 -39l-16 -45q-10 -27 -47 -17 q-115 29 -238 29q-102 0 -171.5 -42t-69.5 -118q0 -98 145 -176q39 -23 123 -59.5t123 -59.5q168 -92 168 -244q0 -154 -117 -278q113 -98 113 -215q0 -80 -29 -143.5t-72 -99.5t-99 -59.5t-106.5 -31.5t-99.5 -8q-78 0 -166 18.5t-139 51.5q-20 11 -12 40zM227 600 q0 -106 142 -180q37 -20 112.5 -50t98.5 -40q74 94 73 168q0 113 -139 182q-29 14 -99.5 44t-107.5 50q-80 -80 -80 -174z" />
<glyph unicode="&#xa8;" horiz-adv-x="1019" d="M283 1249q0 84 86 84q49 0 66.5 -21.5t17.5 -62.5q0 -90 -84 -90q-51 0 -68.5 23.5t-17.5 66.5zM659 1249q0 84 84 84q49 0 67.5 -21.5t18.5 -62.5q0 -90 -86 -90q-84 0 -84 90z" />
<glyph unicode="&#xa9;" horiz-adv-x="1626" d="M86 686q0 299 211 508t512 209q307 0 516 -208t209 -509q0 -299 -212 -508t-513 -209t-512 209t-211 508zM190 686q0 -256 181.5 -438t437.5 -182t438.5 182t182.5 438t-182.5 438.5t-438.5 182.5t-437.5 -182.5t-181.5 -438.5zM500 659q0 92 12 163t45 136.5t98.5 100.5 t163.5 35q141 0 225 -33q20 -10 17 -27l-8 -37q-6 -16 -25 -12q-111 16 -209 16q-57 0 -97 -18t-63.5 -48t-36 -77t-16.5 -91t-4 -108q0 -152 45 -238.5t172 -86.5q86 0 209 16q20 4 25 -14l6 -33q4 -20 -15 -27q-84 -35 -225 -34q-94 0 -160.5 33.5t-99.5 95t-46 130 t-13 158.5z" />
<glyph unicode="&#xaa;" horiz-adv-x="716" d="M55 680q0 119 65.5 175t205.5 56h180v35q0 68 -37 94.5t-133 26.5t-176 -14q-35 -6 -41 18l-8 39q-4 25 30 37q80 29 232 29q162 0 213 -60.5t51 -187.5v-273q0 -43 8 -53t43 -14q25 0 25 -19v-43q0 -20 -33 -26t-57 -6q-106 -2 -115 84h-2q-106 -90 -250 -91 q-201 0 -201 193zM184 684q0 -47 21.5 -65.5t75.5 -18.5q90 0 225 72v135h-195q-127 0 -127 -123z" />
<glyph unicode="&#xab;" horiz-adv-x="862" d="M88 410l205 254q23 27 49 26h123q8 0 11 -7t-3 -15l-237 -289l225 -285q4 -6 5 -12t-3 -11t-12 -5h-111q-23 0 -49 30l-201 254q-25 33 -2 60zM408 410l206 254q18 27 48 26h122q8 0 11.5 -7t-2.5 -15l-238 -289l227 -285q6 -8 3 -17t-17 -9h-106q-27 0 -52 28l-200 254 q-22 31 -2 60z" />
<glyph unicode="&#xac;" d="M170 639v63q0 31 31 31h737q31 0 31 -28v-404q0 -31 -31 -31h-57q-29 0 -29 29v311h-653q-29 0 -29 29z" />
<glyph unicode="&#xad;" horiz-adv-x="757" d="M72 629v63q0 27 28 27h557q29 0 29 -27v-63q0 -25 -29 -25h-557q-28 0 -28 25z" />
<glyph unicode="&#xae;" horiz-adv-x="1062" d="M78 1036q0 186 132 317.5t320 131.5q190 0 321.5 -130t131.5 -318.5t-132 -319.5t-320.5 -131t-320.5 131t-132 319zM154 1036.5q0 -155.5 109.5 -266.5t266.5 -111q156 0 265.5 111t109.5 266.5t-109.5 265t-265 109.5t-266 -109.5t-110.5 -265zM373 774v514q0 16 20 17 h166q70 0 117 -40t47 -120q0 -119 -102 -158l112 -213q8 -18 -10 -18h-57q-14 0 -23 12l-102 209h-92v-201q0 -20 -19 -20h-41q-16 0 -16 18zM449 1047h94q102 0 102 98q0 90 -102 90h-94v-188z" />
<glyph unicode="&#xaf;" horiz-adv-x="1019" d="M270 1198v78q0 27 29 27h516q29 0 29 -27v-78q0 -25 -29 -24h-516q-29 -1 -29 24z" />
<glyph unicode="&#xb0;" horiz-adv-x="716" d="M102 1102q0 111 80 190.5t193 79.5q111 0 188.5 -81t77.5 -189q0 -113 -77 -189.5t-189 -76.5q-125 0 -199 75.5t-74 190.5zM213 1097.5q0 -65.5 45 -110.5t110.5 -45t111.5 46t46 110q0 66 -47 114t-110.5 48t-109.5 -48.5t-46 -114z" />
<glyph unicode="&#xb1;" d="M170 635v72q0 27 27 26h307v297q0 29 26 29h84q25 0 25 -29v-297h299q31 0 31 -26v-72q0 -25 -31 -25h-299v-313q0 -29 -25 -29h-84q-27 0 -26 29v313h-307q-27 0 -27 25zM172 96v64q0 27 29 26h737q29 0 29 -26v-64q0 -25 -29 -24h-737q-29 -1 -29 24z" />
<glyph unicode="&#xb2;" horiz-adv-x="741" d="M57 717v45q0 31 23 53l340 322q92 92 92 168q0 66 -33 95.5t-141.5 29.5t-218.5 -13q-33 -4 -39 21l-8 35q-10 33 26 47q92 31 240 30q303 0 303 -231q0 -80 -26.5 -136.5t-94.5 -121.5l-276 -262h381q35 0 34 -33v-49q0 -33 -34 -33h-535q-33 0 -33 33z" />
<glyph unicode="&#xb3;" horiz-adv-x="741" d="M55 758l6 28q8 31 39 27q127 -20 224 -20q98 0 154.5 38.5t56.5 155.5q0 82 -123 100l-156 23q-37 6 -37 45v37q0 23 19 41l213 192h-349q-35 0 -34 31v53q0 33 32 33h492q39 0 39 -33v-51q0 -33 -35 -61l-197 -180l74 -11q193 -29 193 -215q0 -180 -87 -248.5 t-262 -68.5q-139 0 -239 39q-29 10 -23 45z" />
<glyph unicode="&#xb4;" horiz-adv-x="1017" d="M508 1161l143 293q8 18 35 6l94 -41q23 -10 6 -30l-182 -271q-10 -14 -31 -6l-59 21q-16 5 -6 28z" />
<glyph unicode="&#xb5;" horiz-adv-x="1048" d="M115 -322v1285q0 35 35 34h88q35 0 34 -34v-654q0 -109 38 -148.5t128 -39.5q115 0 344 119v723q0 35 35 34h84q35 0 35 -34v-928q0 -35 -35 -35h-84q-37 0 -37 35v76q-207 -131 -364 -131q-94 0 -144 40l-2 -4v-338q0 -39 -37 -38h-83q-20 0 -27.5 7.5t-7.5 30.5z" />
<glyph unicode="&#x3bc;" horiz-adv-x="1048" d="M115 -322v1285q0 35 35 34h88q35 0 34 -34v-654q0 -109 38 -148.5t128 -39.5q115 0 344 119v723q0 35 35 34h84q35 0 35 -34v-928q0 -35 -35 -35h-84q-37 0 -37 35v76q-207 -131 -364 -131q-94 0 -144 40l-2 -4v-338q0 -39 -37 -38h-83q-20 0 -27.5 7.5t-7.5 30.5z" />
<glyph unicode="&#xb6;" horiz-adv-x="956" d="M39 948q0 195 103.5 303.5t281.5 108.5h457q35 0 34 -35v-74q0 -37 -34 -37h-52v-1374q0 -35 -34 -35h-70q-37 0 -37 35v1377h-207v-1377q0 -35 -35 -35h-69q-37 0 -37 35v781q-135 0 -218 102t-83 225z" />
<glyph unicode="&#xb7;" horiz-adv-x="399" d="M106 518q0 94 93 94q55 0 74.5 -23.5t19.5 -70.5q0 -98 -94 -98q-55 0 -74 25.5t-19 72.5z" />
<glyph unicode="&#xb8;" horiz-adv-x="870" d="M311 -342l11 39q4 12 22 10q61 -10 117 -10q51 0 79.5 14.5t28.5 59.5q0 37 -26.5 50t-104.5 17q-43 4 -26 45l49 137q0 12 16 13h51q6 0 8.5 -6.5t0.5 -8.5l-41 -108q186 -4 186 -135q0 -160 -213 -160q-82 0 -143 20q-19 9 -15 23z" />
<glyph unicode="&#xb9;" horiz-adv-x="634" d="M86 1425v29q0 31 25 37l122 41q37 10 56 10h55q18 0 28.5 -5t11.5 -11t1 -19v-708h131q33 0 33 -33v-49q0 -33 -33 -33h-385q-33 0 -33 33v49q0 33 33 33h119v598h-129q-20 0 -27.5 5t-7.5 23z" />
<glyph unicode="&#xba;" horiz-adv-x="710" d="M59 842q0 332 291 332q94 0 157.5 -28t93.5 -79t40 -103.5t10 -121.5q0 -76 -8 -126t-34.5 -108.5t-92 -89.5t-166.5 -31q-98 0 -160.5 31t-89 89.5t-34 108.5t-7.5 126zM186 831.5q0 -122.5 34 -176t130 -53.5q100 0 136 53.5t36 176t-34.5 176t-137.5 53.5 q-96 0 -130 -53.5t-34 -176z" />
<glyph unicode="&#xbb;" horiz-adv-x="862" d="M73 73q-3 7 3 15l237 289l-227 285q-6 8 -3 18t17 10h107q25 0 51 -31l201 -253q25 -31 2 -58l-207 -256q-18 -27 -47 -26h-123q-8 0 -11 7zM392 73q-3 7 3 15l238 289l-225 285q-4 6 -5.5 12t3 11t12.5 5h110q23 0 50 -31l200 -253q25 -31 2 -58l-205 -256 q-23 -27 -49 -26h-123q-8 0 -11 7z" />
<glyph unicode="&#xbc;" horiz-adv-x="1679" d="M160 1241v29q0 31 24 37l123 41q37 10 55 10h56q18 0 28.5 -5t11.5 -11.5t1 -18.5v-709h131q33 0 33 -32v-50q0 -33 -33 -32h-385q-33 0 -33 32v50q0 33 33 32h119v598h-129q-20 0 -27.5 5.5t-7.5 23.5zM487 -16l566 1423q12 27 32 27h66q27 0 16 -31l-563 -1426 q-10 -25 -31 -24h-65q-31 0 -21 31zM817 256v49q0 27 17 45l432 486q20 23 49 22h51q33 0 33 -29v-483h88q33 0 33 -35v-55q0 -31 -33 -31h-88v-188q0 -35 -35 -35h-64q-33 0 -32 33v190h-416q-35 0 -35 31zM993 346h275v318z" />
<glyph unicode="&#xbd;" horiz-adv-x="1679" d="M152 1241v29q0 31 24 37l123 41q37 10 55 10h56q18 0 28.5 -5t11.5 -11.5t1 -18.5v-709h131q33 0 32 -32v-50q0 -33 -32 -32h-385q-33 0 -33 32v50q0 33 33 32h118v598h-129q-20 0 -27 5.5t-7 23.5zM440 -16l566 1423q12 27 32 27h66q27 0 16 -31l-563 -1426 q-8 -25 -31 -24h-65q-31 0 -21 31zM926 33v45q0 31 22 53l340 322q92 92 92 168q0 66 -32.5 95t-141 29t-219.5 -12q-33 -4 -39 21l-8 34q-10 33 27 48q92 31 239 30q303 0 303 -231q0 -80 -26.5 -136.5t-93.5 -121.5l-277 -262h381q35 0 35 -33v-49q0 -33 -35 -33h-535 q-32 0 -32 33z" />
<glyph unicode="&#xbe;" horiz-adv-x="1679" d="M94 573l6 29q8 31 39 27q127 -20 223 -21q98 0 154.5 39t56.5 156q0 82 -122 100l-156 23q-37 6 -37 45v37q0 23 18 41l213 192h-348q-35 0 -35 31v53q0 33 33 33h492q39 0 39 -33v-51q0 -33 -35 -62l-197 -180l74 -10q193 -29 193 -215q0 -180 -87.5 -249t-261.5 -69 q-139 0 -239 39q-29 10 -23 45zM530 -16l566 1423q12 27 32 27h66q27 0 16 -31l-563 -1426q-8 -25 -31 -24h-65q-31 0 -21 31zM885 256v49q0 27 16 45l432 486q20 23 49 22h52q33 0 32 -29v-483h88q33 0 33 -35v-55q0 -31 -33 -31h-88v-188q0 -35 -34 -35h-64q-33 0 -33 33 v190h-415q-35 0 -35 31zM1061 346h274v318z" />
<glyph unicode="&#xbf;" horiz-adv-x="720" d="M23 -86q0 66 27.5 120t56 81.5t79.5 64.5q102 76 149.5 141.5t47.5 167.5q0 84 -2 115q0 35 27 35h77q27 0 33 -31q8 -51 8 -139q0 -125 -62.5 -210t-187.5 -185q-41 -33 -56 -46.5t-31.5 -42t-16.5 -61.5q0 -94 56.5 -134t181.5 -40q63 0 221 14q31 2 39 -24l10 -55 q6 -33 -27 -45q-100 -39 -250 -39q-188 0 -284 80.5t-96 232.5zM342 899q0 98 94 98q57 0 75.5 -25.5t18.5 -72.5q0 -94 -94 -94q-55 0 -74.5 23.5t-19.5 70.5z" />
<glyph unicode="&#xc0;" horiz-adv-x="1122" d="M33 33l428 1292q8 31 39 31h114q29 0 39 -31l428 -1296q8 -29 -16 -29h-125q-27 0 -35 27l-100 335h-500l-106 -329q-10 -33 -43 -33h-107q-28 0 -16 33zM301 1624l59 82q18 23 33 10l262 -194q20 -14 9 -27l-37 -49q-14 -14 -31 -6l-285 153q-24 13 -10 31zM352 508h408 l-103 342l-98 332h-6l-96 -326z" />
<glyph unicode="&#xc1;" horiz-adv-x="1122" d="M33 33l428 1292q8 31 39 31h114q29 0 39 -31l428 -1296q8 -29 -16 -29h-125q-27 0 -35 27l-100 335h-500l-106 -329q-10 -33 -43 -33h-107q-28 0 -16 33zM352 508h408l-103 342l-98 332h-6l-96 -326zM489 1493q-12 12 9 27l262 194q14 12 33 -10l65 -80q14 -18 -10 -31 l-285 -153q-16 -8 -31 6z" />
<glyph unicode="&#xc2;" horiz-adv-x="1122" d="M33 33l428 1292q8 31 39 31h114q29 0 39 -31l428 -1296q8 -29 -16 -29h-125q-27 0 -35 27l-100 335h-500l-106 -329q-10 -33 -43 -33h-107q-28 0 -16 33zM242 1473q-12 12 0 26l211 199q29 23 55 22h96q37 0 60 -20l204 -193q20 -18 2 -32l-39 -37q-16 -12 -32 -2 l-244 172l-238 -174q-23 -14 -36 -2zM352 508h408l-103 342l-98 332h-6l-96 -326z" />
<glyph unicode="&#xc3;" horiz-adv-x="1122" d="M33 33l428 1292q8 31 39 31h114q29 0 39 -31l428 -1296q8 -29 -16 -29h-125q-27 0 -35 27l-100 335h-500l-106 -329q-10 -33 -43 -33h-107q-28 0 -16 33zM238 1501q55 162 180 162q51 0 145 -39t129 -39q33 0 52.5 17.5t41.5 58.5q12 23 31 14l45 -16q16 -6 10 -33 q-47 -166 -174 -166q-43 0 -143 38t-135 38q-63 0 -103 -76q-10 -18 -30 -8l-41 16q-18 6 -8 33zM352 508h408l-103 342l-98 332h-6l-96 -326z" />
<glyph unicode="&#xc4;" horiz-adv-x="1122" d="M33 33l428 1292q8 31 39 31h114q29 0 39 -31l428 -1296q8 -29 -16 -29h-125q-27 0 -35 27l-100 335h-500l-106 -329q-10 -33 -43 -33h-107q-28 0 -16 33zM295 1552q0 84 84 84q49 0 66.5 -20.5t17.5 -63.5t-17.5 -65.5t-66.5 -22.5q-51 0 -67.5 22.5t-16.5 65.5zM352 508 h408l-103 342l-98 332h-6l-96 -326zM647 1552q0 84 84 84q49 0 66.5 -20.5t17.5 -63.5t-17.5 -65.5t-66.5 -22.5q-51 0 -67.5 22.5t-16.5 65.5z" />
<glyph unicode="&#xc5;" horiz-adv-x="1122" d="M33 33l428 1292q8 31 39 31h114q29 0 39 -31l428 -1296q8 -29 -16 -29h-125q-27 0 -35 27l-100 335h-500l-106 -329q-10 -33 -43 -33h-107q-28 0 -16 33zM348 1583q0 84 61.5 141.5t143.5 57.5q84 0 142.5 -59.5t58.5 -139.5t-58.5 -139.5t-142.5 -59.5 q-82 0 -143.5 57.5t-61.5 141.5zM352 508h408l-103 342l-98 332h-6l-96 -326zM455 1583q0 -45 27.5 -74.5t70.5 -29.5t71.5 29.5t28.5 74.5q0 41 -29.5 73t-70.5 32q-39 0 -68.5 -32t-29.5 -73z" />
<glyph unicode="&#xc6;" horiz-adv-x="1802" d="M25 29l796 1298q16 31 49 31h793q35 0 35 -33v-80q0 -35 -37 -35h-582v-432h523q35 0 34 -33v-79q0 -33 -34 -33h-523v-488h598q33 0 33 -34v-78q0 -33 -35 -33h-719q-25 0 -30.5 5t-5.5 22v335h-504l-203 -329q-23 -33 -55 -33h-117q-32 0 -16 29zM506 508h414v694h-7z " />
<glyph unicode="&#xc7;" horiz-adv-x="1101" d="M133 664q0 119 11.5 213t45 190t89 160.5t150.5 104.5t224 40q231 0 367 -53q33 -14 27 -45l-13 -57q-8 -27 -39 -23q-211 29 -342 29q-92 0 -158.5 -31t-103.5 -79t-57.5 -126t-26.5 -149.5t-6 -173.5q0 -90 7 -161t29.5 -143.5t60.5 -119.5t102.5 -77t152.5 -30 q111 0 340 29q33 4 41 -25l10 -53q6 -35 -22 -45q-133 -55 -369 -55q-4 0 -13 1t-13 1l-27 -76q186 -4 186 -135q0 -160 -213 -160q-82 0 -143 20q-18 8 -14 23l10 39q4 12 23 10q61 -10 116 -10q51 0 80 14.5t29 59.5q0 37 -26.5 50t-104.5 17q-43 4 -27 45l37 107 q-125 16 -210 76.5t-129 158t-62.5 202t-18.5 237.5z" />
<glyph unicode="&#xc8;" horiz-adv-x="1034" d="M152 33v1290q0 35 36 35h707q35 0 35 -33v-80q0 -35 -37 -35h-582v-432h523q35 0 34 -33v-79q0 -33 -34 -33h-523v-488h598q33 0 33 -34v-78q0 -33 -35 -33h-719q-36 0 -36 33zM240 1624l65 80q18 23 33 10l262 -194q20 -14 8 -27l-43 -47q-14 -14 -30 -6l-285 153 q-24 13 -10 31z" />
<glyph unicode="&#xc9;" horiz-adv-x="1034" d="M152 33v1290q0 35 36 35h707q35 0 35 -33v-80q0 -35 -37 -35h-582v-432h523q35 0 34 -33v-79q0 -33 -34 -33h-523v-488h598q33 0 33 -34v-78q0 -33 -35 -33h-719q-36 0 -36 33zM449 1493q-12 12 8 27l262 194q14 12 33 -10l65 -80q14 -18 -10 -31l-285 -153q-16 -8 -30 6 z" />
<glyph unicode="&#xca;" horiz-adv-x="1034" d="M152 33v1290q0 35 36 35h707q35 0 35 -33v-80q0 -35 -37 -35h-582v-432h523q35 0 34 -33v-79q0 -33 -34 -33h-523v-488h598q33 0 33 -34v-78q0 -33 -35 -33h-719q-36 0 -36 33zM227 1473q-12 12 0 26l211 199q29 23 56 22h96q37 0 59 -20l205 -193q20 -18 2 -32l-39 -37 q-16 -12 -33 -2l-243 172l-238 -174q-23 -14 -37 -2z" />
<glyph unicode="&#xcb;" horiz-adv-x="1034" d="M152 33v1290q0 35 36 35h707q35 0 35 -33v-80q0 -35 -37 -35h-582v-432h523q35 0 34 -33v-79q0 -33 -34 -33h-523v-488h598q33 0 33 -34v-78q0 -33 -35 -33h-719q-36 0 -36 33zM281 1552q0 84 84 84q49 0 66.5 -20.5t17.5 -63.5t-17.5 -65.5t-66.5 -22.5 q-51 0 -67.5 22.5t-16.5 65.5zM633 1552q0 84 84 84q49 0 66.5 -20.5t17.5 -63.5t-17.5 -65.5t-66.5 -22.5q-51 0 -67.5 22.5t-16.5 65.5z" />
<glyph unicode="&#xcc;" horiz-adv-x="520" d="M-57 1624l65 80q18 23 33 10l262 -194q20 -14 8 -27l-43 -47q-14 -14 -30 -6l-285 153q-24 13 -10 31zM176 35v1286q0 37 37 37h90q35 0 35 -37v-1286q0 -35 -35 -35h-90q-37 0 -37 35z" />
<glyph unicode="&#xcd;" horiz-adv-x="520" d="M176 35v1286q0 37 37 37h90q35 0 35 -37v-1286q0 -35 -35 -35h-90q-37 0 -37 35zM197 1493q-12 12 8 27l262 194q14 12 33 -10l65 -80q14 -18 -10 -31l-285 -153q-16 -8 -30 6z" />
<glyph unicode="&#xce;" horiz-adv-x="520" d="M-51 1473q-12 12 0 26l211 199q29 23 55 22h96q37 0 60 -20l204 -193q20 -18 3 -32l-39 -37q-16 -12 -33 -2l-244 172l-237 -174q-23 -14 -37 -2zM176 35v1286q0 37 37 37h90q35 0 35 -37v-1286q0 -35 -35 -35h-90q-37 0 -37 35z" />
<glyph unicode="&#xcf;" horiz-adv-x="520" d="M-6 1552q0 84 84 84q49 0 66.5 -20.5t17.5 -63.5t-17.5 -65.5t-66.5 -22.5q-51 0 -67.5 22.5t-16.5 65.5zM176 35v1286q0 37 37 37h90q35 0 35 -37v-1286q0 -35 -35 -35h-90q-37 0 -37 35zM346 1552q0 84 84 84q49 0 66.5 -20.5t17.5 -63.5t-17.5 -65.5t-66.5 -22.5 q-51 0 -67.5 22.5t-16.5 65.5z" />
<glyph unicode="&#xd0;" horiz-adv-x="1263" d="M-2 649v78q0 27 29 27h129v569q0 33 37 33h389q160 0 270.5 -51.5t169.5 -147.5t83.5 -211t24.5 -264q0 -152 -24.5 -267.5t-82.5 -213t-169 -149.5t-272 -52h-383q-43 0 -43 35v590h-129q-29 -1 -29 24zM315 147h252q63 0 112.5 10.5t105 42t92 86t61.5 152t25 228.5 q0 166 -31 277.5t-87.5 167.5t-118.5 77.5t-144 21.5h-267v-456h228q29 0 28 -27v-78q0 -25 -28 -24h-228v-478z" />
<glyph unicode="&#xd1;" horiz-adv-x="1288" d="M147 35v1292q0 31 33 31h84q29 0 51 -33l555 -856l109 -172h6v1024q0 37 35 37h86q33 0 33 -37v-1288q0 -33 -33 -33h-78q-33 0 -53 33l-547 844l-119 194h-6v-1036q0 -35 -35 -35h-84q-37 0 -37 35zM297 1487q33 88 86 128t108.5 40t162 -53.5t143.5 -53.5q57 0 100 76 q14 23 35 14l43 -14q16 -6 10 -33q-55 -176 -188 -176q-47 0 -159 54.5t-151 54.5q-59 0 -106 -78q-10 -20 -35 -8l-41 16q-18 6 -8 33z" />
<glyph unicode="&#xd2;" horiz-adv-x="1306" d="M127 698q0 676 522 676q135 0 234.5 -40t155 -101.5t88 -154.5t43 -180t10.5 -200q0 -115 -8.5 -200.5t-40 -189t-86 -170t-157 -111.5t-241.5 -45q-100 0 -180 23.5t-133 61t-92 96t-60.5 117t-35 136.5t-16.5 140t-3 142zM291 678q0 -272 76.5 -412.5t279.5 -140.5 q211 0 292 137t81 416q0 283 -82 420t-291 137q-195 0 -275.5 -141.5t-80.5 -415.5zM461 1624l65 80q18 23 33 10l262 -194q20 -14 8 -27l-43 -47q-14 -14 -30 -6l-285 153q-24 13 -10 31z" />
<glyph unicode="&#xd3;" horiz-adv-x="1306" d="M127 698q0 676 522 676q135 0 234.5 -40t155 -101.5t88 -154.5t43 -180t10.5 -200q0 -115 -8.5 -200.5t-40 -189t-86 -170t-157 -111.5t-241.5 -45q-100 0 -180 23.5t-133 61t-92 96t-60.5 117t-35 136.5t-16.5 140t-3 142zM291 678q0 -272 76.5 -412.5t279.5 -140.5 q211 0 292 137t81 416q0 283 -82 420t-291 137q-195 0 -275.5 -141.5t-80.5 -415.5zM530 1493q-12 12 9 27l262 194q14 12 33 -10l65 -80q14 -18 -10 -31l-285 -153q-16 -8 -31 6z" />
<glyph unicode="&#xd4;" horiz-adv-x="1306" d="M127 698q0 676 522 676q135 0 234.5 -40t155 -101.5t88 -154.5t43 -180t10.5 -200q0 -115 -8.5 -200.5t-40 -189t-86 -170t-157 -111.5t-241.5 -45q-100 0 -180 23.5t-133 61t-92 96t-60.5 117t-35 136.5t-16.5 140t-3 142zM291 678q0 -272 76.5 -412.5t279.5 -140.5 q211 0 292 137t81 416q0 283 -82 420t-291 137q-195 0 -275.5 -141.5t-80.5 -415.5zM342 1473q-12 12 0 26l211 199q29 23 55 22h97q37 0 59 -20l205 -193q20 -18 2 -32l-39 -37q-16 -12 -33 -2l-244 172l-237 -174q-23 -14 -37 -2z" />
<glyph unicode="&#xd5;" horiz-adv-x="1306" d="M127 698q0 676 522 676q135 0 234.5 -40t155 -101.5t88 -154.5t43 -180t10.5 -200q0 -115 -8.5 -200.5t-40 -189t-86 -170t-157 -111.5t-241.5 -45q-100 0 -180 23.5t-133 61t-92 96t-60.5 117t-35 136.5t-16.5 140t-3 142zM291 678q0 -272 76.5 -412.5t279.5 -140.5 q211 0 292 137t81 416q0 283 -82 420t-291 137q-195 0 -275.5 -141.5t-80.5 -415.5zM332 1516q33 88 86 127.5t108.5 39.5t162 -45t142.5 -45q57 0 101 76q14 23 35 14l43 -14q16 -6 10 -33q-55 -176 -189 -176q-47 0 -158.5 46t-150.5 46q-59 0 -106 -77q-10 -20 -35 -9 l-41 17q-18 6 -8 33z" />
<glyph unicode="&#xd6;" horiz-adv-x="1306" d="M127 698q0 676 522 676q135 0 234.5 -40t155 -101.5t88 -154.5t43 -180t10.5 -200q0 -115 -8.5 -200.5t-40 -189t-86 -170t-157 -111.5t-241.5 -45q-100 0 -180 23.5t-133 61t-92 96t-60.5 117t-35 136.5t-16.5 140t-3 142zM291 678q0 -272 76.5 -412.5t279.5 -140.5 q211 0 292 137t81 416q0 283 -82 420t-291 137q-195 0 -275.5 -141.5t-80.5 -415.5zM401 1552q0 84 84 84q49 0 66.5 -20.5t17.5 -63.5t-17 -65.5t-67 -22.5q-51 0 -67.5 22.5t-16.5 65.5zM754 1552q0 84 84 84q49 0 66.5 -20.5t17.5 -63.5t-17.5 -65.5t-66.5 -22.5 q-51 0 -67.5 22.5t-16.5 65.5z" />
<glyph unicode="&#xd7;" d="M215 369q-18 18 2 39l264 264l-260 262q-20 16 -2 35l51 51q18 18 37 0l260 -260l254 252q20 20 39 2l60 -60q18 -16 -2 -36l-254 -254l256 -254q20 -23 2 -41l-52 -52q-18 -18 -39 5l-253 256l-267 -267q-20 -20 -37 -2z" />
<glyph unicode="&#xd8;" horiz-adv-x="1306" d="M127 698q0 676 522 676q236 0 367 -121l74 101q18 27 34 14l47 -33q20 -12 5 -32l-95 -129q98 -160 99 -476q0 -115 -8.5 -200.5t-40 -189t-86 -170t-157 -111.5t-241.5 -45q-231 0 -354 118l-66 -88q-18 -29 -34 -14l-48 33q-18 12 -2 32l86 117q-102 164 -102 518z M291 678q0 -225 47 -350l582 794q-88 113 -273 113q-195 0 -275.5 -141.5t-80.5 -415.5zM389 233q86 -109 258 -108q211 0 292 137t81 416q0 219 -47 348z" />
<glyph unicode="&#xd9;" horiz-adv-x="1243" d="M141 492v829q0 37 35 37h90q35 0 35 -37v-836q0 -172 81 -263t241 -91q326 0 325 354v836q0 37 37 37h88q33 0 33 -37l-2 -829q0 -147 -35 -240q-109 -266 -446 -266q-346 0 -443 262q-39 101 -39 244zM362 1624l66 80q18 23 33 10l262 -194q20 -14 8 -27l-43 -47 q-14 -14 -31 -6l-284 153q-25 13 -11 31z" />
<glyph unicode="&#xda;" horiz-adv-x="1243" d="M141 492v829q0 37 35 37h90q35 0 35 -37v-836q0 -172 81 -263t241 -91q326 0 325 354v836q0 37 37 37h88q33 0 33 -37l-2 -829q0 -147 -35 -240q-109 -266 -446 -266q-346 0 -443 262q-39 101 -39 244zM512 1493q-12 12 8 27l262 194q14 12 33 -10l66 -80q14 -18 -11 -31 l-284 -153q-16 -8 -31 6z" />
<glyph unicode="&#xdb;" horiz-adv-x="1243" d="M141 492v829q0 37 35 37h90q35 0 35 -37v-836q0 -172 81 -263t241 -91q326 0 325 354v836q0 37 37 37h88q33 0 33 -37l-2 -829q0 -147 -35 -240q-109 -266 -446 -266q-346 0 -443 262q-39 101 -39 244zM315 1473q-12 12 0 26l211 199q29 23 56 22h96q37 0 59 -20 l205 -193q20 -18 2 -32l-39 -37q-16 -12 -33 -2l-243 172l-238 -174q-23 -14 -37 -2z" />
<glyph unicode="&#xdc;" horiz-adv-x="1243" d="M141 492v829q0 37 35 37h90q35 0 35 -37v-836q0 -172 81 -263t241 -91q326 0 325 354v836q0 37 37 37h88q33 0 33 -37l-2 -829q0 -147 -35 -240q-109 -266 -446 -266q-346 0 -443 262q-39 101 -39 244zM358 1552q0 84 84 84q49 0 66.5 -20.5t17.5 -63.5t-17 -65.5 t-67 -22.5q-51 0 -67.5 22.5t-16.5 65.5zM711 1552q0 84 84 84q49 0 66.5 -20.5t17.5 -63.5t-17.5 -65.5t-66.5 -22.5q-51 0 -67.5 22.5t-16.5 65.5z" />
<glyph unicode="&#xdd;" horiz-adv-x="1038" d="M35 1329q-4 10 0 18.5t16 8.5h121q27 0 39 -25l190 -358l113 -211h12l121 219l191 350q14 25 43 25h106q33 0 19 -31l-408 -719v-571q0 -35 -33 -35h-86q-37 0 -37 35v571zM434 1493q-12 12 8 27l263 194q14 12 32 -10l66 -80q14 -18 -10 -31l-285 -153q-16 -8 -31 6z " />
<glyph unicode="&#xde;" horiz-adv-x="1040" d="M133 35v1288q0 35 35 35h88q37 0 37 -35v-238h266q184 0 303 -101t119 -292q0 -74 -22.5 -143.5t-68.5 -132t-131 -99t-198 -36.5h-268v-246q0 -35 -35 -35h-88q-37 0 -37 35zM293 422h272q258 0 258 268q0 125 -73.5 188.5t-202.5 63.5h-254v-520z" />
<glyph unicode="&#xdf;" horiz-adv-x="1032" d="M109 25v1024q0 104 34.5 186t92 128t120 68.5t125.5 22.5q170 0 272.5 -89t102.5 -255q0 -63 -36 -140t-101 -120q72 -20 117 -59t65.5 -101.5t26.5 -120t6 -145.5q0 -205 -97.5 -321.5t-281.5 -116.5q-84 0 -135 16q-31 8 -25 35l11 59q2 16 11 21.5t38 3.5q23 -2 67 -2 q131 0 189.5 78.5t58.5 232.5q0 178 -57.5 243.5t-212.5 76.5q-25 0 -25 24v62q0 31 33 38q80 18 133 88t53 152q0 96 -56 147.5t-154.5 51.5t-159 -64.5t-60.5 -183.5v-1038q0 -37 -37 -37h-86q-32 0 -32 35z" />
<glyph unicode="&#xe0;" horiz-adv-x="1052" d="M90 266q0 176 90 260t291 84h283v70q0 113 -52.5 156t-187.5 43q-133 0 -289 -19q-35 -6 -41 19l-12 53q-6 29 33 45q117 41 340 41q121 0 195.5 -24.5t110.5 -78t47 -110.5t11 -152v-452q0 -59 11.5 -71.5t62.5 -16.5q35 -2 35 -27v-51q0 -31 -41 -37q-37 -6 -72 -6 q-72 0 -105.5 26.5t-43.5 92.5h-4q-215 -127 -385 -127q-145 0 -211 70.5t-66 211.5zM248 272q0 -84 33.5 -115.5t124.5 -31.5q145 0 348 117v239h-301q-100 0 -152.5 -46t-52.5 -163zM346 1389q-16 20 6 30l94 41q27 12 35 -6l144 -293q10 -23 -7 -28l-59 -27q-20 -8 -31 6 z" />
<glyph unicode="&#xe1;" horiz-adv-x="1052" d="M90 266q0 176 90 260t291 84h283v70q0 113 -52.5 156t-187.5 43q-133 0 -289 -19q-35 -6 -41 19l-12 53q-6 29 33 45q117 41 340 41q121 0 195.5 -24.5t110.5 -78t47 -110.5t11 -152v-452q0 -59 11.5 -71.5t62.5 -16.5q35 -2 35 -27v-51q0 -31 -41 -37q-37 -6 -72 -6 q-72 0 -105.5 26.5t-43.5 92.5h-4q-215 -127 -385 -127q-145 0 -211 70.5t-66 211.5zM248 272q0 -84 33.5 -115.5t124.5 -31.5q145 0 348 117v239h-301q-100 0 -152.5 -46t-52.5 -163zM508 1161l143 293q8 18 35 6l94 -41q23 -10 6 -30l-182 -271q-10 -14 -31 -6l-59 21 q-16 5 -6 28z" />
<glyph unicode="&#xe2;" horiz-adv-x="1052" d="M90 266q0 176 90 260t291 84h283v70q0 113 -52.5 156t-187.5 43q-133 0 -289 -19q-35 -6 -41 19l-12 53q-6 29 33 45q117 41 340 41q121 0 195.5 -24.5t110.5 -78t47 -110.5t11 -152v-452q0 -59 11.5 -71.5t62.5 -16.5q35 -2 35 -27v-51q0 -31 -41 -37q-37 -6 -72 -6 q-72 0 -105.5 26.5t-43.5 92.5h-4q-215 -127 -385 -127q-145 0 -211 70.5t-66 211.5zM236 1147q-14 10 0 27l192 243q14 23 55 23h97q45 0 59 -21l188 -243q16 -20 2 -33l-43 -33q-20 -16 -32 -2l-224 219l-215 -215q-16 -18 -36 -2zM248 272q0 -84 33.5 -115.5t124.5 -31.5 q145 0 348 117v239h-301q-100 0 -152.5 -46t-52.5 -163z" />
<glyph unicode="&#xe3;" horiz-adv-x="1052" d="M90 266q0 176 90 260t291 84h283v70q0 113 -52.5 156t-187.5 43q-133 0 -289 -19q-35 -6 -41 19l-12 53q-6 29 33 45q117 41 340 41q121 0 195.5 -24.5t110.5 -78t47 -110.5t11 -152v-452q0 -59 11.5 -71.5t62.5 -16.5q35 -2 35 -27v-51q0 -31 -41 -37q-37 -6 -72 -6 q-72 0 -105.5 26.5t-43.5 92.5h-4q-215 -127 -385 -127q-145 0 -211 70.5t-66 211.5zM190 1200q33 88 86.5 128t108.5 40t161.5 -53t143.5 -53q57 0 101 75q14 23 34 15l43 -15q16 -6 11 -32q-55 -176 -189 -177q-47 0 -158.5 54.5t-150.5 54.5q-59 0 -107 -78 q-10 -20 -34 -8l-41 16q-19 6 -9 33zM248 272q0 -84 33.5 -115.5t124.5 -31.5q145 0 348 117v239h-301q-100 0 -152.5 -46t-52.5 -163z" />
<glyph unicode="&#xe4;" horiz-adv-x="1052" d="M90 266q0 176 90 260t291 84h283v70q0 113 -52.5 156t-187.5 43q-133 0 -289 -19q-35 -6 -41 19l-12 53q-6 29 33 45q117 41 340 41q121 0 195.5 -24.5t110.5 -78t47 -110.5t11 -152v-452q0 -59 11.5 -71.5t62.5 -16.5q35 -2 35 -27v-51q0 -31 -41 -37q-37 -6 -72 -6 q-72 0 -105.5 26.5t-43.5 92.5h-4q-215 -127 -385 -127q-145 0 -211 70.5t-66 211.5zM248 272q0 -84 33.5 -115.5t124.5 -31.5q145 0 348 117v239h-301q-100 0 -152.5 -46t-52.5 -163zM283 1249q0 84 86 84q49 0 66.5 -21.5t17.5 -62.5q0 -90 -84 -90q-51 0 -68.5 23.5 t-17.5 66.5zM659 1249q0 84 84 84q49 0 67.5 -21.5t18.5 -62.5q0 -90 -86 -90q-84 0 -84 90z" />
<glyph unicode="&#xe5;" horiz-adv-x="1052" d="M90 266q0 176 90 260t291 84h283v70q0 113 -52.5 156t-187.5 43q-133 0 -289 -19q-35 -6 -41 19l-12 53q-6 29 33 45q117 41 340 41q121 0 195.5 -24.5t110.5 -78t47 -110.5t11 -152v-452q0 -59 11.5 -71.5t62.5 -16.5q35 -2 35 -27v-51q0 -31 -41 -37q-37 -6 -72 -6 q-72 0 -105.5 26.5t-43.5 92.5h-4q-215 -127 -385 -127q-145 0 -211 70.5t-66 211.5zM248 272q0 -84 33.5 -115.5t124.5 -31.5q145 0 348 117v239h-301q-100 0 -152.5 -46t-52.5 -163zM338 1262q0 84 61.5 141t143.5 57q84 0 142 -59.5t58 -139t-58 -139t-142 -59.5 q-82 0 -143.5 57.5t-61.5 141.5zM444 1262q0 -45 28 -75t71 -30t71.5 30t28.5 75q0 41 -29.5 72.5t-70.5 31.5q-39 0 -69 -31.5t-30 -72.5z" />
<glyph unicode="&#xe6;" horiz-adv-x="1634" d="M90 266q0 160 90 237t291 77h283v100q0 113 -52.5 156t-187.5 43q-133 0 -289 -19q-39 -6 -41 19l-12 53q-4 31 33 45q117 41 340 41q242 0 317 -115q109 115 312 115q102 0 177.5 -26.5t121 -67.5t74 -102.5t38.5 -121t14 -135.5q4 -117 -90 -116h-587q4 -188 56 -256 t202 -68q90 0 305 25q41 4 47 -27l8 -45q6 -29 -22 -41q-55 -23 -160 -39t-184 -16q-256 0 -351 155q-23 -20 -65 -45q-190 -109 -391 -108q-145 0 -211 70.5t-66 211.5zM248 272q0 -84 33.5 -115.5t124.5 -31.5q133 0 370 131q-23 86 -22 193h-301q-100 0 -152.5 -40.5 t-52.5 -136.5zM922 578h505q-4 66 -13 109.5t-33.5 92.5t-77 74t-132.5 25q-141 0 -190 -72.5t-59 -228.5z" />
<glyph unicode="&#xe7;" horiz-adv-x="870" d="M92 506q0 88 8.5 154.5t34 137t68.5 115.5t119.5 75t181.5 30q199 0 311 -47q25 -10 21 -43l-9 -47q-8 -27 -53 -23q-209 20 -272 21q-139 0 -191.5 -81t-52.5 -290q0 -221 53.5 -303t190.5 -82q117 0 280 20q41 4 45 -26l9 -43q6 -29 -23 -43q-94 -43 -291 -47l-26 -74 q186 -4 186 -135q0 -160 -213 -160q-82 0 -143 20q-18 8 -15 23l11 39q4 12 22 10q61 -10 117 -10q51 0 79.5 14.5t28.5 59.5q0 37 -26.5 50t-104.5 17q-43 4 -26 45l37 103q-90 6 -156 37.5t-104.5 75.5t-60.5 113t-29 136.5t-7 157.5z" />
<glyph unicode="&#xe8;" horiz-adv-x="1001" d="M94 498q0 520 416 520q100 0 176 -26.5t119 -66.5t69.5 -103.5t36 -122t13.5 -134.5q4 -117 -90 -116h-578q2 -184 62.5 -254t205.5 -70q70 0 285 25q41 4 47 -27l8 -45q6 -29 -22 -41q-131 -55 -328 -55q-109 0 -187.5 29.5t-122.5 74.5t-69.5 117.5t-33 138.5t-7.5 156 zM256 578h502q0 61 -9.5 108t-34 94t-77.5 73t-131 26q-129 0 -184.5 -75.5t-65.5 -225.5zM301 1389q-16 20 6 30l94 41q27 12 35 -6l144 -293q10 -23 -7 -28l-59 -27q-20 -8 -31 6z" />
<glyph unicode="&#xe9;" horiz-adv-x="1001" d="M94 498q0 520 416 520q100 0 176 -26.5t119 -66.5t69.5 -103.5t36 -122t13.5 -134.5q4 -117 -90 -116h-578q2 -184 62.5 -254t205.5 -70q70 0 285 25q41 4 47 -27l8 -45q6 -29 -22 -41q-131 -55 -328 -55q-109 0 -187.5 29.5t-122.5 74.5t-69.5 117.5t-33 138.5t-7.5 156 zM256 578h502q0 61 -9.5 108t-34 94t-77.5 73t-131 26q-129 0 -184.5 -75.5t-65.5 -225.5zM485 1161l144 293q8 18 35 6l94 -41q23 -10 6 -30l-182 -271q-10 -14 -31 -6l-59 21q-17 5 -7 28z" />
<glyph unicode="&#xea;" horiz-adv-x="1001" d="M94 498q0 520 416 520q100 0 176 -26.5t119 -66.5t69.5 -103.5t36 -122t13.5 -134.5q4 -117 -90 -116h-578q2 -184 62.5 -254t205.5 -70q70 0 285 25q41 4 47 -27l8 -45q6 -29 -22 -41q-131 -55 -328 -55q-109 0 -187.5 29.5t-122.5 74.5t-69.5 117.5t-33 138.5t-7.5 156 zM221 1147q-14 10 0 27l193 243q14 23 55 23h96q45 0 60 -21l188 -243q16 -20 2 -33l-43 -33q-20 -16 -33 -2l-223 219l-215 -215q-16 -18 -37 -2zM256 578h502q0 61 -9.5 108t-34 94t-77.5 73t-131 26q-129 0 -184.5 -75.5t-65.5 -225.5z" />
<glyph unicode="&#xeb;" horiz-adv-x="1001" d="M94 498q0 520 416 520q100 0 176 -26.5t119 -66.5t69.5 -103.5t36 -122t13.5 -134.5q4 -117 -90 -116h-578q2 -184 62.5 -254t205.5 -70q70 0 285 25q41 4 47 -27l8 -45q6 -29 -22 -41q-131 -55 -328 -55q-109 0 -187.5 29.5t-122.5 74.5t-69.5 117.5t-33 138.5t-7.5 156 zM246 1249q0 84 86 84q49 0 66.5 -21.5t17.5 -62.5q0 -90 -84 -90q-51 0 -68.5 23.5t-17.5 66.5zM256 578h502q0 61 -9.5 108t-34 94t-77.5 73t-131 26q-129 0 -184.5 -75.5t-65.5 -225.5zM623 1249q0 84 84 84q49 0 67.5 -21.5t18.5 -62.5q0 -90 -86 -90q-84 0 -84 90z" />
<glyph unicode="&#xec;" horiz-adv-x="456" d="M-14 1389q-16 20 6 30l94 41q27 12 35 -6l143 -293q10 -23 -6 -28l-59 -27q-20 -8 -31 6zM152 35v928q0 35 36 34h84q33 0 33 -34v-928q0 -35 -33 -35h-84q-36 0 -36 35z" />
<glyph unicode="&#xed;" horiz-adv-x="409" d="M152 35v928q0 35 36 34h84q33 0 33 -34v-928q0 -35 -33 -35h-84q-36 0 -36 35zM190 1161l144 293q8 18 35 6l94 -41q23 -10 6 -30l-182 -271q-10 -14 -31 -6l-59 21q-17 5 -7 28z" />
<glyph unicode="&#xee;" horiz-adv-x="591" d="M0 1147q-14 10 0 27l193 243q14 23 55 23h96q45 0 59 -21l189 -243q16 -20 2 -33l-43 -33q-20 -16 -33 -2l-223 219l-215 -215q-16 -18 -37 -2zM221 35v928q0 35 37 34h84q33 0 33 -34v-928q0 -35 -33 -35h-84q-37 0 -37 35z" />
<glyph unicode="&#xef;" horiz-adv-x="526" d="M-10 1249q0 84 86 84q49 0 66.5 -21.5t17.5 -62.5q0 -90 -84 -90q-51 0 -68.5 23.5t-17.5 66.5zM186 35v928q0 35 37 34h84q33 0 33 -34v-928q0 -35 -33 -35h-84q-37 0 -37 35zM367 1249q0 84 84 84q49 0 67.5 -21.5t18.5 -62.5q0 -90 -86 -90q-84 0 -84 90z" />
<glyph unicode="&#xf0;" horiz-adv-x="1030" d="M90 481q0 70 8 132.5t36 135t72 126t123 88t183 34.5q131 0 217 -79l8 6q-18 63 -61 139t-90 125l-205 -78q-25 -10 -33 16l-20 43q-8 23 14 35l160 60q-61 49 -189 120q-43 23 -28 50l22 47q16 31 47 18q176 -72 295 -180l162 61q23 6 33 -14l20 -49q6 -20 -16 -31 l-125 -47q213 -254 213 -684q0 -86 -8 -156.5t-35 -151.5t-72 -135.5t-126 -91t-191 -36.5q-109 0 -188.5 34.5t-121.5 83t-67 122t-31 129.5t-6 128zM248 475q0 -76 9 -131t34.5 -107.5t80 -80t136.5 -27.5q70 0 120 21.5t77.5 53.5t43 84t19.5 100t4 114q0 59 -3 98 t-17.5 93.5t-40 85t-75.5 54t-122 23.5q-154 0 -210 -97.5t-56 -283.5z" />
<glyph unicode="&#xf1;" horiz-adv-x="1034" d="M109 35v928q0 35 32 34h84q37 0 37 -34v-74l6 -2q201 131 361 131q96 0 157.5 -26.5t91 -83t39 -116t9.5 -153.5v-604q0 -35 -37 -35h-86q-35 0 -35 35l2 606q0 139 -35 187.5t-131 48.5q-109 0 -342 -117v-725q0 -35 -37 -35h-84q-32 0 -32 35zM174 1200q33 88 86 128 t108.5 40t162 -53t143.5 -53q57 0 100 75q14 23 35 15l43 -15q16 -6 10 -32q-55 -176 -188 -177q-47 0 -159 54.5t-150 54.5q-59 0 -107 -78q-10 -20 -35 -8l-41 16q-18 6 -8 33z" />
<glyph unicode="&#xf2;" horiz-adv-x="1030" d="M94 516q0 502 414 502q109 0 189.5 -30t125.5 -75t71 -115.5t34 -134t8 -147.5q0 -72 -4 -124t-17.5 -119.5t-42 -113.5t-73.5 -89t-119 -64.5t-172 -21.5q-113 0 -192.5 33.5t-121.5 81.5t-66 127t-29 140.5t-5 149.5zM252 501.5q0 -200.5 52 -287.5t204 -87 q160 0 214 85t54 290q0 203 -54 289t-214 86q-152 0 -204 -87.5t-52 -288zM301 1389q-16 20 6 30l94 41q27 12 35 -6l144 -293q10 -23 -7 -28l-59 -27q-20 -8 -31 6z" />
<glyph unicode="&#xf3;" horiz-adv-x="1030" d="M94 516q0 502 414 502q109 0 189.5 -30t125.5 -75t71 -115.5t34 -134t8 -147.5q0 -72 -4 -124t-17.5 -119.5t-42 -113.5t-73.5 -89t-119 -64.5t-172 -21.5q-113 0 -192.5 33.5t-121.5 81.5t-66 127t-29 140.5t-5 149.5zM252 501.5q0 -200.5 52 -287.5t204 -87 q160 0 214 85t54 290q0 203 -54 289t-214 86q-152 0 -204 -87.5t-52 -288zM467 1161l143 293q8 18 35 6l94 -41q23 -10 6 -30l-182 -271q-10 -14 -31 -6l-59 21q-16 5 -6 28z" />
<glyph unicode="&#xf4;" horiz-adv-x="1030" d="M94 516q0 502 414 502q109 0 189.5 -30t125.5 -75t71 -115.5t34 -134t8 -147.5q0 -72 -4 -124t-17.5 -119.5t-42 -113.5t-73.5 -89t-119 -64.5t-172 -21.5q-113 0 -192.5 33.5t-121.5 81.5t-66 127t-29 140.5t-5 149.5zM223 1147q-14 10 0 27l193 243q14 23 55 23h96 q45 0 60 -21l188 -243q16 -20 2 -33l-43 -33q-20 -16 -33 -2l-223 219l-215 -215q-16 -18 -37 -2zM252 501.5q0 -200.5 52 -287.5t204 -87q160 0 214 85t54 290q0 203 -54 289t-214 86q-152 0 -204 -87.5t-52 -288z" />
<glyph unicode="&#xf5;" horiz-adv-x="1030" d="M94 516q0 502 414 502q109 0 189.5 -30t125.5 -75t71 -115.5t34 -134t8 -147.5q0 -72 -4 -124t-17.5 -119.5t-42 -113.5t-73.5 -89t-119 -64.5t-172 -21.5q-113 0 -192.5 33.5t-121.5 81.5t-66 127t-29 140.5t-5 149.5zM182 1208q33 88 86.5 128t108.5 40t161.5 -53 t143.5 -53q57 0 100 76q14 23 35 14l43 -14q16 -6 10 -33q-55 -176 -188 -176q-47 0 -158.5 54t-150.5 54q-59 0 -107 -78q-10 -20 -35 -8l-41 17q-18 5 -8 32zM252 501.5q0 -200.5 52 -287.5t204 -87q160 0 214 85t54 290q0 203 -54 289t-214 86q-152 0 -204 -87.5 t-52 -288z" />
<glyph unicode="&#xf6;" horiz-adv-x="1030" d="M94 516q0 502 414 502q109 0 189.5 -30t125.5 -75t71 -115.5t34 -134t8 -147.5q0 -72 -4 -124t-17.5 -119.5t-42 -113.5t-73.5 -89t-119 -64.5t-172 -21.5q-113 0 -192.5 33.5t-121.5 81.5t-66 127t-29 140.5t-5 149.5zM246 1249q0 84 86 84q49 0 66.5 -21.5t17.5 -62.5 q0 -90 -84 -90q-51 0 -68.5 23.5t-17.5 66.5zM252 501.5q0 -200.5 52 -287.5t204 -87q160 0 214 85t54 290q0 203 -54 289t-214 86q-152 0 -204 -87.5t-52 -288zM623 1249q0 84 84 84q49 0 67.5 -21.5t18.5 -62.5q0 -90 -86 -90q-84 0 -84 90z" />
<glyph unicode="&#xf7;" d="M170 631v74q0 27 29 26h741q29 0 29 -26v-74q0 -25 -29 -25h-741q-29 0 -29 25zM473 358q0 94 92 95q55 0 74.5 -23.5t19.5 -71.5q0 -98 -94 -98q-55 0 -73.5 25.5t-18.5 72.5zM473 967q0 92 92 92q55 0 74.5 -23.5t19.5 -68.5q0 -98 -94 -99q-55 0 -73.5 26t-18.5 73z " />
<glyph unicode="&#xf8;" horiz-adv-x="1030" d="M94 516q0 502 414 502q176 0 278 -76l62 84q18 29 35 16l45 -32q20 -14 4 -35l-76 -105q80 -117 80 -354q0 -72 -4 -124t-17.5 -119.5t-42 -113.5t-73.5 -89t-119 -64.5t-172 -21.5q-158 0 -252 61l-47 -63q-16 -27 -35 -15l-45 31q-18 12 -2 35l57 78q-90 114 -90 405z M252 502q0 -170 33 -252l411 569q-63 57 -188 58q-152 0 -204 -87t-52 -288zM346 170q55 -43 162 -43q160 0 214 85t54 290q0 145 -24 225z" />
<glyph unicode="&#xf9;" horiz-adv-x="1048" d="M115 358v605q0 35 35 34h88q33 0 32 -34v-607q0 -139 36 -187t132 -48q115 0 344 119v723q0 35 35 34h84q35 0 35 -34v-928q0 -35 -35 -35h-84q-37 0 -37 35v71l-4 5q-207 -131 -360 -131q-96 0 -158.5 26.5t-92.5 81.5t-40 116.5t-10 153.5zM342 1389q-16 20 6 30l94 41 q27 12 35 -6l144 -293q10 -23 -7 -28l-59 -27q-20 -8 -31 6z" />
<glyph unicode="&#xfa;" horiz-adv-x="1048" d="M115 358v605q0 35 35 34h88q33 0 32 -34v-607q0 -139 36 -187t132 -48q115 0 344 119v723q0 35 35 34h84q35 0 35 -34v-928q0 -35 -35 -35h-84q-37 0 -37 35v71l-4 5q-207 -131 -360 -131q-96 0 -158.5 26.5t-92.5 81.5t-40 116.5t-10 153.5zM481 1161l144 293q8 18 34 6 l95 -41q23 -10 6 -30l-182 -271q-10 -14 -31 -6l-60 21q-16 5 -6 28z" />
<glyph unicode="&#xfb;" horiz-adv-x="1048" d="M115 358v605q0 35 35 34h88q33 0 32 -34v-607q0 -139 36 -187t132 -48q115 0 344 119v723q0 35 35 34h84q35 0 35 -34v-928q0 -35 -35 -35h-84q-37 0 -37 35v71l-4 5q-207 -131 -360 -131q-96 0 -158.5 26.5t-92.5 81.5t-40 116.5t-10 153.5zM231 1147q-14 10 0 27 l193 243q14 23 55 23h96q45 0 60 -21l188 -243q16 -20 2 -33l-43 -33q-20 -16 -32 -2l-224 219l-215 -215q-16 -18 -37 -2z" />
<glyph unicode="&#xfc;" horiz-adv-x="1048" d="M115 358v605q0 35 35 34h88q33 0 32 -34v-607q0 -139 36 -187t132 -48q115 0 344 119v723q0 35 35 34h84q35 0 35 -34v-928q0 -35 -35 -35h-84q-37 0 -37 35v71l-4 5q-207 -131 -360 -131q-96 0 -158.5 26.5t-92.5 81.5t-40 116.5t-10 153.5zM268 1249q0 84 86 84 q49 0 66.5 -21.5t17.5 -62.5q0 -90 -84 -90q-51 0 -68.5 23.5t-17.5 66.5zM645 1249q0 84 84 84q49 0 67.5 -21.5t18.5 -62.5q0 -90 -86 -90q-84 0 -84 90z" />
<glyph unicode="&#xfd;" horiz-adv-x="954" d="M51 965q-12 33 17 32h108q23 0 33 -28l168 -469l110 -314l115 328l156 457q8 27 33 26h110q25 0 14 -30l-469 -1299q-10 -29 -40 -28h-95q-29 0 -18 32l119 328zM424 1161l143 293q8 18 35 6l94 -41q23 -10 6 -30l-182 -271q-10 -14 -31 -6l-59 21q-16 5 -6 28z" />
<glyph unicode="&#xfe;" horiz-adv-x="1034" d="M127 -322v1645q0 35 35 35h84q35 0 35 -35v-434l6 -4q207 131 348 131q186 0 260 -125t74 -383q0 -270 -88 -398t-314 -128q-137 0 -282 57l-2 -2v-359q0 -39 -37 -38h-84q-20 0 -27.5 7.5t-7.5 30.5zM283 168q156 -45 295 -45q131 0 180 85t49 306q0 152 -21.5 231.5 t-58.5 104t-106 24.5q-123 0 -338 -116v-590z" />
<glyph unicode="&#xff;" horiz-adv-x="954" d="M51 965q-12 33 17 32h108q23 0 33 -28l168 -469l110 -314l115 328l156 457q8 27 33 26h110q25 0 14 -30l-469 -1299q-10 -29 -40 -28h-95q-29 0 -18 32l119 328zM215 1249q0 84 86 84q49 0 66.5 -21.5t17.5 -62.5q0 -90 -84 -90q-51 0 -68.5 23.5t-17.5 66.5zM592 1249 q0 84 84 84q49 0 67.5 -21.5t18.5 -62.5q0 -90 -86 -90q-84 0 -84 90z" />
<glyph unicode="&#x100;" horiz-adv-x="1122" d="M33 33l428 1292q8 31 39 31h114q29 0 39 -31l428 -1296q8 -29 -16 -29h-125q-27 0 -35 27l-100 335h-500l-106 -329q-10 -33 -43 -33h-107q-28 0 -16 33zM272 1509v78q0 27 29 27h516q29 0 29 -27v-78q0 -25 -29 -24h-516q-29 -1 -29 24zM352 508h408l-103 342l-98 332 h-6l-96 -326z" />
<glyph unicode="&#x101;" horiz-adv-x="1052" d="M90 266q0 176 90 260t291 84h283v70q0 113 -52.5 156t-187.5 43q-133 0 -289 -19q-35 -6 -41 19l-12 53q-6 29 33 45q117 41 340 41q121 0 195.5 -24.5t110.5 -78t47 -110.5t11 -152v-452q0 -59 11.5 -71.5t62.5 -16.5q35 -2 35 -27v-51q0 -31 -41 -37q-37 -6 -72 -6 q-72 0 -105.5 26.5t-43.5 92.5h-4q-215 -127 -385 -127q-145 0 -211 70.5t-66 211.5zM248 272q0 -84 33.5 -115.5t124.5 -31.5q145 0 348 117v239h-301q-100 0 -152.5 -46t-52.5 -163zM270 1198v78q0 27 29 27h516q29 0 29 -27v-78q0 -25 -29 -24h-516q-29 -1 -29 24z" />
<glyph unicode="&#x102;" horiz-adv-x="1122" d="M33 33l428 1292q8 31 39 31h114q29 0 39 -31l428 -1296q8 -29 -16 -29h-125q-27 0 -35 27l-100 335h-500l-106 -329q-10 -33 -43 -33h-107q-28 0 -16 33zM244 1675l43 33q16 12 35 -6q66 -78 112.5 -108.5t116.5 -30.5q68 0 108.5 29.5t108.5 109.5q18 18 35 6l43 -29 q10 -10 -6 -53q-45 -94 -124 -143t-169 -49q-205 0 -297 188q-16 43 -6 53zM352 508h408l-103 342l-98 332h-6l-96 -326z" />
<glyph unicode="&#x103;" horiz-adv-x="1052" d="M90 266q0 176 90 260t291 84h283v70q0 113 -52.5 156t-187.5 43q-133 0 -289 -19q-35 -6 -41 19l-12 53q-6 29 33 45q117 41 340 41q121 0 195.5 -24.5t110.5 -78t47 -110.5t11 -152v-452q0 -59 11.5 -71.5t62.5 -16.5q35 -2 35 -27v-51q0 -31 -41 -37q-37 -6 -72 -6 q-72 0 -105.5 26.5t-43.5 92.5h-4q-215 -127 -385 -127q-145 0 -211 70.5t-66 211.5zM248 272q0 -84 33.5 -115.5t124.5 -31.5q145 0 348 117v239h-301q-100 0 -152.5 -46t-52.5 -163zM252 1343l43 33q16 12 35 -6q66 -78 112.5 -108.5t116.5 -30.5q45 0 85 20.5t56.5 37 t75.5 81.5q18 18 35 6l43 -28q12 -8 -6 -54q-45 -94 -124 -143t-169 -49q-205 0 -297 188q-16 43 -6 53z" />
<glyph unicode="&#x104;" horiz-adv-x="1122" d="M33 33l428 1292q8 31 39 31h114q29 0 39 -31l428 -1296q4 -18 -4 -27q-94 -109 -94 -205q0 -125 217 -71q16 4 21 -9l16 -49q4 -14 -14 -22q-66 -33 -140 -37q-109 -6 -167 41t-58 131q0 113 109 219h-27q-27 0 -35 27l-100 335h-500l-106 -329q-10 -33 -43 -33h-107 q-28 0 -16 33zM352 508h408l-103 342l-98 332h-6l-96 -326z" />
<glyph unicode="&#x105;" horiz-adv-x="1052" d="M90 266q0 176 90 260t291 84h283v70q0 113 -52.5 156t-187.5 43q-133 0 -289 -19q-35 -6 -41 19l-12 53q-6 29 33 45q117 41 340 41q121 0 195.5 -24.5t110.5 -78t47 -110.5t11 -152v-452q0 -59 11.5 -71.5t62.5 -16.5q35 -2 35 -27v-51q0 -14 -8 -23h2v-4 q-98 -115 -99 -211q0 -125 217 -71q16 4 21 -9l16 -49q4 -14 -14 -22q-66 -33 -139 -37q-109 -6 -167.5 41t-58.5 131q0 111 101 211q-61 4 -93 30.5t-40 88.5h-4q-215 -127 -385 -127q-145 0 -211 70.5t-66 211.5zM248 272q0 -84 33.5 -115.5t124.5 -31.5q145 0 348 117 v239h-301q-100 0 -152.5 -46t-52.5 -163z" />
<glyph unicode="&#x106;" horiz-adv-x="1101" d="M133 664q0 119 11.5 213t45 190t89 160.5t150.5 104.5t224 40q231 0 367 -53q33 -14 27 -45l-13 -57q-8 -27 -39 -23q-211 29 -342 29q-92 0 -158.5 -31t-103.5 -79t-57.5 -126t-26.5 -149.5t-6 -173.5q0 -90 7 -161t29.5 -143.5t60.5 -119.5t102.5 -77t152.5 -30 q111 0 340 29q33 4 41 -25l10 -53q6 -35 -22 -45q-133 -55 -369 -55q-125 0 -219 37.5t-150.5 98t-91 151.5t-47 184.5t-12.5 208.5zM563 1493q-12 12 8 27l263 194q14 12 32 -10l66 -80q14 -18 -10 -31l-285 -153q-16 -8 -31 6z" />
<glyph unicode="&#x107;" horiz-adv-x="870" d="M92 506q0 88 8.5 154.5t34 137t68.5 115.5t119.5 75t181.5 30q199 0 311 -47q25 -10 21 -43l-9 -47q-8 -27 -53 -23q-209 20 -272 21q-139 0 -191.5 -81t-52.5 -290q0 -221 53.5 -303t190.5 -82q117 0 280 20q41 4 45 -26l9 -43q6 -29 -23 -43q-102 -47 -309 -47 q-104 0 -180 27.5t-120 72.5t-69.5 115.5t-34 140.5t-8.5 166zM418 1161l143 293q8 18 35 6l94 -41q23 -10 6 -30l-182 -271q-10 -14 -31 -6l-59 21q-16 5 -6 28z" />
<glyph unicode="&#x108;" horiz-adv-x="1101" d="M133 664q0 119 11.5 213t45 190t89 160.5t150.5 104.5t224 40q231 0 367 -53q33 -14 27 -45l-13 -57q-8 -27 -39 -23q-211 29 -342 29q-92 0 -158.5 -31t-103.5 -79t-57.5 -126t-26.5 -149.5t-6 -173.5q0 -90 7 -161t29.5 -143.5t60.5 -119.5t102.5 -77t152.5 -30 q111 0 340 29q33 4 41 -25l10 -53q6 -35 -22 -45q-133 -55 -369 -55q-125 0 -219 37.5t-150.5 98t-91 151.5t-47 184.5t-12.5 208.5zM334 1493q-12 12 0 27l211 198q29 23 55 23h96q37 0 60 -21l205 -192q20 -18 2 -33l-39 -37q-16 -12 -33 -2l-244 172l-237 -174 q-23 -14 -37 -2z" />
<glyph unicode="&#x109;" horiz-adv-x="870" d="M92 506q0 88 8.5 154.5t34 137t68.5 115.5t119.5 75t181.5 30q199 0 311 -47q25 -10 21 -43l-9 -47q-8 -27 -53 -23q-209 20 -272 21q-139 0 -191.5 -81t-52.5 -290q0 -221 53.5 -303t190.5 -82q117 0 280 20q41 4 45 -26l9 -43q6 -29 -23 -43q-102 -47 -309 -47 q-104 0 -180 27.5t-120 72.5t-69.5 115.5t-34 140.5t-8.5 166zM197 1147q-14 10 0 27l192 243q14 23 55 23h97q45 0 59 -21l188 -243q16 -20 3 -33l-43 -33q-20 -16 -33 -2l-223 219l-216 -215q-16 -18 -36 -2z" />
<glyph unicode="&#x10a;" horiz-adv-x="1101" d="M133 664q0 119 11.5 213t45 190t89 160.5t150.5 104.5t224 40q231 0 367 -53q33 -14 27 -45l-13 -57q-8 -27 -39 -23q-211 29 -342 29q-92 0 -158.5 -31t-103.5 -79t-57.5 -126t-26.5 -149.5t-6 -173.5q0 -90 7 -161t29.5 -143.5t60.5 -119.5t102.5 -77t152.5 -30 q111 0 340 29q33 4 41 -25l10 -53q6 -35 -22 -45q-133 -55 -369 -55q-125 0 -219 37.5t-150.5 98t-91 151.5t-47 184.5t-12.5 208.5zM594 1597q0 84 86 84q49 0 66.5 -21.5t17.5 -62.5q0 -90 -84 -90q-51 0 -68.5 23.5t-17.5 66.5z" />
<glyph unicode="&#x10b;" horiz-adv-x="870" d="M92 506q0 88 8.5 154.5t34 137t68.5 115.5t119.5 75t181.5 30q199 0 311 -47q25 -10 21 -43l-9 -47q-8 -27 -53 -23q-209 20 -272 21q-139 0 -191.5 -81t-52.5 -290q0 -221 53.5 -303t190.5 -82q117 0 280 20q41 4 45 -26l9 -43q6 -29 -23 -43q-102 -47 -309 -47 q-104 0 -180 27.5t-120 72.5t-69.5 115.5t-34 140.5t-8.5 166zM432 1249q0 84 86 84q49 0 66.5 -21.5t17.5 -62.5q0 -90 -84 -90q-51 0 -68.5 23.5t-17.5 66.5z" />
<glyph unicode="&#x10c;" horiz-adv-x="1101" d="M133 664q0 119 11.5 213t45 190t89 160.5t150.5 104.5t224 40q231 0 367 -53q33 -14 27 -45l-13 -57q-8 -27 -39 -23q-211 29 -342 29q-92 0 -158.5 -31t-103.5 -79t-57.5 -126t-26.5 -149.5t-6 -173.5q0 -90 7 -161t29.5 -143.5t60.5 -119.5t102.5 -77t152.5 -30 q111 0 340 29q33 4 41 -25l10 -53q6 -35 -22 -45q-133 -55 -369 -55q-125 0 -219 37.5t-150.5 98t-91 151.5t-47 184.5t-12.5 208.5zM340 1706l41 37q16 12 33 2l248 -172l237 168q23 14 37 2l39 -35q12 -12 0 -27l-211 -198q-27 -23 -55 -23h-97q-35 0 -59 21l-211 192 q-16 21 -2 33z" />
<glyph unicode="&#x10d;" horiz-adv-x="870" d="M92 506q0 88 8.5 154.5t34 137t68.5 115.5t119.5 75t181.5 30q199 0 311 -47q25 -10 21 -43l-9 -47q-8 -27 -53 -23q-209 20 -272 21q-139 0 -191.5 -81t-52.5 -290q0 -221 53.5 -303t190.5 -82q117 0 280 20q41 4 45 -26l9 -43q6 -29 -23 -43q-102 -47 -309 -47 q-104 0 -180 27.5t-120 72.5t-69.5 115.5t-34 140.5t-8.5 166zM201 1382q-14 16 0 27l43 37q20 16 37 -2l215 -215l223 219q12 14 33 -2l43 -33q14 -12 -2 -33l-189 -243q-14 -20 -59 -21h-96q-41 0 -56 23z" />
<glyph unicode="&#x10e;" horiz-adv-x="1263" d="M156 35v1288q0 33 37 33h389q160 0 270.5 -51.5t169.5 -147.5t83.5 -211t24.5 -264q0 -152 -24.5 -267.5t-82.5 -213t-169 -149.5t-272 -52h-383q-43 0 -43 35zM276 1706l41 37q16 12 33 2l248 -172l238 168q23 14 36 2l39 -35q12 -12 0 -27l-211 -198q-27 -23 -55 -23 h-96q-35 0 -60 21l-210 192q-17 21 -3 33zM315 147h252q63 0 112.5 10.5t105 42t92 86t61.5 152t25 228.5q0 166 -31 277.5t-87.5 167.5t-118.5 77.5t-144 21.5h-267v-1063z" />
<glyph unicode="&#x10f;" horiz-adv-x="1255" d="M88 489q0 272 88 400.5t316 128.5q133 0 280 -57l4 2v442q0 39 35 39h86q20 0 26.5 -8.5t6.5 -30.5v-1370q0 -35 -33 -35h-86q-35 0 -35 35v76l-6 2q-197 -129 -348 -129q-186 0 -260 124.5t-74 380.5zM250 485.5q0 -221.5 42 -291t144 -69.5q125 0 338 117v589 q-152 45 -295 46q-131 0 -180 -85t-49 -306.5zM1040 1090q-8 10 9 26q68 59 67 146q0 57 -51 118q-16 20 8 43l78 56q25 20 51 -2q59 -53 60 -125q0 -184 -160 -285q-23 -16 -33 -6z" />
<glyph unicode="&#x110;" horiz-adv-x="1263" d="M-2 649v78q0 27 29 27h129v569q0 33 37 33h389q160 0 270.5 -51.5t169.5 -147.5t83.5 -211t24.5 -264q0 -152 -24.5 -267.5t-82.5 -213t-169 -149.5t-272 -52h-383q-43 0 -43 35v590h-129q-29 -1 -29 24zM315 147h252q63 0 112.5 10.5t105 42t92 86t61.5 152t25 228.5 q0 166 -31 277.5t-87.5 167.5t-118.5 77.5t-144 21.5h-267v-456h228q29 0 28 -27v-78q0 -25 -28 -24h-228v-478z" />
<glyph unicode="&#x111;" horiz-adv-x="1044" d="M88 489q0 272 88 400.5t316 128.5q133 0 280 -57l4 2v167h-311q-29 0 -29 25v74q0 27 29 26h311v150q0 39 35 39h86q20 0 26.5 -8.5t6.5 -30.5v-150h117q29 0 28 -26v-74q0 -25 -28 -25h-117v-1095q0 -35 -33 -35h-86q-35 0 -35 35v76l-6 2q-197 -129 -348 -129 q-186 0 -260 124.5t-74 380.5zM250 485.5q0 -221.5 42 -291t144 -69.5q125 0 338 117v589q-152 45 -295 46q-131 0 -180 -85t-49 -306.5z" />
<glyph unicode="&#x112;" horiz-adv-x="1034" d="M152 33v1290q0 35 36 35h707q35 0 35 -33v-80q0 -35 -37 -35h-582v-432h523q35 0 34 -33v-79q0 -33 -34 -33h-523v-488h598q33 0 33 -34v-78q0 -33 -35 -33h-719q-36 0 -36 33zM262 1520v77q0 27 29 27h516q29 0 29 -27v-77q0 -25 -29 -25h-516q-29 0 -29 25z" />
<glyph unicode="&#x113;" horiz-adv-x="1001" d="M94 498q0 520 416 520q100 0 176 -26.5t119 -66.5t69.5 -103.5t36 -122t13.5 -134.5q4 -117 -90 -116h-578q2 -184 62.5 -254t205.5 -70q70 0 285 25q41 4 47 -27l8 -45q6 -29 -22 -41q-131 -55 -328 -55q-109 0 -187.5 29.5t-122.5 74.5t-69.5 117.5t-33 138.5t-7.5 156 zM236 1198v78q0 27 28 27h516q29 0 29 -27v-78q0 -25 -29 -24h-516q-28 -1 -28 24zM256 578h502q0 61 -9.5 108t-34 94t-77.5 73t-131 26q-129 0 -184.5 -75.5t-65.5 -225.5z" />
<glyph unicode="&#x114;" horiz-adv-x="1034" d="M152 33v1290q0 35 36 35h707q35 0 35 -33v-80q0 -35 -37 -35h-582v-432h523q35 0 34 -33v-79q0 -33 -34 -33h-523v-488h598q33 0 33 -34v-78q0 -33 -35 -33h-719q-36 0 -36 33zM221 1675l43 33q16 12 35 -6q66 -78 113 -108.5t116 -30.5q68 0 109 29.5t108 109.5 q18 18 35 6l43 -29q10 -10 -6 -53q-45 -94 -124 -143t-169 -49q-205 0 -297 188q-16 43 -6 53z" />
<glyph unicode="&#x115;" horiz-adv-x="1001" d="M94 498q0 520 416 520q100 0 176 -26.5t119 -66.5t69.5 -103.5t36 -122t13.5 -134.5q4 -117 -90 -116h-578q2 -184 62.5 -254t205.5 -70q70 0 285 25q41 4 47 -27l8 -45q6 -29 -22 -41q-131 -55 -328 -55q-109 0 -187.5 29.5t-122.5 74.5t-69.5 117.5t-33 138.5t-7.5 156 zM211 1343l43 33q16 12 35 -6q66 -78 113 -108.5t116 -30.5q45 0 85 20.5t56.5 37t75.5 81.5q18 18 35 6l43 -28q12 -8 -6 -54q-45 -94 -124 -143t-169 -49q-205 0 -297 188q-16 43 -6 53zM256 578h502q0 61 -9.5 108t-34 94t-77.5 73t-131 26q-129 0 -184.5 -75.5 t-65.5 -225.5z" />
<glyph unicode="&#x116;" horiz-adv-x="1034" d="M152 33v1290q0 35 36 35h707q35 0 35 -33v-80q0 -35 -37 -35h-582v-432h523q35 0 34 -33v-79q0 -33 -34 -33h-523v-488h598q33 0 33 -34v-78q0 -33 -35 -33h-719q-36 0 -36 33zM483 1556q0 84 86 84q49 0 66.5 -21.5t17.5 -62.5q0 -90 -84 -90q-51 0 -68.5 23.5 t-17.5 66.5z" />
<glyph unicode="&#x117;" horiz-adv-x="1001" d="M94 498q0 520 416 520q100 0 176 -26.5t119 -66.5t69.5 -103.5t36 -122t13.5 -134.5q4 -117 -90 -116h-578q2 -184 62.5 -254t205.5 -70q70 0 285 25q41 4 47 -27l8 -45q6 -29 -22 -41q-131 -55 -328 -55q-109 0 -187.5 29.5t-122.5 74.5t-69.5 117.5t-33 138.5t-7.5 156 zM256 578h502q0 61 -9.5 108t-34 94t-77.5 73t-131 26q-129 0 -184.5 -75.5t-65.5 -225.5zM442 1249q0 84 86 84q49 0 66.5 -21.5t17.5 -62.5q0 -90 -84 -90q-51 0 -68.5 23.5t-17.5 66.5z" />
<glyph unicode="&#x118;" horiz-adv-x="1034" d="M152 33v1290q0 35 36 35h707q35 0 35 -33v-80q0 -35 -37 -35h-582v-432h523q35 0 34 -33v-79q0 -33 -34 -33h-523v-488h598q33 0 33 -34v-78q0 -23 -12 -29q-94 -111 -94 -207q0 -125 217 -71q16 4 20 -9l17 -49q4 -14 -15 -22q-66 -33 -139 -37q-109 -6 -167 41t-58 131 q0 113 108 219h-631q-36 0 -36 33z" />
<glyph unicode="&#x119;" horiz-adv-x="1001" d="M94 498q0 520 416 520q100 0 176 -26.5t119 -66.5t69.5 -103.5t36 -122t13.5 -134.5q4 -117 -90 -116h-578q2 -184 62.5 -254t205.5 -70q70 0 285 25q41 4 47 -27l8 -45q6 -29 -22 -41q-39 -16 -88 -29q-98 -115 -99 -211q0 -125 217 -71q16 4 21 -9l16 -49 q4 -14 -14 -22q-66 -33 -139 -37q-109 -6 -167.5 41t-58.5 131q0 109 99 209q-82 -8 -115 -8q-109 0 -187.5 29.5t-122.5 74.5t-69.5 117.5t-33 138.5t-7.5 156zM256 578h502q0 61 -9.5 108t-34 94t-77.5 73t-131 26q-129 0 -184.5 -75.5t-65.5 -225.5z" />
<glyph unicode="&#x11a;" horiz-adv-x="1034" d="M152 33v1290q0 35 36 35h707q35 0 35 -33v-80q0 -35 -37 -35h-582v-432h523q35 0 34 -33v-79q0 -33 -34 -33h-523v-488h598q33 0 33 -34v-78q0 -33 -35 -33h-719q-36 0 -36 33zM213 1686l41 36q16 12 33 2l248 -172l237 168q23 14 37 2l39 -34q12 -12 0 -27l-211 -199 q-27 -23 -55 -22h-97q-35 0 -59 20l-211 193q-16 21 -2 33z" />
<glyph unicode="&#x11b;" horiz-adv-x="1001" d="M94 498q0 520 416 520q100 0 176 -26.5t119 -66.5t69.5 -103.5t36 -122t13.5 -134.5q4 -117 -90 -116h-578q2 -184 62.5 -254t205.5 -70q70 0 285 25q41 4 47 -27l8 -45q6 -29 -22 -41q-131 -55 -328 -55q-109 0 -187.5 29.5t-122.5 74.5t-69.5 117.5t-33 138.5t-7.5 156 zM215 1362q-14 16 0 27l43 36q20 16 37 -2l215 -215l223 219q12 14 33 -2l43 -32q14 -12 -2 -33l-189 -244q-14 -20 -59 -20h-96q-41 0 -55 22zM256 578h502q0 61 -9.5 108t-34 94t-77.5 73t-131 26q-129 0 -184.5 -75.5t-65.5 -225.5z" />
<glyph unicode="&#x11c;" horiz-adv-x="1236" d="M135 666q0 117 12.5 212t46 190t91 159.5t151.5 104.5t221 40q229 0 367 -53q33 -12 27 -45l-15 -57q-4 -27 -37 -23q-215 29 -342 29q-90 0 -155.5 -31t-103.5 -79t-59.5 -125t-27.5 -150.5t-6 -173.5q0 -115 15.5 -202t53.5 -167t112.5 -123t183.5 -43q168 0 260 33 v418h-187q-37 0 -36 34v80q0 33 34 33h314q39 0 39 -35v-586q0 -55 -56 -71q-172 -51 -358 -51q-291 0 -418 176t-127 506zM371 1473q-12 12 0 26l211 199q29 23 55 22h96q37 0 60 -20l204 -193q20 -18 2 -32l-38 -37q-16 -12 -33 -2l-244 172l-238 -174q-23 -14 -36 -2z " />
<glyph unicode="&#x11d;" horiz-adv-x="1046" d="M98 494q0 262 95.5 393t326.5 131q209 0 375 -49q51 -14 51 -82v-891q0 -74 -7 -124t-30.5 -101.5t-65.5 -82t-115 -49t-175 -18.5q-223 0 -334 47q-31 12 -22 43l8 45q4 29 51 23q133 -18 289 -19q139 0 190 45t51 156v82q-164 -61 -290 -61q-225 0 -311.5 129 t-86.5 383zM258 1147q-14 10 0 27l193 243q14 23 55 23h96q45 0 60 -21l188 -243q16 -20 2 -33l-43 -33q-20 -16 -33 -2l-223 219l-215 -215q-16 -18 -37 -2zM262 512q0 -215 51.5 -303t178.5 -88q135 0 294 47v682q-172 23 -262 22q-63 0 -105 -12t-81 -49t-57.5 -110.5 t-18.5 -188.5z" />
<glyph unicode="&#x11e;" horiz-adv-x="1236" d="M135 666q0 117 12.5 212t46 190t91 159.5t151.5 104.5t221 40q229 0 367 -53q33 -12 27 -45l-15 -57q-4 -27 -37 -23q-215 29 -342 29q-90 0 -155.5 -31t-103.5 -79t-59.5 -125t-27.5 -150.5t-6 -173.5q0 -115 15.5 -202t53.5 -167t112.5 -123t183.5 -43q168 0 260 33 v418h-187q-37 0 -36 34v80q0 33 34 33h314q39 0 39 -35v-586q0 -55 -56 -71q-172 -51 -358 -51q-291 0 -418 176t-127 506zM383 1696l43 33q16 12 35 -7q66 -78 113 -108.5t116 -30.5q68 0 109 29.5t108 109.5q18 18 35 7l43 -29q10 -10 -6 -53q-45 -94 -124 -143.5 t-169 -49.5q-205 0 -297 188q-16 44 -6 54z" />
<glyph unicode="&#x11f;" horiz-adv-x="1046" d="M98 494q0 262 95.5 393t326.5 131q209 0 375 -49q51 -14 51 -82v-891q0 -74 -7 -124t-30.5 -101.5t-65.5 -82t-115 -49t-175 -18.5q-223 0 -334 47q-31 12 -22 43l8 45q4 29 51 23q133 -18 289 -19q139 0 190 45t51 156v82q-164 -61 -290 -61q-225 0 -311.5 129 t-86.5 383zM252 1364l43 33q16 12 35 -6q66 -78 112.5 -109t116.5 -31q45 0 85 20.5t56.5 37t75.5 82.5q18 18 35 6l43 -29q12 -8 -6 -53q-45 -94 -124 -143.5t-169 -49.5q-205 0 -297 189q-16 43 -6 53zM262 512q0 -215 51.5 -303t178.5 -88q135 0 294 47v682 q-172 23 -262 22q-63 0 -105 -12t-81 -49t-57.5 -110.5t-18.5 -188.5z" />
<glyph unicode="&#x120;" horiz-adv-x="1236" d="M135 666q0 117 12.5 212t46 190t91 159.5t151.5 104.5t221 40q229 0 367 -53q33 -12 27 -45l-15 -57q-4 -27 -37 -23q-215 29 -342 29q-90 0 -155.5 -31t-103.5 -79t-59.5 -125t-27.5 -150.5t-6 -173.5q0 -115 15.5 -202t53.5 -167t112.5 -123t183.5 -43q168 0 260 33 v418h-187q-37 0 -36 34v80q0 33 34 33h314q39 0 39 -35v-586q0 -55 -56 -71q-172 -51 -358 -51q-291 0 -418 176t-127 506zM592 1556q0 84 86 84q49 0 66.5 -21.5t17.5 -62.5q0 -90 -84 -90q-51 0 -68.5 23.5t-17.5 66.5z" />
<glyph unicode="&#x121;" horiz-adv-x="1046" d="M98 494q0 262 95.5 393t326.5 131q209 0 375 -49q51 -14 51 -82v-891q0 -74 -7 -124t-30.5 -101.5t-65.5 -82t-115 -49t-175 -18.5q-223 0 -334 47q-31 12 -22 43l8 45q4 29 51 23q133 -18 289 -19q139 0 190 45t51 156v82q-164 -61 -290 -61q-225 0 -311.5 129 t-86.5 383zM262 512q0 -215 51.5 -303t178.5 -88q135 0 294 47v682q-172 23 -262 22q-63 0 -105 -12t-81 -49t-57.5 -110.5t-18.5 -188.5zM479 1249q0 84 86 84q49 0 66.5 -21.5t17.5 -62.5q0 -90 -84 -90q-51 0 -68.5 23.5t-17.5 66.5z" />
<glyph unicode="&#x122;" horiz-adv-x="1236" d="M135 666q0 117 12.5 212t46 190t91 159.5t151.5 104.5t221 40q229 0 367 -53q33 -12 27 -45l-15 -57q-4 -27 -37 -23q-215 29 -342 29q-90 0 -155.5 -31t-103.5 -79t-59.5 -125t-27.5 -150.5t-6 -173.5q0 -115 15.5 -202t53.5 -167t112.5 -123t183.5 -43q168 0 260 33 v418h-187q-37 0 -36 34v80q0 33 34 33h314q39 0 39 -35v-586q0 -55 -56 -71q-172 -51 -358 -51q-291 0 -418 176t-127 506zM571 -512q-8 10 9 27q68 59 67 145q0 57 -51 119q-16 20 8 43l78 55q25 20 51 -2q59 -53 60 -125q0 -184 -160 -285q-23 -16 -33 -6z" />
<glyph unicode="&#x123;" horiz-adv-x="1046" d="M98 494q0 262 95.5 393t326.5 131q209 0 375 -49q51 -14 51 -82v-891q0 -74 -7 -124t-30.5 -101.5t-65.5 -82t-115 -49t-175 -18.5q-223 0 -334 47q-31 12 -22 43l8 45q4 29 51 23q133 -18 289 -19q139 0 190 45t51 156v82q-164 -61 -290 -61q-225 0 -311.5 129 t-86.5 383zM262 512q0 -215 51.5 -303t178.5 -88q135 0 294 47v682q-172 23 -262 22q-63 0 -105 -12t-81 -49t-57.5 -110.5t-18.5 -188.5zM504 1251q0 184 160 285q23 16 32 6l29 -29q8 -10 -8 -26q-68 -59 -68 -146q0 -57 51 -118q16 -20 -8 -43l-78 -56q-25 -20 -51 2 q-59 53 -59 125z" />
<glyph unicode="&#x124;" horiz-adv-x="1218" d="M147 35v1286q0 37 37 37h88q33 0 33 -37v-528h608v528q0 37 37 37h88q33 0 33 -37v-1286q0 -35 -33 -35h-88q-37 0 -37 35v610h-608v-610q0 -35 -33 -35h-88q-37 0 -37 35zM291 1473q-12 12 0 26l211 199q29 23 55 22h96q37 0 60 -20l205 -193q20 -18 2 -32l-39 -37 q-16 -12 -33 -2l-244 172l-237 -174q-23 -14 -37 -2z" />
<glyph unicode="&#x125;" horiz-adv-x="1048" d="M-117 1473q-12 12 0 26l211 199q29 23 56 22h96q37 0 59 -20l205 -193q20 -18 2 -32l-39 -37q-16 -12 -33 -2l-243 172l-238 -174q-23 -14 -37 -2zM113 35v1374q0 35 32 35h84q37 0 37 -35v-520l2 -2q201 131 365 131q96 0 157.5 -26.5t91 -83t39 -116t9.5 -153.5v-604 q0 -35 -37 -35h-86q-35 0 -35 35l2 624q0 129 -34.5 173.5t-131.5 44.5q-109 0 -342 -117v-725q0 -35 -37 -35h-84q-32 0 -32 35z" />
<glyph unicode="&#x126;" horiz-adv-x="1218" d="M6 1028v57q0 31 31 31h110v205q0 37 37 37h88q33 0 33 -37v-205h608v205q0 37 37 37h88q33 0 33 -37v-205h117q31 0 31 -31v-57q0 -29 -29 -29h-119v-964q0 -35 -33 -35h-88q-37 0 -37 35v610h-608v-610q0 -35 -33 -35h-88q-37 0 -37 35v964h-112q-29 0 -29 29zM305 793 h608v206h-608v-206z" />
<glyph unicode="&#x127;" horiz-adv-x="1075" d="M2 1151v53q0 37 35 37h102v168q0 35 33 35h84q37 0 37 -35v-168h434q35 0 35 -35v-55q0 -35 -35 -35h-434v-266q0 -4 2 -4q201 131 364 131q96 0 158 -26.5t91.5 -83t38.5 -116t9 -153.5v-563q0 -35 -36 -35h-84q-35 0 -35 35v583q0 129 -35 173.5t-131 44.5 q-109 0 -342 -117v-684q0 -35 -37 -35h-84q-33 0 -33 35v1081h-102q-35 0 -35 35z" />
<glyph unicode="&#x128;" horiz-adv-x="520" d="M-90 1548q33 88 86 128t108.5 40t162 -53t143.5 -53q57 0 100 76q14 23 35 14l43 -14q16 -6 10 -33q-55 -176 -188 -176q-47 0 -159 54t-151 54q-59 0 -106 -78q-10 -20 -35 -8l-41 17q-18 5 -8 32zM176 35v1286q0 37 37 37h90q35 0 35 -37v-1286q0 -35 -35 -35h-90 q-37 0 -37 35z" />
<glyph unicode="&#x129;" horiz-adv-x="655" d="M-16 1200q33 88 86 128t108 40t161.5 -53t143.5 -53q57 0 101 75q14 23 34 15l44 -15q16 -6 10 -32q-55 -176 -189 -177q-47 0 -158.5 54.5t-150.5 54.5q-59 0 -106 -78q-10 -20 -35 -8l-41 16q-18 6 -8 33zM250 35v928q0 35 37 34h84q33 0 32 -34v-928q0 -35 -32 -35 h-84q-37 0 -37 35z" />
<glyph unicode="&#x12a;" horiz-adv-x="520" d="M-27 1522v77q0 27 29 27h516q29 0 29 -27v-77q0 -25 -29 -25h-516q-29 0 -29 25zM176 35v1286q0 37 37 37h90q35 0 35 -37v-1286q0 -35 -35 -35h-90q-37 0 -37 35z" />
<glyph unicode="&#x12b;" horiz-adv-x="532" d="M-20 1198v78q0 27 28 27h516q29 0 29 -27v-78q0 -25 -29 -24h-516q-28 -1 -28 24zM190 35v928q0 35 37 34h84q33 0 33 -34v-928q0 -35 -33 -35h-84q-37 0 -37 35z" />
<glyph unicode="&#x12c;" horiz-adv-x="555" d="M-12 1675l43 33q16 12 35 -6q66 -78 112.5 -108.5t116.5 -30.5q68 0 108.5 29.5t108.5 109.5q18 18 35 6l43 -29q10 -10 -6 -53q-45 -94 -124 -143t-169 -49q-205 0 -297 188q-16 43 -6 53zM209 35v1286q0 37 37 37h90q35 0 35 -37v-1286q0 -35 -35 -35h-90q-37 0 -37 35 z" />
<glyph unicode="&#x12d;" horiz-adv-x="575" d="M-14 1356l43 33q16 12 34 -7q66 -78 113 -108.5t117 -30.5q45 0 85 20.5t56.5 37t75.5 81.5q18 18 35 7l43 -29q12 -8 -6 -53q-45 -94 -124 -143.5t-169 -49.5q-205 0 -297 189q-16 43 -6 53zM213 35v928q0 35 37 34h84q33 0 33 -34v-928q0 -35 -33 -35h-84q-37 0 -37 35 z" />
<glyph unicode="&#x12e;" horiz-adv-x="520" d="M96 -219q0 113 109 219q-29 4 -29 35v1286q0 37 37 37h90q35 0 35 -37v-1286q0 -31 -25 -35q-92 -109 -92 -203q0 -125 217 -71q16 4 21 -9l16 -49q4 -14 -14 -22q-66 -33 -139 -37q-109 -6 -167.5 41t-58.5 131z" />
<glyph unicode="&#x12f;" horiz-adv-x="456" d="M70 -219q0 113 108 219q-27 2 -26 35v928q0 35 36 34h84q33 0 33 -34v-928q0 -27 -18 -33q-92 -109 -92 -205q0 -125 217 -71q16 4 20 -9l17 -49q4 -14 -15 -22q-66 -33 -139 -37q-109 -6 -167 41t-58 131zM141 1264q0 88 88 88q51 0 69.5 -21.5t18.5 -66.5t-18 -69 t-70 -24q-53 0 -70.5 24t-17.5 69z" />
<glyph unicode="&#x130;" horiz-adv-x="520" d="M174 1597q0 84 86 84q49 0 66.5 -21.5t17.5 -62.5q0 -90 -84 -90q-51 0 -68.5 23.5t-17.5 66.5zM176 35v1286q0 37 37 37h90q35 0 35 -37v-1286q0 -35 -35 -35h-90q-37 0 -37 35z" />
<glyph unicode="&#x131;" horiz-adv-x="456" d="M152 35v928q0 35 36 34h84q33 0 33 -34v-928q0 -35 -33 -35h-84q-36 0 -36 35z" />
<glyph unicode="&#x132;" horiz-adv-x="1257" d="M172 35v1286q0 37 37 37h90q35 0 35 -37v-1286q0 -35 -35 -35h-90q-37 0 -37 35zM440 74l15 57q6 27 37 21q133 -18 213 -19q137 0 187 49t50 160v979q0 37 37 37h88q37 0 37 -37v-993q0 -170 -90 -258t-293 -88q-143 0 -250 43q-41 18 -31 49z" />
<glyph unicode="&#x133;" horiz-adv-x="864" d="M141 1264q0 88 88 88q51 0 69.5 -21.5t18.5 -66.5t-18 -69t-70 -24q-53 0 -70.5 24t-17.5 69zM152 35v928q0 35 36 34h84q33 0 33 -34v-928q0 -35 -33 -35h-84q-36 0 -36 35zM268 -336q-2 33 29 39q156 31 203 69t47 154v1037q0 35 37 34h82q37 0 36 -34v-1033 q0 -82 -13 -138t-52 -109.5t-120 -79t-204 -21.5q-39 0 -41 35zM537 1264q0 88 88 88q51 0 69.5 -21.5t18.5 -66.5t-18.5 -69t-69.5 -24q-53 0 -70.5 24t-17.5 69z" />
<glyph unicode="&#x134;" horiz-adv-x="878" d="M18 76l15 57q6 27 37 21q133 -18 213 -19q137 0 187 49t50 160v979q0 37 37 37h88q37 0 37 -37v-993q0 -170 -90 -258t-293 -88q-143 0 -250 43q-41 18 -31 49zM293 1477q-12 12 0 26l211 199q29 23 55 22h96q37 0 60 -20l205 -193q20 -18 2 -32l-39 -37q-16 -12 -33 -2 l-244 172l-237 -174q-23 -14 -37 -2z" />
<glyph unicode="&#x135;" horiz-adv-x="602" d="M-29 -336q-2 33 29 39q156 31 203 69t47 154v1037q0 35 37 34h82q37 0 37 -34v-1033q0 -82 -13.5 -138t-52.5 -109.5t-120 -79t-204 -21.5q-39 0 -41 35zM31 1147q-14 10 0 27l192 243q14 23 56 23h96q45 0 59 -21l189 -243q16 -20 2 -33l-43 -33q-20 -16 -33 -2 l-223 219l-215 -215q-16 -18 -37 -2z" />
<glyph unicode="&#x136;" horiz-adv-x="1126" d="M143 35v1286q0 37 37 37h88q33 0 33 -37v-715l4 -2l162 207l426 524q20 23 47 23h125q14 0 18 -9.5t-4 -19.5l-446 -547l459 -753q6 -10 2 -19.5t-19 -9.5h-125q-31 0 -47 29l-375 626l-227 -278v-342q0 -35 -33 -35h-88q-37 0 -37 35zM453 -471q-8 10 8 27q68 59 67 145 q0 57 -51 119q-16 20 8 43l78 55q25 20 51 -2q59 -53 60 -125q0 -184 -160 -285q-23 -16 -33 -6z" />
<glyph unicode="&#x137;" horiz-adv-x="913" d="M125 35v1374q0 35 35 35h84q37 0 37 -35v-917l4 -3l106 138l289 346q20 27 45 26h106q16 0 23.5 -12t-4.5 -26l-305 -367l346 -557q8 -12 1 -24.5t-22 -12.5h-106q-29 0 -47 29l-273 446l-163 -199v-241q0 -35 -37 -35h-84q-35 0 -35 35zM373 -512q-8 10 8 27 q68 59 68 145q0 57 -52 119q-16 20 9 43l77 55q25 20 52 -2q59 -53 59 -125q0 -184 -160 -285q-23 -16 -33 -6z" />
<glyph unicode="&#x138;" horiz-adv-x="913" d="M125 35v928q0 35 35 34h84q37 0 37 -34v-379l4 -2l403 391q27 27 49 26h111q20 0 25.5 -12t-7.5 -26l-340 -332l377 -592q8 -12 1 -24.5t-21 -12.5h-107q-29 0 -47 29l-311 493l-137 -133v-354q0 -35 -37 -35h-84q-35 0 -35 35z" />
<glyph unicode="&#x139;" horiz-adv-x="991" d="M154 33v1288q0 37 34 37h91q33 0 32 -37v-1176h615q20 0 27.5 -7t7.5 -27v-78q0 -33 -33 -33h-738q-36 0 -36 33zM182 1493q-12 12 8 27l263 194q14 12 32 -10l66 -80q14 -18 -10 -31l-285 -153q-16 -8 -31 6z" />
<glyph unicode="&#x13a;" horiz-adv-x="485" d="M145 158v1249q0 35 35 35h82q37 0 37 -35v-1198q0 -49 20.5 -62.5t81.5 -13.5q33 0 35 -20l8 -66q2 -25 -20 -35q-51 -23 -111 -22q-94 0 -131 43t-37 125zM178 1567q-12 12 8 26l263 195q14 12 32 -10l66 -80q14 -18 -10 -31l-285 -154q-16 -8 -31 7z" />
<glyph unicode="&#x13b;" horiz-adv-x="991" d="M154 33v1288q0 37 34 37h91q33 0 32 -37v-1176h615q20 0 27.5 -7t7.5 -27v-78q0 -33 -33 -33h-738q-36 0 -36 33zM449 -512q-8 10 8 27q68 59 67 145q0 57 -51 119q-16 20 8 43l78 55q25 20 51 -2q59 -53 60 -125q0 -184 -160 -285q-23 -16 -33 -6z" />
<glyph unicode="&#x13c;" horiz-adv-x="485" d="M137 -512q-8 10 8 27q68 59 68 145q0 57 -51 119q-16 20 8 43l78 55q25 20 51 -2q59 -53 59 -125q0 -184 -159 -285q-23 -16 -33 -6zM145 158v1249q0 35 35 35h82q37 0 37 -35v-1198q0 -49 20.5 -62.5t81.5 -13.5q33 0 35 -20l8 -66q2 -25 -20 -35q-51 -23 -111 -22 q-94 0 -131 43t-37 125z" />
<glyph unicode="&#x13d;" horiz-adv-x="991" d="M154 33v1288q0 37 34 37h91q33 0 32 -37v-1176h615q20 0 27.5 -7t7.5 -27v-78q0 -33 -33 -33h-738q-36 0 -36 33zM522 948q-8 10 8 27q68 59 68 145q0 57 -51 119q-16 20 8 43l78 55q25 20 51 -2q59 -53 59 -125q0 -184 -159 -284q-23 -16 -33 -6z" />
<glyph unicode="&#x13e;" horiz-adv-x="593" d="M145 158v1249q0 35 35 35h82q37 0 37 -35v-1198q0 -49 20.5 -62.5t81.5 -13.5q33 0 35 -20l8 -66q2 -25 -20 -35q-51 -23 -111 -22q-94 0 -131 43t-37 125zM393 1049q-8 10 8 26q68 59 68 146q0 57 -51 118q-16 20 8 43l78 56q25 20 51 -2q59 -53 59 -125 q0 -184 -159 -285q-23 -16 -33 -6z" />
<glyph unicode="&#x13f;" horiz-adv-x="991" d="M154 33v1288q0 37 34 37h91q33 0 32 -37v-1176h615q20 0 27.5 -7t7.5 -27v-78q0 -33 -33 -33h-738q-36 0 -36 33zM549 684q0 84 86 84q49 0 66.5 -21.5t17.5 -62.5q0 -90 -84 -90q-51 0 -68.5 23.5t-17.5 66.5z" />
<glyph unicode="&#x140;" horiz-adv-x="563" d="M145 158v1249q0 35 35 35h82q37 0 37 -35v-1198q0 -49 20.5 -62.5t81.5 -13.5q33 0 35 -20l8 -66q2 -25 -20 -35q-51 -23 -111 -22q-94 0 -131 43t-37 125zM403 719q0 84 86 84q49 0 66.5 -21.5t17.5 -62.5q0 -90 -84 -90q-51 0 -68.5 23.5t-17.5 66.5z" />
<glyph unicode="&#x141;" horiz-adv-x="1042" d="M-10 473q-14 25 10 37l154 86v725q0 37 34 37h91q33 0 32 -37v-637l258 145q27 16 39 -8l33 -55q12 -23 -12 -35l-318 -178v-408h615q20 0 27.5 -7t7.5 -27v-78q0 -33 -33 -33h-738q-37 0 -36 33v432l-97 -53q-25 -14 -37 6z" />
<glyph unicode="&#x142;" horiz-adv-x="514" d="M-12 594q-14 25 10 37l166 92v684q0 35 35 35h82q37 0 36 -35v-600l136 76q27 16 39 -9l32 -55q12 -23 -12 -35l-195 -108v-467q0 -49 20.5 -62.5t82.5 -13.5q33 0 35 -20l8 -66q2 -25 -21 -35q-51 -23 -110 -22q-94 0 -131 43t-37 125v434l-109 -60q-25 -14 -37 7z" />
<glyph unicode="&#x143;" horiz-adv-x="1288" d="M147 35v1292q0 31 33 31h84q29 0 51 -33l555 -856l109 -172h6v1024q0 37 35 37h86q33 0 33 -37v-1288q0 -33 -33 -33h-78q-33 0 -53 33l-547 844l-119 194h-6v-1036q0 -35 -35 -35h-84q-37 0 -37 35zM551 1493q-12 12 8 27l262 194q14 12 33 -10l66 -80q14 -18 -11 -31 l-284 -153q-16 -8 -31 6z" />
<glyph unicode="&#x144;" horiz-adv-x="1034" d="M109 35v928q0 35 32 34h84q37 0 37 -34v-74l6 -2q201 131 361 131q96 0 157.5 -26.5t91 -83t39 -116t9.5 -153.5v-604q0 -35 -37 -35h-86q-35 0 -35 35l2 606q0 139 -35 187.5t-131 48.5q-109 0 -342 -117v-725q0 -35 -37 -35h-84q-32 0 -32 35zM414 1161l143 293 q8 18 35 6l94 -41q23 -10 6 -30l-182 -271q-10 -14 -31 -6l-59 21q-16 5 -6 28z" />
<glyph unicode="&#x145;" horiz-adv-x="1288" d="M147 35v1292q0 31 33 31h84q29 0 51 -33l555 -856l109 -172h6v1024q0 37 35 37h86q33 0 33 -37v-1288q0 -33 -33 -33h-78q-33 0 -53 33l-547 844l-119 194h-6v-1036q0 -35 -35 -35h-84q-37 0 -37 35zM532 -471q-8 10 9 27q68 59 67 145q0 57 -51 119q-16 20 8 43l78 55 q25 20 51 -2q59 -53 60 -125q0 -184 -160 -285q-23 -16 -33 -6z" />
<glyph unicode="&#x146;" horiz-adv-x="1034" d="M109 35v928q0 35 32 34h84q37 0 37 -34v-74l6 -2q201 131 361 131q96 0 157.5 -26.5t91 -83t39 -116t9.5 -153.5v-604q0 -35 -37 -35h-86q-35 0 -35 35l2 606q0 139 -35 187.5t-131 48.5q-109 0 -342 -117v-725q0 -35 -37 -35h-84q-32 0 -32 35zM406 -512q-8 10 8 27 q68 59 67 145q0 57 -51 119q-16 20 8 43l78 55q25 20 51 -2q59 -53 60 -125q0 -184 -160 -285q-23 -16 -33 -6z" />
<glyph unicode="&#x147;" horiz-adv-x="1288" d="M147 35v1292q0 31 33 31h84q29 0 51 -33l555 -856l109 -172h6v1024q0 37 35 37h86q33 0 33 -37v-1288q0 -33 -33 -33h-78q-33 0 -53 33l-547 844l-119 194h-6v-1036q0 -35 -35 -35h-84q-37 0 -37 35zM330 1686l41 36q16 12 32 2l248 -172l238 168q23 14 37 2l39 -34 q12 -12 0 -27l-211 -199q-27 -23 -56 -22h-96q-35 0 -59 20l-211 193q-16 21 -2 33z" />
<glyph unicode="&#x148;" horiz-adv-x="1034" d="M109 35v928q0 35 32 34h84q37 0 37 -34v-74l6 -2q201 131 361 131q96 0 157.5 -26.5t91 -83t39 -116t9.5 -153.5v-604q0 -35 -37 -35h-86q-35 0 -35 35l2 606q0 139 -35 187.5t-131 48.5q-109 0 -342 -117v-725q0 -35 -37 -35h-84q-32 0 -32 35zM205 1362q-14 16 0 27 l43 36q20 16 37 -2l215 -215l223 219q12 14 33 -2l43 -32q14 -12 -2 -33l-189 -244q-14 -20 -59 -20h-96q-41 0 -56 22z" />
<glyph unicode="&#x149;" horiz-adv-x="1114" d="M-45 977q-8 10 8 27q68 59 68 145q0 57 -51 119q-16 20 8 43l78 55q25 20 51 -2q59 -53 59 -125q0 -184 -160 -285q-23 -16 -32 -6zM188 35v928q0 35 33 34h84q37 0 37 -34v-74l6 -2q201 131 361 131q96 0 157.5 -26.5t91 -83t39 -116t9.5 -153.5v-604q0 -35 -37 -35h-86 q-35 0 -35 35l2 606q0 139 -35 187.5t-131 48.5q-109 0 -342 -117v-725q0 -35 -37 -35h-84q-33 0 -33 35z" />
<glyph unicode="&#x14a;" horiz-adv-x="1288" d="M147 35v1292q0 31 33 31h84q29 0 51 -33l555 -856l109 -172h6v1024q0 37 35 37h86q33 0 33 -37v-1444q0 -238 -252 -237q-70 0 -111 20q-18 8 -12 31l12 73q4 25 31 21q102 -8 139 14.5t37 96.5v127l-555 854l-119 194h-6v-1036q0 -35 -35 -35h-84q-37 0 -37 35z" />
<glyph unicode="&#x14b;" horiz-adv-x="1034" d="M109 35v928q0 35 32 34h84q37 0 37 -34v-74q4 -2 6 -2q201 131 361 131q96 0 157.5 -26.5t91 -83t39 -116t9.5 -153.5v-762q0 -238 -252 -237q-70 0 -111 20q-18 8 -12 31l12 73q4 25 31 21q102 -8 139 14.5t37 96.5v745q0 139 -35 187.5t-131 48.5q-109 0 -342 -117 v-725q0 -35 -37 -35h-84q-32 0 -32 35z" />
<glyph unicode="&#x14c;" horiz-adv-x="1306" d="M127 698q0 676 522 676q135 0 234.5 -40t155 -101.5t88 -154.5t43 -180t10.5 -200q0 -115 -8.5 -200.5t-40 -189t-86 -170t-157 -111.5t-241.5 -45q-100 0 -180 23.5t-133 61t-92 96t-60.5 117t-35 136.5t-16.5 140t-3 142zM291 678q0 -272 76.5 -412.5t279.5 -140.5 q211 0 292 137t81 416q0 283 -82 420t-291 137q-195 0 -275.5 -141.5t-80.5 -415.5zM377 1509v78q0 27 29 27h516q29 0 28 -27v-78q0 -25 -28 -24h-516q-29 -1 -29 24z" />
<glyph unicode="&#x14d;" horiz-adv-x="1030" d="M94 516q0 502 414 502q109 0 189.5 -30t125.5 -75t71 -115.5t34 -134t8 -147.5q0 -72 -4 -124t-17.5 -119.5t-42 -113.5t-73.5 -89t-119 -64.5t-172 -21.5q-113 0 -192.5 33.5t-121.5 81.5t-66 127t-29 140.5t-5 149.5zM229 1198v78q0 27 29 27h516q29 0 29 -27v-78 q0 -25 -29 -24h-516q-29 -1 -29 24zM252 501.5q0 -200.5 52 -287.5t204 -87q160 0 214 85t54 290q0 203 -54 289t-214 86q-152 0 -204 -87.5t-52 -288z" />
<glyph unicode="&#x14e;" horiz-adv-x="1306" d="M127 698q0 676 522 676q135 0 234.5 -40t155 -101.5t88 -154.5t43 -180t10.5 -200q0 -115 -8.5 -200.5t-40 -189t-86 -170t-157 -111.5t-241.5 -45q-100 0 -180 23.5t-133 61t-92 96t-60.5 117t-35 136.5t-16.5 140t-3 142zM291 678q0 -272 76.5 -412.5t279.5 -140.5 q211 0 292 137t81 416q0 283 -82 420t-291 137q-195 0 -275.5 -141.5t-80.5 -415.5zM358 1675l43 33q16 12 35 -6q66 -78 113 -108.5t117 -30.5q68 0 108.5 29.5t108.5 109.5q18 18 35 6l43 -29q10 -10 -7 -53q-45 -94 -123.5 -143t-168.5 -49q-205 0 -297 188q-17 43 -7 53 z" />
<glyph unicode="&#x14f;" horiz-adv-x="1030" d="M94 516q0 502 414 502q109 0 189.5 -30t125.5 -75t71 -115.5t34 -134t8 -147.5q0 -72 -4 -124t-17.5 -119.5t-42 -113.5t-73.5 -89t-119 -64.5t-172 -21.5q-113 0 -192.5 33.5t-121.5 81.5t-66 127t-29 140.5t-5 149.5zM205 1343l43 33q16 12 35 -6q66 -78 112.5 -108.5 t116.5 -30.5q45 0 85 20.5t56.5 37t75.5 81.5q18 18 35 6l43 -28q12 -8 -6 -54q-45 -94 -124 -143t-169 -49q-205 0 -297 188q-16 43 -6 53zM252 501.5q0 -200.5 52 -287.5t204 -87q160 0 214 85t54 290q0 203 -54 289t-214 86q-152 0 -204 -87.5t-52 -288z" />
<glyph unicode="&#x150;" horiz-adv-x="1306" d="M127 698q0 676 522 676q135 0 234.5 -40t155 -101.5t88 -154.5t43 -180t10.5 -200q0 -115 -8.5 -200.5t-40 -189t-86 -170t-157 -111.5t-241.5 -45q-100 0 -180 23.5t-133 61t-92 96t-60.5 117t-35 136.5t-16.5 140t-3 142zM291 678q0 -272 76.5 -412.5t279.5 -140.5 q211 0 292 137t81 416q0 283 -82 420t-291 137q-195 0 -275.5 -141.5t-80.5 -415.5zM369 1493q-12 12 8 27l262 194q14 12 33 -10l65 -80q14 -18 -10 -31l-285 -153q-16 -8 -30 6zM678 1493q-12 12 8 27l262 194q14 12 33 -10l66 -80q14 -18 -11 -31l-284 -153q-16 -8 -31 6 z" />
<glyph unicode="&#x151;" horiz-adv-x="1030" d="M94 516q0 502 414 502q109 0 189.5 -30t125.5 -75t71 -115.5t34 -134t8 -147.5q0 -72 -4 -124t-17.5 -119.5t-42 -113.5t-73.5 -89t-119 -64.5t-172 -21.5q-113 0 -192.5 33.5t-121.5 81.5t-66 127t-29 140.5t-5 149.5zM252 501.5q0 -200.5 52 -287.5t204 -87 q160 0 214 85t54 290q0 203 -54 289t-214 86q-152 0 -204 -87.5t-52 -288zM315 1161l142 293q10 18 35 6l96 -41q16 -8 6 -30l-184 -271q-8 -14 -29 -6l-59 21q-19 5 -7 28zM573 1161l142 293q10 18 35 6l96 -41q16 -8 6 -30l-184 -271q-8 -14 -29 -6l-59 21q-19 5 -7 28z " />
<glyph unicode="&#x152;" horiz-adv-x="1607" d="M86 698q0 676 520 676q86 0 162 -16h700q35 0 35 -33v-80q0 -35 -37 -35l-581 2v-434h522q35 0 35 -33v-79q0 -33 -35 -33h-522v-486l598 -2q33 0 33 -34v-78q0 -33 -35 -33h-705q-76 -18 -170 -18q-100 0 -180 23.5t-133 61t-92 96t-60.5 117t-35 136.5t-16.5 140 t-3 142zM250 678q0 -268 80 -410.5t276 -142.5q70 0 119 14v1082q-61 14 -119 14q-195 0 -275.5 -141.5t-80.5 -415.5z" />
<glyph unicode="&#x153;" horiz-adv-x="1701" d="M94 516q0 502 414 502q258 0 358 -162q102 143 332 143q102 0 178 -26.5t121 -67.5t72.5 -102.5t39 -120.5t13.5 -135q8 -115 -88 -115h-588q4 -190 56.5 -258t201.5 -68q84 0 305 25q41 4 47 -27l9 -43q6 -31 -25 -43q-53 -23 -156.5 -38t-185.5 -15q-256 0 -350 156 q-102 -137 -340 -137q-113 0 -192.5 33.5t-121.5 81.5t-66 127t-29 140.5t-5 149.5zM252 501.5q0 -200.5 52 -287.5t204 -87q160 0 214 85t54 290q0 203 -54 289t-214 86q-152 0 -204 -87.5t-52 -288zM946 559h504q-2 63 -11 108.5t-34 93.5t-77 73.5t-132 25.5 q-141 0 -190.5 -72.5t-59.5 -228.5z" />
<glyph unicode="&#x154;" horiz-adv-x="1077" d="M137 35v1290q0 33 35 33h418q168 0 281.5 -96.5t113.5 -288.5q0 -127 -63.5 -232.5t-196.5 -146.5l281 -559q6 -14 0.5 -24.5t-19.5 -10.5h-117q-33 0 -45 27l-262 544h-268v-534q0 -37 -35 -37h-88q-35 0 -35 35zM295 713h252q272 0 272 262q0 236 -268 235h-256v-497z M428 1493q-12 12 8 27l262 194q14 12 33 -10l66 -80q14 -18 -11 -31l-284 -153q-16 -8 -31 6z" />
<glyph unicode="&#x155;" horiz-adv-x="657" d="M164 35v928q0 35 33 34h86q37 0 36 -34v-84l5 -5q43 35 137 77t170 57q18 4 24.5 -1.5t10.5 -23.5l8 -86q6 -37 -27 -41q-84 -16 -187.5 -47t-140.5 -51v-723q0 -35 -34 -35h-88q-33 0 -33 35zM313 1161l144 293q8 18 35 6l94 -41q23 -10 6 -30l-182 -271q-10 -14 -31 -6 l-60 21q-16 5 -6 28z" />
<glyph unicode="&#x156;" horiz-adv-x="1077" d="M137 35v1290q0 33 35 33h418q168 0 281.5 -96.5t113.5 -288.5q0 -127 -63.5 -232.5t-196.5 -146.5l281 -559q6 -14 0.5 -24.5t-19.5 -10.5h-117q-33 0 -45 27l-262 544h-268v-534q0 -37 -35 -37h-88q-35 0 -35 35zM295 713h252q272 0 272 262q0 236 -268 235h-256v-497z M420 -471q-8 10 8 27q68 59 68 145q0 57 -52 119q-16 20 9 43l77 55q25 20 52 -2q59 -53 59 -125q0 -184 -160 -285q-23 -16 -32 -6z" />
<glyph unicode="&#x157;" horiz-adv-x="657" d="M127 -512q-8 10 8 27q68 59 68 145q0 57 -51 119q-16 20 8 43l78 55q25 20 51 -2q59 -53 59 -125q0 -184 -160 -285q-23 -16 -32 -6zM164 35v928q0 35 33 34h86q37 0 36 -34v-84l5 -5q43 35 137 77t170 57q18 4 24.5 -1.5t10.5 -23.5l8 -86q6 -37 -27 -41 q-84 -16 -187.5 -47t-140.5 -51v-723q0 -35 -34 -35h-88q-33 0 -33 35z" />
<glyph unicode="&#x158;" horiz-adv-x="1077" d="M137 35v1290q0 33 35 33h418q168 0 281.5 -96.5t113.5 -288.5q0 -127 -63.5 -232.5t-196.5 -146.5l281 -559q6 -14 0.5 -24.5t-19.5 -10.5h-117q-33 0 -45 27l-262 544h-268v-534q0 -37 -35 -37h-88q-35 0 -35 35zM197 1686l41 36q16 12 32 2l248 -172l238 168 q23 14 37 2l38 -34q12 -12 0 -27l-210 -199q-27 -23 -56 -22h-96q-35 0 -59 20l-211 193q-16 21 -2 33zM295 713h252q272 0 272 262q0 236 -268 235h-256v-497z" />
<glyph unicode="&#x159;" horiz-adv-x="657" d="M59 1362q-14 16 0 27l43 36q20 16 37 -2l215 -215l224 219q12 14 32 -2l43 -32q14 -12 -2 -33l-188 -244q-14 -20 -60 -20h-96q-41 0 -55 22zM164 35v928q0 35 33 34h86q37 0 36 -34v-84l5 -5q43 35 137 77t170 57q18 4 24.5 -1.5t10.5 -23.5l8 -86q6 -37 -27 -41 q-84 -16 -187.5 -47t-140.5 -51v-723q0 -35 -34 -35h-88q-33 0 -33 35z" />
<glyph unicode="&#x15a;" horiz-adv-x="1077" d="M100 84l15 57q6 23 35 21q229 -29 364 -29q152 0 231.5 57.5t79.5 161.5q0 137 -57 189.5t-227 81.5q-86 14 -141.5 27.5t-118 40t-97 62t-58.5 95t-24 137.5q0 186 114 285.5t325 99.5q238 0 366 -53q35 -12 27 -45l-12 -55q-8 -27 -39 -25q-211 29 -342 29 q-154 0 -216.5 -58.5t-62.5 -171t58.5 -150.5t232.5 -69q84 -14 137 -27.5t114.5 -42t96.5 -67.5t58.5 -104.5t23.5 -153.5q0 -209 -129 -302t-338 -93q-94 0 -210 15t-179 42q-33 14 -27 45zM408 1493q-12 12 8 27l262 194q14 12 33 -10l65 -80q14 -18 -10 -31l-285 -153 q-16 -8 -30 6z" />
<glyph unicode="&#x15b;" horiz-adv-x="892" d="M90 74l8 43q4 31 45 26q184 -23 289 -22q113 0 164 36t51 113q0 90 -39 122t-162 50q-84 12 -137 27.5t-108.5 45.5t-83 82t-27.5 128q0 141 95.5 217t263.5 76q197 0 307 -45q29 -14 20 -43l-8 -49q-4 -27 -53 -23q-211 20 -269 21q-113 0 -154.5 -34t-41.5 -116 q0 -74 40 -97.5t171 -43.5q84 -12 134 -26.5t105.5 -46.5t82 -88t26.5 -140q0 -158 -108.5 -230.5t-274.5 -72.5q-211 0 -313 47q-27 12 -23 43zM391 1161l144 293q8 18 34 6l95 -41q23 -10 6 -30l-183 -271q-10 -14 -30 -6l-60 21q-16 5 -6 28z" />
<glyph unicode="&#x15c;" horiz-adv-x="1077" d="M100 84l15 57q6 23 35 21q229 -29 364 -29q152 0 231.5 57.5t79.5 161.5q0 137 -57 189.5t-227 81.5q-86 14 -141.5 27.5t-118 40t-97 62t-58.5 95t-24 137.5q0 186 114 285.5t325 99.5q238 0 366 -53q35 -12 27 -45l-12 -55q-8 -27 -39 -25q-211 29 -342 29 q-154 0 -216.5 -58.5t-62.5 -171t58.5 -150.5t232.5 -69q84 -14 137 -27.5t114.5 -42t96.5 -67.5t58.5 -104.5t23.5 -153.5q0 -209 -129 -302t-338 -93q-94 0 -210 15t-179 42q-33 14 -27 45zM205 1473q-12 12 0 26l211 199q29 23 55 22h96q37 0 60 -20l204 -193 q20 -18 3 -32l-39 -37q-16 -12 -33 -2l-244 172l-237 -174q-23 -14 -37 -2z" />
<glyph unicode="&#x15d;" horiz-adv-x="892" d="M90 74l8 43q4 31 45 26q184 -23 289 -22q113 0 164 36t51 113q0 90 -39 122t-162 50q-84 12 -137 27.5t-108.5 45.5t-83 82t-27.5 128q0 141 95.5 217t263.5 76q197 0 307 -45q29 -14 20 -43l-8 -49q-4 -27 -53 -23q-211 20 -269 21q-113 0 -154.5 -34t-41.5 -116 q0 -74 40 -97.5t171 -43.5q84 -12 134 -26.5t105.5 -46.5t82 -88t26.5 -140q0 -158 -108.5 -230.5t-274.5 -72.5q-211 0 -313 47q-27 12 -23 43zM152 1147q-14 10 0 27l192 243q14 23 55 23h97q45 0 59 -21l188 -243q16 -20 2 -33l-43 -33q-20 -16 -32 -2l-224 219 l-215 -215q-16 -18 -36 -2z" />
<glyph unicode="&#x15e;" horiz-adv-x="1077" d="M100 84l15 57q6 23 35 21q229 -29 364 -29q152 0 231.5 57.5t79.5 161.5q0 137 -57 189.5t-227 81.5q-86 14 -141.5 27.5t-118 40t-97 62t-58.5 95t-24 137.5q0 186 114 285.5t325 99.5q238 0 366 -53q35 -12 27 -45l-12 -55q-8 -27 -39 -25q-211 29 -342 29 q-154 0 -216.5 -58.5t-62.5 -171t58.5 -150.5t232.5 -69q84 -14 137 -27.5t114.5 -42t96.5 -67.5t58.5 -104.5t23.5 -153.5q0 -205 -124 -298t-329 -97l-26 -72q186 -4 186 -135q0 -160 -213 -160q-82 0 -143 20q-18 8 -15 23l11 39q4 12 22 10q61 -10 117 -10q51 0 80 14.5 t29 59.5q0 37 -27 50t-105 17q-43 4 -26 45l35 101q-211 8 -328 55q-33 14 -27 45z" />
<glyph unicode="&#x15f;" horiz-adv-x="892" d="M90 74l8 43q4 31 45 26q184 -23 289 -22q113 0 164 36t51 113q0 90 -39 122t-162 50q-84 12 -137 27.5t-108.5 45.5t-83 82t-27.5 128q0 141 95.5 217t263.5 76q197 0 307 -45q29 -14 20 -43l-8 -49q-4 -27 -53 -23q-211 20 -269 21q-113 0 -154.5 -34t-41.5 -116 q0 -74 40 -97.5t171 -43.5q84 -12 134 -26.5t105.5 -46.5t82 -88t26.5 -140q0 -150 -99.5 -222.5t-252.5 -78.5l-27 -76q186 -4 186 -135q0 -160 -213 -160q-82 0 -143 20q-18 8 -14 23l10 39q4 12 23 10q61 -10 116 -10q51 0 80 14.5t29 59.5q0 37 -26.5 50t-104.5 17 q-43 4 -27 45l35 101q-184 8 -268 47q-27 12 -23 43z" />
<glyph unicode="&#x160;" horiz-adv-x="1077" d="M100 84l15 57q6 23 35 21q229 -29 364 -29q152 0 231.5 57.5t79.5 161.5q0 137 -57 189.5t-227 81.5q-86 14 -141.5 27.5t-118 40t-97 62t-58.5 95t-24 137.5q0 186 114 285.5t325 99.5q238 0 366 -53q35 -12 27 -45l-12 -55q-8 -27 -39 -25q-211 29 -342 29 q-154 0 -216.5 -58.5t-62.5 -171t58.5 -150.5t232.5 -69q84 -14 137 -27.5t114.5 -42t96.5 -67.5t58.5 -104.5t23.5 -153.5q0 -209 -129 -302t-338 -93q-94 0 -210 15t-179 42q-33 14 -27 45zM217 1686l41 36q16 12 33 2l248 -172l237 168q23 14 37 2l39 -34q12 -12 0 -27 l-211 -199q-27 -23 -55 -22h-97q-35 0 -59 20l-211 193q-16 21 -2 33z" />
<glyph unicode="&#x161;" horiz-adv-x="892" d="M90 74l8 43q4 31 45 26q184 -23 289 -22q113 0 164 36t51 113q0 90 -39 122t-162 50q-84 12 -137 27.5t-108.5 45.5t-83 82t-27.5 128q0 141 95.5 217t263.5 76q197 0 307 -45q29 -14 20 -43l-8 -49q-4 -27 -53 -23q-211 20 -269 21q-113 0 -154.5 -34t-41.5 -116 q0 -74 40 -97.5t171 -43.5q84 -12 134 -26.5t105.5 -46.5t82 -88t26.5 -140q0 -158 -108.5 -230.5t-274.5 -72.5q-211 0 -313 47q-27 12 -23 43zM158 1362q-14 16 0 27l43 36q20 16 37 -2l215 -215l223 219q12 14 33 -2l43 -32q14 -12 -2 -33l-189 -244q-14 -20 -59 -20h-96 q-41 0 -56 22z" />
<glyph unicode="&#x162;" horiz-adv-x="985" d="M35 1245v80q0 33 35 33h848q35 0 34 -33v-80q0 -35 -37 -35h-344v-1175q0 -35 -32 -35h-88q-37 0 -37 35v1175h-342q-37 0 -37 35zM373 -512q-8 10 8 27q68 59 68 145q0 57 -52 119q-16 20 9 43l77 55q25 20 52 -2q59 -53 59 -125q0 -184 -160 -285q-23 -16 -33 -6z" />
<glyph unicode="&#x163;" horiz-adv-x="661" d="M49 903v58q0 37 35 36h115v222q0 29 34 38l82 23q35 10 35 -31v-252h228q35 0 34 -34v-60q0 -35 -34 -35h-228v-620q0 -74 28 -97.5t118 -23.5q4 0 118 8q25 2 34 -3t11 -21l9 -48q2 -27 -19 -38q-76 -41 -231 -41q-125 0 -173 55t-48 162v667h-113q-35 0 -35 35z M229 -512q-8 10 9 27q68 59 67 145q0 57 -51 119q-16 20 8 43l78 55q25 20 51 -2q59 -53 60 -125q0 -184 -160 -285q-23 -16 -33 -6z" />
<glyph unicode="&#x164;" horiz-adv-x="985" d="M35 1245v80q0 33 35 33h848q35 0 34 -33v-80q0 -35 -37 -35h-344v-1175q0 -35 -32 -35h-88q-37 0 -37 35v1175h-342q-37 0 -37 35zM172 1686l41 36q16 12 33 2l248 -172l237 168q23 14 37 2l39 -34q12 -12 0 -27l-211 -199q-27 -23 -55 -22h-97q-35 0 -59 20l-211 193 q-16 21 -2 33z" />
<glyph unicode="&#x165;" horiz-adv-x="667" d="M49 903v58q0 37 35 36h115v222q0 29 34 38l82 23q35 10 35 -31v-252h228q35 0 34 -34v-60q0 -35 -34 -35h-228v-620q0 -74 28 -97.5t118 -23.5q4 0 118 8q25 2 34 -3t11 -21l9 -48q2 -27 -19 -38q-76 -41 -231 -41q-125 0 -173 55t-48 162v667h-113q-35 0 -35 35z M442 1145q-8 10 9 26q68 59 67 146q0 57 -51 119q-16 20 8 43l78 55q25 20 51 -2q59 -53 60 -125q0 -184 -160 -285q-23 -16 -33 -6z" />
<glyph unicode="&#x166;" horiz-adv-x="985" d="M35 1245v80q0 33 35 33h848q35 0 34 -33v-80q0 -35 -37 -35h-344v-393h289q31 0 31 -31v-57q0 -29 -29 -29h-291v-665q0 -35 -32 -35h-88q-37 0 -37 35v665h-285q-29 0 -29 29v57q0 31 31 31h283v393h-342q-37 0 -37 35z" />
<glyph unicode="&#x167;" horiz-adv-x="661" d="M49 903v58q0 37 35 36h115v222q0 29 34 38l82 23q35 10 35 -31v-252h228q35 0 34 -34v-60q0 -35 -34 -35h-228v-219h199q31 0 31 -31v-57q0 -29 -29 -29h-201v-284q0 -74 28 -97.5t118 -23.5q4 0 118 8q25 2 34 -3t11 -21l9 -48q2 -27 -19 -38q-76 -41 -231 -41 q-125 0 -173 55t-48 162v331h-109q-29 0 -29 29v57q0 31 31 31h107v219h-113q-35 0 -35 35z" />
<glyph unicode="&#x168;" horiz-adv-x="1243" d="M141 492v829q0 37 35 37h90q35 0 35 -37v-836q0 -172 81 -263t241 -91q326 0 325 354v836q0 37 37 37h88q33 0 33 -37l-2 -829q0 -147 -35 -240q-109 -266 -446 -266q-346 0 -443 262q-39 101 -39 244zM291 1507q33 88 86 128t108.5 40t162 -53t143.5 -53q57 0 100 76 q14 23 35 14l43 -14q16 -6 10 -33q-55 -176 -188 -176q-47 0 -159 54t-151 54q-59 0 -106 -78q-10 -20 -35 -8l-41 17q-18 5 -8 32z" />
<glyph unicode="&#x169;" horiz-adv-x="1048" d="M115 358v605q0 35 35 34h88q33 0 32 -34v-607q0 -139 36 -187t132 -48q115 0 344 119v723q0 35 35 34h84q35 0 35 -34v-928q0 -35 -35 -35h-84q-37 0 -37 35v71l-4 5q-207 -131 -360 -131q-96 0 -158.5 26.5t-92.5 81.5t-40 116.5t-10 153.5zM188 1200q33 88 86.5 128 t108.5 40t161.5 -53t143.5 -53q57 0 100 75q14 23 35 15l43 -15q16 -6 11 -32q-55 -176 -189 -177q-47 0 -158.5 54.5t-150.5 54.5q-59 0 -107 -78q-10 -20 -34 -8l-41 16q-19 6 -9 33z" />
<glyph unicode="&#x16a;" horiz-adv-x="1243" d="M141 492v829q0 37 35 37h90q35 0 35 -37v-836q0 -172 81 -263t241 -91q326 0 325 354v836q0 37 37 37h88q33 0 33 -37l-2 -829q0 -147 -35 -240q-109 -266 -446 -266q-346 0 -443 262q-39 101 -39 244zM346 1509v78q0 27 29 27h516q29 0 29 -27v-78q0 -25 -29 -24h-516 q-29 -1 -29 24z" />
<glyph unicode="&#x16b;" horiz-adv-x="1048" d="M115 358v605q0 35 35 34h88q33 0 32 -34v-607q0 -139 36 -187t132 -48q115 0 344 119v723q0 35 35 34h84q35 0 35 -34v-928q0 -35 -35 -35h-84q-37 0 -37 35v71l-4 5q-207 -131 -360 -131q-96 0 -158.5 26.5t-92.5 81.5t-40 116.5t-10 153.5zM242 1198v78q0 27 28 27h516 q29 0 29 -27v-78q0 -25 -29 -24h-516q-28 -1 -28 24z" />
<glyph unicode="&#x16c;" horiz-adv-x="1243" d="M141 492v829q0 37 35 37h90q35 0 35 -37v-836q0 -172 81 -263t241 -91q326 0 325 354v836q0 37 37 37h88q33 0 33 -37l-2 -829q0 -147 -35 -240q-109 -266 -446 -266q-346 0 -443 262q-39 101 -39 244zM336 1651l43 32q16 12 35 -6q66 -78 112.5 -108.5t116.5 -30.5 q45 0 85 20.5t56.5 37t75.5 81.5q18 18 35 6l43 -28q12 -8 -6 -53q-45 -94 -124 -143.5t-169 -49.5q-205 0 -297 188q-16 44 -6 54z" />
<glyph unicode="&#x16d;" horiz-adv-x="1048" d="M115 358v605q0 35 35 34h88q33 0 32 -34v-607q0 -139 36 -187t132 -48q115 0 344 119v723q0 35 35 34h84q35 0 35 -34v-928q0 -35 -35 -35h-84q-37 0 -37 35v71l-4 5q-207 -131 -360 -131q-96 0 -158.5 26.5t-92.5 81.5t-40 116.5t-10 153.5zM223 1343l43 33q16 12 35 -6 q66 -78 113 -108.5t116 -30.5q45 0 85 20.5t56.5 37t76.5 81.5q18 18 34 6l43 -28q12 -8 -6 -54q-45 -94 -124 -143t-169 -49q-205 0 -297 188q-16 43 -6 53z" />
<glyph unicode="&#x16e;" horiz-adv-x="1243" d="M141 492v829q0 37 35 37h90q35 0 35 -37v-836q0 -172 81 -263t241 -91q326 0 325 354v836q0 37 37 37h88q33 0 33 -37l-2 -829q0 -147 -35 -240q-109 -266 -446 -266q-346 0 -443 262q-39 101 -39 244zM438 1593q0 84 61.5 141.5t143.5 57.5q84 0 142.5 -59.5 t58.5 -139.5t-58.5 -139t-142.5 -59q-82 0 -143.5 57t-61.5 141zM545 1593q0 -45 27.5 -74.5t70.5 -29.5t71.5 29.5t28.5 74.5q0 41 -29.5 73t-70.5 32q-39 0 -68.5 -32t-29.5 -73z" />
<glyph unicode="&#x16f;" horiz-adv-x="1048" d="M115 358v605q0 35 35 34h88q33 0 32 -34v-607q0 -139 36 -187t132 -48q115 0 344 119v723q0 35 35 34h84q35 0 35 -34v-928q0 -35 -35 -35h-84q-37 0 -37 35v71l-4 5q-207 -131 -360 -131q-96 0 -158.5 26.5t-92.5 81.5t-40 116.5t-10 153.5zM326 1262q0 84 61.5 141 t142.5 57q84 0 142.5 -59.5t58.5 -139t-58.5 -139t-142.5 -59.5q-82 0 -143 57.5t-61 141.5zM432 1262q0 -45 27.5 -75t70.5 -30t72 30t29 75q0 41 -30 72.5t-71 31.5q-39 0 -68.5 -31.5t-29.5 -72.5z" />
<glyph unicode="&#x170;" horiz-adv-x="1243" d="M141 492v829q0 37 35 37h90q35 0 35 -37v-836q0 -172 81 -263t241 -91q326 0 325 354v836q0 37 37 37h88q33 0 33 -37l-2 -829q0 -147 -35 -240q-109 -266 -446 -266q-346 0 -443 262q-39 101 -39 244zM346 1493q-12 12 8 27l262 194q14 12 33 -10l66 -80q14 -18 -10 -31 l-285 -153q-16 -8 -31 6zM655 1493q-12 12 9 27l262 194q14 12 32 -10l66 -80q14 -18 -10 -31l-285 -153q-16 -8 -31 6z" />
<glyph unicode="&#x171;" horiz-adv-x="1048" d="M115 358v605q0 35 35 34h88q33 0 32 -34v-607q0 -139 36 -187t132 -48q115 0 344 119v723q0 35 35 34h84q35 0 35 -34v-928q0 -35 -35 -35h-84q-37 0 -37 35v71l-4 5q-207 -131 -360 -131q-96 0 -158.5 26.5t-92.5 81.5t-40 116.5t-10 153.5zM344 1161l141 293 q10 18 35 6l96 -41q16 -8 7 -30l-185 -271q-8 -14 -28 -6l-60 21q-18 5 -6 28zM602 1161l141 293q10 18 35 6l96 -41q16 -8 7 -30l-185 -271q-8 -14 -28 -6l-60 21q-18 5 -6 28z" />
<glyph unicode="&#x172;" horiz-adv-x="1243" d="M141 492v829q0 37 35 37h90q35 0 35 -37v-836q0 -172 81 -263t241 -91q326 0 325 354v836q0 37 37 37h88q33 0 33 -37l-2 -829q0 -147 -35 -240q-100 -244 -395 -264q-80 -102 -80 -191q0 -125 217 -71q16 4 20 -9l17 -49q4 -14 -14 -22q-66 -33 -140 -37 q-109 -6 -167 41t-58 131q0 104 96 207q-299 18 -385 260q-39 101 -39 244z" />
<glyph unicode="&#x173;" horiz-adv-x="1048" d="M115 358v605q0 35 35 34h88q33 0 32 -34v-607q0 -139 36 -187t132 -48q115 0 344 119v723q0 35 35 34h84q35 0 35 -34v-928q0 -23 -12 -31q-94 -109 -95 -207q0 -125 218 -71q16 4 20 -9l16 -49q4 -14 -14 -22q-66 -33 -139 -37q-109 -6 -167 41t-58 131q0 113 108 219 q-33 0 -33 35v71l-4 5q-207 -131 -360 -131q-96 0 -158.5 26.5t-92.5 81.5t-40 116.5t-10 153.5z" />
<glyph unicode="&#x174;" horiz-adv-x="1669" d="M41 1327q-6 31 20 31h107q29 0 37 -29q223 -774 252 -874l59 -209h4l58 200q45 180 176 623l-74 256q-10 33 18 33h107q31 0 39 -29q223 -774 252 -874l57 -209h6l53 200l250 883q8 29 39 29h103q27 0 16 -37l-375 -1290q-8 -31 -39 -31h-106q-33 0 -41 29l-193 659 l-32 117l-5 -2l-32 -121l-191 -653q-8 -29 -37 -29h-112q-29 0 -35 29zM500 1473q-12 12 0 26l211 199q29 23 55 22h96q37 0 60 -20l204 -193q20 -18 2 -32l-38 -37q-16 -12 -33 -2l-244 172l-238 -174q-23 -14 -36 -2z" />
<glyph unicode="&#x175;" horiz-adv-x="1409" d="M39 965q-12 33 16 32h111q25 0 35 -28q20 -68 71.5 -227.5t77.5 -245.5l90 -289h4l93 282q14 45 45.5 138.5t48.5 142.5l-58 195q-8 33 17 32h108q27 0 33 -28l148 -459q2 -10 38.5 -128t55.5 -179h4l100 332l135 436q8 27 31 26h113q25 0 14 -30l-313 -940 q-8 -27 -35 -27h-90q-27 0 -35 24.5t-47 139.5t-59 178q-12 39 -40 121t-42 125h-4l-80 -244l-105 -317q-8 -27 -33 -27h-90q-25 0 -35 25zM387 1147q-14 10 0 27l193 243q14 23 55 23h96q45 0 60 -21l188 -243q16 -20 2 -33l-43 -33q-20 -16 -33 -2l-223 219l-215 -215 q-16 -18 -37 -2z" />
<glyph unicode="&#x176;" horiz-adv-x="1038" d="M35 1329q-4 10 0 18.5t16 8.5h121q27 0 39 -25l190 -358l113 -211h12l121 219l191 350q14 25 43 25h106q33 0 19 -31l-408 -719v-571q0 -35 -33 -35h-86q-37 0 -37 35v571zM209 1473q-12 12 0 26l211 199q29 23 55 22h96q37 0 60 -20l205 -193q20 -18 2 -32l-39 -37 q-16 -12 -33 -2l-244 172l-237 -174q-23 -14 -37 -2z" />
<glyph unicode="&#x177;" horiz-adv-x="954" d="M51 965q-12 33 17 32h108q23 0 33 -28l168 -469l110 -314l115 328l156 457q8 27 33 26h110q25 0 14 -30l-469 -1299q-10 -29 -40 -28h-95q-29 0 -18 32l119 328zM188 1147q-14 10 0 27l193 243q14 23 55 23h96q45 0 60 -21l188 -243q16 -20 2 -33l-43 -33q-20 -16 -32 -2 l-224 219l-215 -215q-16 -18 -37 -2z" />
<glyph unicode="&#x178;" horiz-adv-x="1038" d="M35 1329q-4 10 0 18.5t16 8.5h121q27 0 39 -25l190 -358l113 -211h12l121 219l191 350q14 25 43 25h106q33 0 19 -31l-408 -719v-571q0 -35 -33 -35h-86q-37 0 -37 35v571zM256 1552q0 84 84 84q49 0 66.5 -20.5t17.5 -63.5t-17.5 -65.5t-66.5 -22.5q-51 0 -67.5 22.5 t-16.5 65.5zM608 1552q0 84 84 84q49 0 66.5 -20.5t17.5 -63.5t-17.5 -65.5t-66.5 -22.5q-51 0 -67.5 22.5t-16.5 65.5z" />
<glyph unicode="&#x179;" horiz-adv-x="999" d="M74 33v71q0 35 16 62l651 1044h-591q-35 0 -35 35v80q0 33 32 33h744q33 0 33 -29v-82q0 -27 -17 -53l-645 -1049h633q35 0 35 -32v-78q0 -35 -33 -35h-791q-32 0 -32 33zM371 1493q-12 12 8 27l262 194q14 12 33 -10l65 -80q14 -18 -10 -31l-285 -153q-16 -8 -30 6z" />
<glyph unicode="&#x17a;" horiz-adv-x="886" d="M68 29v59q0 35 18 59l541 711h-496q-35 0 -35 35v74q0 31 35 30h637q37 0 37 -28v-74q0 -33 -21 -57l-522 -693h514q37 0 37 -32v-78q0 -35 -35 -35h-680q-30 0 -30 29zM369 1161l143 293q8 18 35 6l94 -41q23 -10 6 -30l-182 -271q-10 -14 -31 -6l-59 21q-16 5 -6 28z " />
<glyph unicode="&#x17b;" horiz-adv-x="999" d="M74 33v71q0 35 16 62l651 1044h-591q-35 0 -35 35v80q0 33 32 33h744q33 0 33 -29v-82q0 -27 -17 -53l-645 -1049h633q35 0 35 -32v-78q0 -35 -33 -35h-791q-32 0 -32 33zM461 1569q0 84 86 84q49 0 66.5 -21.5t17.5 -62.5q0 -90 -84 -90q-51 0 -68.5 23.5t-17.5 66.5z " />
<glyph unicode="&#x17c;" horiz-adv-x="886" d="M68 29v59q0 35 18 59l541 711h-496q-35 0 -35 35v74q0 31 35 30h637q37 0 37 -28v-74q0 -33 -21 -57l-522 -693h514q37 0 37 -32v-78q0 -35 -35 -35h-680q-30 0 -30 29zM387 1249q0 84 86 84q49 0 66.5 -21.5t17.5 -62.5q0 -90 -84 -90q-51 0 -68.5 23.5t-17.5 66.5z" />
<glyph unicode="&#x17d;" horiz-adv-x="999" d="M74 33v71q0 35 16 62l651 1044h-591q-35 0 -35 35v80q0 33 32 33h744q33 0 33 -29v-82q0 -27 -17 -53l-645 -1049h633q35 0 35 -32v-78q0 -35 -33 -35h-791q-32 0 -32 33zM217 1686l41 36q16 12 33 2l248 -172l237 168q23 14 37 2l39 -34q12 -12 0 -27l-211 -199 q-27 -23 -55 -22h-97q-35 0 -59 20l-211 193q-16 21 -2 33z" />
<glyph unicode="&#x17e;" horiz-adv-x="886" d="M68 29v59q0 35 18 59l541 711h-496q-35 0 -35 35v74q0 31 35 30h637q37 0 37 -28v-74q0 -33 -21 -57l-522 -693h514q37 0 37 -32v-78q0 -35 -35 -35h-680q-30 0 -30 29zM158 1362q-14 16 0 27l43 36q20 16 37 -2l215 -215l223 219q12 14 33 -2l43 -32q14 -12 -2 -33 l-189 -244q-14 -20 -59 -20h-96q-41 0 -56 22z" />
<glyph unicode="&#x192;" d="M92 -82l10 41q10 31 50 25q49 -8 102 -9q86 0 116.5 55.5t51.5 186.5l76 471h-146q-37 0 -37 35v61q0 39 33 39h166l39 230q8 51 15 82.5t30 85t52.5 85t86 56t127.5 24.5q100 0 172 -32q18 -12 8 -39l-12 -45q-12 -31 -51 -25q-82 10 -98 10q-51 0 -83 -13t-50.5 -49 t-26.5 -66.5t-18 -96.5l-33 -207h168q39 0 39 -32v-68q0 -20 -7.5 -27.5t-27.5 -7.5h-193l-86 -549q-18 -117 -85.5 -205t-198.5 -88q-106 0 -179 33q-20 10 -10 39z" />
<glyph unicode="&#x1a0;" horiz-adv-x="1306" d="M127 698q0 676 522 676q207 0 334 -94q82 2 120 44t38 151v67q0 29 30 29h72q29 0 29 -29v-72q0 -250 -189 -303q96 -158 97 -469q0 -115 -8.5 -200.5t-40 -189t-86 -170t-157 -111.5t-241.5 -45q-100 0 -180 23.5t-133 61t-92 96t-60.5 117t-35 136.5t-16.5 140t-3 142z M291 678q0 -272 76.5 -412.5t279.5 -140.5q211 0 292 137t81 416q0 283 -82 420t-291 137q-195 0 -275.5 -141.5t-80.5 -415.5z" />
<glyph unicode="&#x1a1;" horiz-adv-x="1114" d="M94 516q0 502 414 502q197 0 299 -92q82 2 121 44t39 150v68q0 29 30 29h72q29 0 29 -29v-72q0 -264 -209 -307q47 -113 47 -293q0 -72 -4 -124t-17.5 -119.5t-42 -113.5t-73.5 -89t-119 -64.5t-172 -21.5q-113 0 -192.5 33.5t-121.5 81.5t-66 127t-29 140.5t-5 149.5z M252 501.5q0 -200.5 52 -287.5t204 -87q160 0 214 85t54 290q0 203 -54 289t-214 86q-152 0 -204 -87.5t-52 -288z" />
<glyph unicode="&#x1af;" horiz-adv-x="1310" d="M141 492v829q0 37 35 37h90q35 0 35 -37v-836q0 -172 81 -263t241 -91q326 0 325 354v836q0 37 37 37h88q33 0 33 -37v-41h4q88 0 128 42t40 153v67q0 29 31 29h71q29 0 29 -29v-72q0 -315 -295 -315h-8l-2 -663q0 -147 -35 -240q-109 -266 -446 -266q-346 0 -443 262 q-39 101 -39 244z" />
<glyph unicode="&#x1b0;" horiz-adv-x="1181" d="M115 358v605q0 35 35 34h88q33 0 32 -34v-607q0 -139 36 -187t132 -48q115 0 344 119v723q0 35 35 34h84q35 0 35 -34v-35q66 8 96.5 52t30.5 140v68q0 29 31 29h71q29 0 29 -29v-72q0 -295 -258 -315v-766q0 -35 -35 -35h-84q-37 0 -37 35v71l-4 5q-207 -131 -360 -131 q-96 0 -158.5 26.5t-92.5 81.5t-40 116.5t-10 153.5z" />
<glyph unicode="&#x1fc;" horiz-adv-x="1802" d="M25 29l796 1298q16 31 49 31h793q35 0 35 -33v-80q0 -35 -37 -35h-582v-432h523q35 0 34 -33v-79q0 -33 -34 -33h-523v-488h598q33 0 33 -34v-78q0 -33 -35 -33h-719q-25 0 -30.5 5t-5.5 22v335h-504l-203 -329q-23 -33 -55 -33h-117q-32 0 -16 29zM506 508h414v694h-7z M1090 1493q-12 12 8 27l262 194q14 12 33 -10l65 -80q14 -18 -10 -31l-285 -153q-16 -8 -30 6z" />
<glyph unicode="&#x1fd;" horiz-adv-x="1634" d="M90 266q0 160 90 237t291 77h283v100q0 113 -52.5 156t-187.5 43q-133 0 -289 -19q-39 -6 -41 19l-12 53q-4 31 33 45q117 41 340 41q242 0 317 -115q109 115 312 115q102 0 177.5 -26.5t121 -67.5t74 -102.5t38.5 -121t14 -135.5q4 -117 -90 -116h-587q4 -188 56 -256 t202 -68q90 0 305 25q41 4 47 -27l8 -45q6 -29 -22 -41q-55 -23 -160 -39t-184 -16q-256 0 -351 155q-23 -20 -65 -45q-190 -109 -391 -108q-145 0 -211 70.5t-66 211.5zM248 272q0 -84 33.5 -115.5t124.5 -31.5q133 0 370 131q-23 86 -22 193h-301q-100 0 -152.5 -40.5 t-52.5 -136.5zM848 1161l143 293q8 18 35 6l94 -41q23 -10 6 -30l-182 -271q-10 -14 -31 -6l-59 21q-16 5 -6 28zM922 578h505q-4 66 -13 109.5t-33.5 92.5t-77 74t-132.5 25q-141 0 -190 -72.5t-59 -228.5z" />
<glyph unicode="&#x1fe;" horiz-adv-x="1306" d="M127 698q0 676 522 676q236 0 367 -121l74 101q18 27 34 14l47 -33q20 -12 5 -32l-95 -129q98 -160 99 -476q0 -115 -8.5 -200.5t-40 -189t-86 -170t-157 -111.5t-241.5 -45q-231 0 -354 118l-66 -88q-18 -29 -34 -14l-48 33q-18 12 -2 32l86 117q-102 164 -102 518z M291 678q0 -225 47 -350l582 794q-88 113 -273 113q-195 0 -275.5 -141.5t-80.5 -415.5zM389 233q86 -109 258 -108q211 0 292 137t81 416q0 219 -47 348zM537 1493q-12 12 8 27l262 194q14 12 33 -10l65 -80q14 -18 -10 -31l-285 -153q-16 -8 -30 6z" />
<glyph unicode="&#x1ff;" horiz-adv-x="1030" d="M94 516q0 502 414 502q176 0 278 -76l62 84q18 29 35 16l45 -32q20 -14 4 -35l-76 -105q80 -117 80 -354q0 -72 -4 -124t-17.5 -119.5t-42 -113.5t-73.5 -89t-119 -64.5t-172 -21.5q-158 0 -252 61l-47 -63q-16 -27 -35 -15l-45 31q-18 12 -2 35l57 78q-90 114 -90 405z M252 502q0 -170 33 -252l411 569q-63 57 -188 58q-152 0 -204 -87t-52 -288zM346 170q55 -43 162 -43q160 0 214 85t54 290q0 145 -24 225zM467 1161l143 293q8 18 35 6l94 -41q23 -10 6 -30l-182 -271q-10 -14 -31 -6l-59 21q-16 5 -6 28z" />
<glyph unicode="&#x218;" horiz-adv-x="1077" d="M100 84l15 57q6 23 35 21q229 -29 364 -29q152 0 231.5 57.5t79.5 161.5q0 137 -57 189.5t-227 81.5q-86 14 -141.5 27.5t-118 40t-97 62t-58.5 95t-24 137.5q0 186 114 285.5t325 99.5q238 0 366 -53q35 -12 27 -45l-12 -55q-8 -27 -39 -25q-211 29 -342 29 q-154 0 -216.5 -58.5t-62.5 -171t58.5 -150.5t232.5 -69q84 -14 137 -27.5t114.5 -42t96.5 -67.5t58.5 -104.5t23.5 -153.5q0 -209 -129 -302t-338 -93q-94 0 -210 15t-179 42q-33 14 -27 45zM434 -512q-8 10 8 27q68 59 68 145q0 57 -51 119q-16 20 8 43l78 55q25 20 51 -2 q59 -53 59 -125q0 -184 -159 -285q-23 -16 -33 -6z" />
<glyph unicode="&#x219;" horiz-adv-x="892" d="M90 74l8 43q4 31 45 26q184 -23 289 -22q113 0 164 36t51 113q0 90 -39 122t-162 50q-84 12 -137 27.5t-108.5 45.5t-83 82t-27.5 128q0 141 95.5 217t263.5 76q197 0 307 -45q29 -14 20 -43l-8 -49q-4 -27 -53 -23q-211 20 -269 21q-113 0 -154.5 -34t-41.5 -116 q0 -74 40 -97.5t171 -43.5q84 -12 134 -26.5t105.5 -46.5t82 -88t26.5 -140q0 -158 -108.5 -230.5t-274.5 -72.5q-211 0 -313 47q-27 12 -23 43zM344 -512q-8 10 8 27q68 59 68 145q0 57 -51 119q-16 20 8 43l78 55q25 20 51 -2q59 -53 59 -125q0 -184 -159 -285 q-23 -16 -33 -6z" />
<glyph unicode="&#x21a;" horiz-adv-x="985" d="M35 1245v80q0 33 35 33h848q35 0 34 -33v-80q0 -35 -37 -35h-344v-1175q0 -35 -32 -35h-88q-37 0 -37 35v1175h-342q-37 0 -37 35zM373 -512q-8 10 8 27q68 59 68 145q0 57 -52 119q-16 20 9 43l77 55q25 20 52 -2q59 -53 59 -125q0 -184 -160 -285q-23 -16 -33 -6z" />
<glyph unicode="&#x21b;" horiz-adv-x="661" d="M49 903v58q0 37 35 36h115v222q0 29 34 38l82 23q35 10 35 -31v-252h228q35 0 34 -34v-60q0 -35 -34 -35h-228v-620q0 -74 28 -97.5t118 -23.5q4 0 118 8q25 2 34 -3t11 -21l9 -48q2 -27 -19 -38q-76 -41 -231 -41q-125 0 -173 55t-48 162v667h-113q-35 0 -35 35z M229 -512q-8 10 9 27q68 59 67 145q0 57 -51 119q-16 20 8 43l78 55q25 20 51 -2q59 -53 60 -125q0 -184 -160 -285q-23 -16 -33 -6z" />
<glyph unicode="&#x259;" horiz-adv-x="1005" d="M84 434q-4 117 90 117h578q-2 184 -58.5 253.5t-201.5 69.5q-78 0 -293 -24q-41 -4 -47 27l-9 45q-6 29 23 41q55 25 155.5 40t180.5 15q109 0 186.5 -30t120.5 -75t67.5 -117.5t30.5 -138t6 -155.5t-15 -168t-55 -164t-130 -137t-224 -51q-102 0 -176.5 26.5 t-116.5 66.5t-67 104.5t-33 119.5t-12 135zM250 422q0 -66 7 -110t29.5 -93t73 -73.5t127.5 -24.5q137 0 195.5 75.5t69.5 225.5h-502z" />
<glyph unicode="&#x2b9;" horiz-adv-x="507" d="M78 905l254 496q12 27 39 14l94 -41q20 -8 6 -31l-299 -485q-10 -14 -31 -6l-57 25q-16 5 -6 28z" />
<glyph unicode="&#x2c6;" horiz-adv-x="1030" d="M213 1147q-14 10 0 27l193 243q14 23 55 23h96q45 0 59 -21l189 -243q16 -20 2 -33l-43 -33q-20 -16 -33 -2l-223 219l-215 -215q-16 -18 -37 -2z" />
<glyph unicode="&#x2c7;" horiz-adv-x="886" d="M158 1362q-14 16 0 27l43 36q20 16 37 -2l215 -215l223 219q12 14 33 -2l43 -32q14 -12 -2 -33l-189 -244q-14 -20 -59 -20h-96q-41 0 -56 22z" />
<glyph unicode="&#x2d8;" horiz-adv-x="1046" d="M252 1343l43 33q16 12 35 -6q66 -78 112.5 -108.5t116.5 -30.5q45 0 85 20.5t56.5 37t75.5 81.5q18 18 35 6l43 -28q12 -8 -6 -54q-45 -94 -124 -143t-169 -49q-205 0 -297 188q-16 43 -6 53z" />
<glyph unicode="&#x2d9;" horiz-adv-x="688" d="M262 1249q0 84 86 84q49 0 66.5 -21.5t17.5 -62.5q0 -90 -84 -90q-51 0 -68.5 23.5t-17.5 66.5z" />
<glyph unicode="&#x2da;" horiz-adv-x="1019" d="M358 1262q0 84 61.5 141t143.5 57q84 0 142.5 -59.5t58.5 -139t-58.5 -139t-142.5 -59.5q-82 0 -143.5 57.5t-61.5 141.5zM465 1262q0 -45 27.5 -75t70.5 -30t72 30t29 75q0 41 -30 72.5t-71 31.5q-39 0 -68.5 -31.5t-29.5 -72.5z" />
<glyph unicode="&#x2db;" horiz-adv-x="1019" d="M395 -219q0 119 123 231h100v-4q-98 -115 -98 -211q0 -125 217 -71q16 4 21 -9l16 -49q4 -14 -14 -22q-66 -33 -139 -37q-109 -6 -167.5 41t-58.5 131z" />
<glyph unicode="&#x2dc;" horiz-adv-x="1034" d="M168 1200q33 88 86 128t108.5 40t162 -53t143.5 -53q57 0 100 75q14 23 35 15l43 -15q16 -6 10 -32q-55 -176 -188 -177q-47 0 -159 54.5t-151 54.5q-59 0 -106 -78q-10 -20 -35 -8l-41 16q-18 6 -8 33z" />
<glyph unicode="&#x2dd;" horiz-adv-x="1030" d="M317 1161l142 293q10 18 35 6l96 -41q16 -8 6 -30l-184 -271q-8 -14 -29 -6l-59 21q-19 5 -7 28zM575 1161l142 293q10 18 35 6l96 -41q16 -8 6 -30l-184 -271q-8 -14 -29 -6l-59 21q-19 5 -7 28z" />
<glyph unicode="&#x384;" horiz-adv-x="1017" d="M444 1161l144 293q8 18 35 6l94 -41q23 -10 6 -30l-182 -271q-10 -14 -31 -6l-59 21q-17 5 -7 28z" />
<glyph unicode="&#x385;" horiz-adv-x="677" d="M25 1249q0 84 86 84q49 0 66.5 -21.5t17.5 -62.5q0 -90 -84 -90q-51 0 -68.5 23.5t-17.5 66.5zM229 1161l142 293q10 18 35 6l96 -41q16 -8 6 -30l-184 -271q-8 -14 -29 -6l-59 21q-19 5 -7 28zM514 1249q0 84 86 84q49 0 66.5 -21.5t17.5 -62.5q0 -90 -84 -90 q-51 0 -68.5 23.5t-17.5 66.5z" />
<glyph unicode="&#x386;" horiz-adv-x="1122" d="M-104 1059l143 293q8 18 35 6l94 -41q23 -10 6 -31l-182 -270q-10 -14 -31 -6l-59 20q-16 6 -6 29zM33 33l428 1292q8 31 39 31h114q29 0 39 -31l428 -1296q8 -29 -16 -29h-125q-27 0 -35 27l-100 335h-500l-106 -329q-10 -33 -43 -33h-107q-28 0 -16 33zM352 508h408 l-103 342l-98 332h-6l-96 -326z" />
<glyph unicode="&#x387;" horiz-adv-x="399" d="M106 807q0 94 93 94q55 0 74.5 -23.5t19.5 -70.5q0 -98 -94 -98q-55 0 -74 25.5t-19 72.5z" />
<glyph unicode="&#x388;" horiz-adv-x="1034" d="M-254 1059l143 293q8 18 35 6l94 -41q23 -10 7 -31l-183 -270q-10 -14 -30 -6l-60 20q-16 6 -6 29zM152 33v1290q0 35 36 35h707q35 0 35 -33v-80q0 -35 -37 -35h-582v-432h523q35 0 34 -33v-79q0 -33 -34 -33h-523v-488h598q33 0 33 -34v-78q0 -33 -35 -33h-719 q-36 0 -36 33z" />
<glyph unicode="&#x389;" horiz-adv-x="1220" d="M-266 1059l143 293q8 18 35 6l94 -41q23 -10 6 -31l-182 -270q-10 -14 -31 -6l-59 20q-16 6 -6 29zM150 35v1286q0 37 36 37h88q33 0 33 -37v-528h608v528q0 37 37 37h88q33 0 33 -37v-1286q0 -35 -33 -35h-88q-37 0 -37 35v610h-608v-610q0 -35 -33 -35h-88 q-36 0 -36 35z" />
<glyph unicode="&#x38a;" horiz-adv-x="520" d="M-211 1059l143 293q8 18 35 6l94 -41q23 -10 7 -31l-183 -270q-10 -14 -30 -6l-60 20q-16 6 -6 29zM176 35v1286q0 37 37 37h90q35 0 35 -37v-1286q0 -35 -35 -35h-90q-37 0 -37 35z" />
<glyph unicode="&#x38c;" horiz-adv-x="1310" d="M-172 1059l143 293q8 18 35 6l94 -41q23 -10 6 -31l-182 -270q-10 -14 -30 -6l-60 20q-16 6 -6 29zM127 698q0 676 522 676q135 0 234.5 -40t155 -101.5t88 -154.5t43 -180t10.5 -200q0 -115 -8.5 -200.5t-40 -189t-86 -170t-157 -111.5t-241.5 -45q-100 0 -180 23.5 t-133 61t-92 96t-60.5 117t-35 136.5t-16.5 140t-3 142zM291 678q0 -272 76.5 -412.5t279.5 -140.5q211 0 292 137t81 416q0 283 -82 420t-291 137q-195 0 -275.5 -141.5t-80.5 -415.5z" />
<glyph unicode="&#x38e;" horiz-adv-x="1038" d="M-305 1059l143 293q8 18 35 6l94 -41q23 -10 6 -31l-182 -270q-10 -14 -31 -6l-59 20q-16 6 -6 29zM35 1329q-4 10 0 18.5t16 8.5h121q27 0 39 -25l190 -358l113 -211h12l121 219l191 350q14 25 43 25h106q33 0 19 -31l-408 -719v-571q0 -35 -33 -35h-86q-37 0 -37 35 v571z" />
<glyph unicode="&#x38f;" horiz-adv-x="1335" d="M-158 1059l144 293q8 18 34 6l95 -41q23 -10 6 -31l-182 -270q-10 -14 -31 -6l-60 20q-16 6 -6 29zM82 35v78q0 33 35 32h176q-174 129 -174 560q0 98 14 187t52 179t98.5 155.5t159 106.5t225.5 41q547 0 546 -669q0 -412 -178 -560h168q37 0 37 -32v-78q0 -35 -35 -35 h-407q-33 0 -33 33v96q0 25 29 35q260 88 260 530q0 541 -385 541q-387 0 -387 -537q0 -451 245 -534q31 -10 31 -35v-96q0 -33 -35 -33h-409q-33 0 -33 35z" />
<glyph unicode="&#x390;" horiz-adv-x="456" d="M-90 1249q0 84 86 84q49 0 66.5 -21.5t17.5 -62.5q0 -90 -84 -90q-51 0 -68.5 23.5t-17.5 66.5zM115 1161l141 293q10 18 35 6l96 -41q16 -8 6 -30l-184 -271q-8 -14 -29 -6l-59 21q-18 5 -6 28zM152 35v928q0 35 36 34h84q33 0 33 -34v-928q0 -35 -33 -35h-84 q-36 0 -36 35zM399 1249q0 84 86 84q49 0 66.5 -21.5t17.5 -62.5q0 -90 -84 -90q-51 0 -68.5 23.5t-17.5 66.5z" />
<glyph unicode="&#x391;" horiz-adv-x="1122" d="M33 33l428 1292q8 31 39 31h114q29 0 39 -31l428 -1296q8 -29 -16 -29h-125q-27 0 -35 27l-100 335h-500l-106 -329q-10 -33 -43 -33h-107q-28 0 -16 33zM352 508h408l-103 342l-98 332h-6l-96 -326z" />
<glyph unicode="&#x392;" horiz-adv-x="1140" d="M147 35v1288q0 33 37 33h432q193 0 295.5 -94.5t102.5 -253.5q0 -84 -40 -167t-134 -128l2 -2q113 -35 163 -133.5t50 -204.5q0 -166 -107.5 -269.5t-263.5 -103.5h-494q-43 0 -43 35zM305 145h328q254 0 254 242q0 104 -64.5 175t-189.5 71h-328v-488zM305 776h322 q90 0 154.5 63.5t64.5 155.5q0 98 -62.5 157.5t-187.5 59.5h-291v-436z" />
<glyph unicode="&#x393;" horiz-adv-x="929" d="M156 35v1290q0 33 37 33h696q35 0 35 -33v-80q0 -35 -37 -35h-572v-1175q0 -35 -32 -35h-90q-37 0 -37 35z" />
<glyph unicode="&#x394;" horiz-adv-x="1122" d="M39 33l422 1292q10 31 45 31h98q25 0 34 -7.5t15 -25.5l428 -1294q8 -29 -16 -29h-1010q-28 0 -16 33zM233 145h639q-2 10 -51 166t-114.5 366t-100.5 329q-27 82 -47 172h-6q-12 -57 -49 -181q-14 -41 -136.5 -428t-134.5 -424z" />
<glyph unicode="&#x2206;" horiz-adv-x="1122" d="M39 33l422 1292q10 31 45 31h98q25 0 34 -7.5t15 -25.5l428 -1294q8 -29 -16 -29h-1010q-28 0 -16 33zM233 145h639q-2 10 -51 166t-114.5 366t-100.5 329q-27 82 -47 172h-6q-12 -57 -49 -181q-14 -41 -136.5 -428t-134.5 -424z" />
<glyph unicode="&#x395;" horiz-adv-x="1034" d="M152 33v1290q0 35 36 35h707q35 0 35 -33v-80q0 -35 -37 -35h-582v-432h523q35 0 34 -33v-79q0 -33 -34 -33h-523v-488h598q33 0 33 -34v-78q0 -33 -35 -33h-719q-36 0 -36 33z" />
<glyph unicode="&#x396;" horiz-adv-x="999" d="M74 33v71q0 35 16 62l651 1044h-591q-35 0 -35 35v80q0 33 32 33h744q33 0 33 -29v-82q0 -27 -17 -53l-645 -1049h633q35 0 35 -32v-78q0 -35 -33 -35h-791q-32 0 -32 33z" />
<glyph unicode="&#x397;" horiz-adv-x="1218" d="M147 35v1286q0 37 37 37h88q33 0 33 -37v-528h608v528q0 37 37 37h88q33 0 33 -37v-1286q0 -35 -33 -35h-88q-37 0 -37 35v610h-608v-610q0 -35 -33 -35h-88q-37 0 -37 35z" />
<glyph unicode="&#x398;" horiz-adv-x="1327" d="M127 698q0 676 528 676q137 0 237.5 -40t159 -101.5t92.5 -154.5t45 -181t11 -199q0 -113 -9 -200.5t-42 -189t-89 -169t-159.5 -112.5t-245.5 -45q-139 0 -239.5 45t-155.5 111.5t-86 170t-39 189t-8 200.5zM289 678q0 -268 84 -410.5t282 -142.5q205 0 294 140.5 t89 412.5q0 283 -85 420t-298 137q-199 0 -282.5 -142.5t-83.5 -414.5zM377 664v88q0 27 33 26h512q33 0 32 -26v-88q0 -16 -6 -23.5t-26 -7.5h-512q-20 0 -26.5 7.5t-6.5 23.5z" />
<glyph unicode="&#x399;" horiz-adv-x="520" d="M176 35v1286q0 37 37 37h90q35 0 35 -37v-1286q0 -35 -35 -35h-90q-37 0 -37 35z" />
<glyph unicode="&#x39a;" horiz-adv-x="1126" d="M143 35v1286q0 37 37 37h88q33 0 33 -37v-715l4 -2l162 207l426 524q20 23 47 23h125q14 0 18 -9.5t-4 -19.5l-446 -547l459 -753q6 -10 2 -19.5t-19 -9.5h-125q-31 0 -47 29l-375 626l-227 -278v-342q0 -35 -33 -35h-88q-37 0 -37 35z" />
<glyph unicode="&#x39b;" horiz-adv-x="1122" d="M39 33l422 1292q10 31 45 31h98q25 0 34 -7.5t15 -25.5l428 -1294q8 -29 -16 -29h-119q-29 0 -35 27q-233 743 -313 1013q-27 84 -39 138h-6q-12 -49 -47 -177q-16 -61 -160.5 -506.5t-148.5 -461.5q-10 -33 -43 -33h-99q-28 0 -16 33z" />
<glyph unicode="&#x39c;" horiz-adv-x="1513" d="M152 35v1292q0 31 30 31h90q31 0 45 -31l340 -706l99 -213h4l100 221l340 696q18 33 51 33h82q31 0 31 -31v-1292q0 -35 -35 -35h-88q-37 0 -37 35v971h-6l-72 -158l-299 -610q-12 -27 -41 -27h-59q-31 0 -43 25l-311 634l-64 136h-4v-971q0 -35 -33 -35h-86 q-34 0 -34 35z" />
<glyph unicode="&#x39d;" horiz-adv-x="1288" d="M147 35v1292q0 31 33 31h84q29 0 51 -33l555 -856l109 -172h6v1024q0 37 35 37h86q33 0 33 -37v-1288q0 -33 -33 -33h-78q-33 0 -53 33l-547 844l-119 194h-6v-1036q0 -35 -35 -35h-84q-37 0 -37 35z" />
<glyph unicode="&#x39e;" horiz-adv-x="1042" d="M53 33v78q0 35 35 34h352v488h-280q-35 0 -35 33v79q0 33 35 33h280v432h-340q-37 0 -37 35v80q0 33 35 33h838q35 0 35 -33v-80q0 -35 -37 -35h-336v-432h276q35 0 35 -33v-79q0 -33 -35 -33h-276v-488h348q35 0 35 -34v-78q0 -33 -37 -33h-854q-37 0 -37 33z" />
<glyph unicode="&#x39f;" horiz-adv-x="1306" d="M127 698q0 676 522 676q135 0 234.5 -40t155 -101.5t88 -154.5t43 -180t10.5 -200q0 -115 -8.5 -200.5t-40 -189t-86 -170t-157 -111.5t-241.5 -45q-100 0 -180 23.5t-133 61t-92 96t-60.5 117t-35 136.5t-16.5 140t-3 142zM291 678q0 -272 76.5 -412.5t279.5 -140.5 q211 0 292 137t81 416q0 283 -82 420t-291 137q-195 0 -275.5 -141.5t-80.5 -415.5z" />
<glyph unicode="&#x3a0;" horiz-adv-x="1220" d="M150 35v1286q0 37 36 37h854q33 0 33 -37v-1286q0 -35 -33 -35h-88q-37 0 -37 35v1175h-608v-1175q0 -35 -33 -35h-88q-36 0 -36 35z" />
<glyph unicode="&#x3a1;" horiz-adv-x="1054" d="M147 35v1290q0 33 37 33h389q188 0 305 -101.5t117 -293.5q0 -76 -20.5 -144.5t-65.5 -131t-131 -99.5t-203 -37h-268v-516q0 -35 -35 -35h-88q-37 0 -37 35zM307 692h266q264 0 265 269q0 125 -74 188t-203 63h-254v-520z" />
<glyph unicode="&#x3a3;" horiz-adv-x="925" d="M47 1247v82q0 29 33 29h766q33 0 33 -33v-80q0 -35 -35 -35h-615l314 -467q29 -41 2 -86l-303 -512h624q35 0 35 -32v-78q0 -35 -33 -35h-782q-33 0 -33 33v71q0 33 17 62l321 536l-328 492q-16 24 -16 53z" />
<glyph unicode="&#x3a4;" horiz-adv-x="985" d="M35 1245v80q0 33 35 33h848q35 0 34 -33v-80q0 -35 -37 -35h-344v-1175q0 -35 -32 -35h-88q-37 0 -37 35v1175h-342q-37 0 -37 35z" />
<glyph unicode="&#x3a5;" horiz-adv-x="1038" d="M35 1329q-4 10 0 18.5t16 8.5h121q27 0 39 -25l190 -358l113 -211h12l121 219l191 350q14 25 43 25h106q33 0 19 -31l-408 -719v-571q0 -35 -33 -35h-86q-37 0 -37 35v571z" />
<glyph unicode="&#x3a6;" horiz-adv-x="1509" d="M123 688q0 74 13.5 144.5t51 150.5t97 141.5t160 106.5t231.5 55v35q0 37 37 37h88q35 0 37 -37v-35q135 -8 237.5 -52t160.5 -103.5t93 -140.5t46 -151.5t11 -150.5q0 -117 -26.5 -216t-87 -186t-172 -142.5t-264.5 -67.5v-41q0 -35 -35 -35h-88q-35 0 -35 35v41 q-133 6 -235.5 48t-162 101.5t-96.5 141.5t-49 158.5t-12 162.5zM281 682q0 -211 91 -330t306 -139v938q-209 -16 -303 -144t-94 -325zM836 213q391 23 391 467q0 70 -10.5 130t-37 121.5t-69.5 106.5t-112.5 75t-161.5 36v-936z" />
<glyph unicode="&#x3a7;" horiz-adv-x="1069" d="M37 9q-4 9 4 22l408 667l-377 627q-8 12 -4 22.5t18 10.5h119q27 0 43 -27l160 -278l124 -217l127 223l158 270q14 27 47 27h111q14 2 19 -9.5t-1 -21.5l-377 -627l408 -669q8 -10 3 -19.5t-19 -9.5h-117q-29 0 -45 29l-180 305l-134 227l-122 -213l-191 -319 q-16 -29 -47 -29h-117q-14 0 -18 9z" />
<glyph unicode="&#x3a8;" horiz-adv-x="1417" d="M129 827v494q0 37 35 37h88q35 0 35 -37v-494q0 -166 92 -264t242 -108v866q0 37 36 37h91q33 0 32 -37v-866q150 10 244 108.5t94 263.5v494q0 37 37 37h86q33 0 33 -37v-494q0 -211 -134 -359.5t-362 -162.5v-270q0 -35 -33 -35h-88q-37 0 -36 35v270 q-242 20 -367 163.5t-125 358.5z" />
<glyph unicode="&#x3a9;" horiz-adv-x="1335" d="M82 35v78q0 33 35 32h176q-174 129 -174 560q0 98 14 187t52 179t98.5 155.5t159 106.5t225.5 41q547 0 546 -669q0 -412 -178 -560h168q37 0 37 -32v-78q0 -35 -35 -35h-407q-33 0 -33 33v96q0 25 29 35q260 88 260 530q0 541 -385 541q-387 0 -387 -537 q0 -451 245 -534q31 -10 31 -35v-96q0 -33 -35 -33h-409q-33 0 -33 35z" />
<glyph unicode="&#x3aa;" horiz-adv-x="520" d="M0 1552q0 84 84 84q49 0 66.5 -20.5t17.5 -63.5t-17.5 -65.5t-66.5 -22.5q-51 0 -67.5 22.5t-16.5 65.5zM176 35v1286q0 37 37 37h90q35 0 35 -37v-1286q0 -35 -35 -35h-90q-37 0 -37 35zM352 1552q0 84 84 84q49 0 66.5 -20.5t17.5 -63.5t-17.5 -65.5t-66.5 -22.5 q-51 0 -67.5 22.5t-16.5 65.5z" />
<glyph unicode="&#x3ab;" horiz-adv-x="1038" d="M35 1329q-4 10 0 18.5t16 8.5h121q27 0 39 -25l190 -358l113 -211h12l121 219l191 350q14 25 43 25h106q33 0 19 -31l-408 -719v-571q0 -35 -33 -35h-86q-37 0 -37 35v571zM258 1552q0 84 84 84q49 0 66.5 -20.5t17.5 -63.5t-17.5 -65.5t-66.5 -22.5q-51 0 -67.5 22.5 t-16.5 65.5zM610 1552q0 84 84 84q49 0 66.5 -20.5t17.5 -63.5t-17.5 -65.5t-66.5 -22.5q-51 0 -67.5 22.5t-16.5 65.5z" />
<glyph unicode="&#x3ac;" horiz-adv-x="1058" d="M82 487q0 256 103.5 392.5t303.5 136.5q141 0 279 -76l2 2v21q0 35 37 34h82q20 0 27.5 -7t7.5 -29v-760q0 -57 12 -70.5t63 -17.5q35 -2 35 -27v-51q0 -31 -41 -37q-37 -6 -71 -6q-72 0 -108 26.5t-46 92.5h-4q-72 -43 -110 -63.5t-107.5 -43t-130.5 -22.5 q-186 0 -260 124.5t-74 380.5zM244 483q0 -154 20.5 -232.5t57 -103t108.5 -24.5q115 0 338 115v573q-162 66 -264 66q-133 0 -196.5 -90.5t-63.5 -303.5zM444 1161l144 293q8 18 35 6l94 -41q23 -10 6 -30l-182 -271q-10 -14 -31 -6l-59 21q-17 5 -7 28z" />
<glyph unicode="&#x3ad;" horiz-adv-x="882" d="M94 295q0 82 46 150.5t126 95.5v4q-154 43 -153 186q0 106 63.5 174t144 91.5t179.5 23.5q207 0 299 -45q25 -12 22 -37l-8 -49q-6 -33 -49 -27q-229 16 -252 17q-63 0 -108.5 -8.5t-84 -42t-38.5 -95.5q0 -45 21.5 -73.5t61 -41t70.5 -15.5t76 -3h88q33 0 33 -33v-65 q0 -33 -33 -33h-86q-51 0 -87 -4t-78 -19.5t-63.5 -52.5t-21.5 -92q0 -104 63.5 -140t190.5 -36q88 0 268 20q41 8 45 -24l9 -41q6 -29 -21 -43q-92 -53 -311 -53q-168 0 -290 73.5t-122 237.5zM438 1161l144 293q8 18 34 6l95 -41q23 -10 6 -30l-182 -271q-10 -14 -31 -6 l-60 21q-16 5 -6 28z" />
<glyph unicode="&#x3ae;" horiz-adv-x="1034" d="M109 35v928q0 35 32 34h84q37 0 37 -34v-74l6 -2q201 131 361 131q96 0 157.5 -26.5t91 -83t39 -116t9.5 -153.5v-604q0 -35 -37 -35h-86q-35 0 -35 35l2 606q0 139 -35 187.5t-131 48.5q-109 0 -342 -117v-725q0 -35 -37 -35h-84q-32 0 -32 35zM410 1161l143 293 q8 18 35 6l94 -41q23 -10 6 -30l-182 -271q-10 -14 -31 -6l-59 21q-16 5 -6 28z" />
<glyph unicode="&#x3af;" horiz-adv-x="456" d="M152 35v928q0 35 36 34h84q33 0 33 -34v-928q0 -35 -33 -35h-84q-36 0 -36 35zM170 1161l143 293q8 18 35 6l94 -41q23 -10 7 -30l-183 -271q-10 -14 -30 -6l-60 21q-16 5 -6 28z" />
<glyph unicode="&#x3b0;" horiz-adv-x="1038" d="M115 360v603q0 35 37 34h84q33 0 32 -34v-598q0 -119 50.5 -179.5t195.5 -60.5q139 0 195.5 62.5t56.5 177.5v598q0 35 37 34h86q35 0 35 -34v-603q0 -170 -101.5 -272t-308.5 -102q-399 -1 -399 374zM195 1249q0 84 86 84q49 0 66.5 -21.5t17.5 -62.5q0 -90 -84 -90 q-51 0 -68.5 23.5t-17.5 66.5zM399 1161l142 293q10 18 34 6l97 -41q16 -8 6 -30l-184 -271q-8 -14 -29 -6l-59 21q-19 5 -7 28zM684 1249q0 84 86 84q49 0 66.5 -21.5t17.5 -62.5q0 -90 -84 -90q-51 0 -68.5 23.5t-17.5 66.5z" />
<glyph unicode="&#x3b1;" horiz-adv-x="1058" d="M82 481q0 256 103.5 392.5t303.5 136.5q152 0 279 -70l2 2v21q0 35 37 34h82q20 0 27.5 -7t7.5 -29v-756q0 -61 8 -72.5t57 -15.5q35 -2 35 -27v-55q0 -31 -41 -37q-37 -6 -61 -6q-72 0 -108 26.5t-46 92.5h-4q-72 -43 -110 -63.5t-107.5 -43t-130.5 -22.5 q-186 0 -260 121.5t-74 377.5zM244 477q0 -221 40 -287.5t146 -66.5q115 0 338 115v573q-147 59 -264 59q-133 0 -196.5 -90t-63.5 -303z" />
<glyph unicode="&#x3b2;" horiz-adv-x="1026" d="M100 -248v1270q0 207 109.5 318.5t282.5 111.5q178 0 274 -91t96 -265q0 -63 -39 -142.5t-102 -109.5q123 -27 171 -120t48 -245q0 -258 -93 -377.5t-327 -119.5q-127 0 -260 53l-6 -2v-281q0 -20 -8 -27.5t-27 -7.5h-86q-33 0 -33 35zM256 168q145 -45 279 -45 q129 0 184 78t55 266q0 154 -60.5 209t-189.5 47q-6 0 -110 -6q-33 -4 -33 22v76q0 29 31 35q137 20 211.5 79.5t74.5 188.5q0 195 -215 195q-113 0 -170 -77t-57 -212v-856z" />
<glyph unicode="&#x3b3;" horiz-adv-x="927" d="M2 967q-4 18 21 26q63 23 98 23q53 0 79.5 -35t53.5 -115l168 -504l55 -159h6l95 264l180 504q10 27 33 26h110q25 0 14 -30l-364 -947v-346q0 -35 -35 -34h-86q-35 0 -35 34v346l-286 807q0 2 -6.5 18.5t-10.5 21.5t-15 12.5t-28 7.5h-10q-20 0 -25 14z" />
<glyph unicode="&#x3b4;" horiz-adv-x="1040" d="M96 504q0 129 53.5 244.5t178.5 181.5q-72 29 -112 90t-40 141q0 141 94.5 217t264.5 76q188 0 292 -45q29 -12 21 -43l-8 -49q-4 -27 -54 -23q-168 20 -254 21q-113 0 -155.5 -34t-42.5 -116q0 -55 52 -92t156.5 -73.5t149.5 -61.5q133 -72 191.5 -164t58.5 -270 q0 -68 -5 -121t-18.5 -117.5t-44 -110.5t-75.5 -87t-119 -62.5t-170 -21.5q-111 0 -190.5 32.5t-121.5 80.5t-65.5 124t-30 137.5t-6.5 145.5zM256 489q0 -190 55.5 -277t202.5 -87q156 0 213 85t57 279q0 106 -26 187q-41 131 -279 194q-115 -55 -169 -140t-54 -241z" />
<glyph unicode="&#x3b5;" horiz-adv-x="882" d="M94 295q0 82 46 150.5t126 95.5v4q-154 43 -153 186q0 106 63.5 174t144 91.5t179.5 23.5q207 0 299 -45q25 -12 22 -37l-8 -49q-6 -33 -49 -27q-229 16 -252 17q-63 0 -108.5 -8.5t-84 -42t-38.5 -95.5q0 -45 21.5 -73.5t61 -41t70.5 -15.5t76 -3h88q33 0 33 -33v-65 q0 -33 -33 -33h-86q-51 0 -87 -4t-78 -19.5t-63.5 -52.5t-21.5 -92q0 -104 63.5 -140t190.5 -36q88 0 268 20q41 8 45 -24l9 -41q6 -29 -21 -43q-92 -53 -311 -53q-168 0 -290 73.5t-122 237.5z" />
<glyph unicode="&#x3b6;" horiz-adv-x="755" d="M68 408q0 125 61 260t156.5 249.5t202 207t206.5 149.5l-4 8h-549q-20 0 -27.5 7t-7.5 32v55q0 41 33 41h713q33 0 33 -35v-69q0 -53 -21 -68q-639 -473 -639 -825q0 -84 48.5 -137.5t187.5 -104.5q223 -84 274 -117q74 -49 74 -116q0 -70 -57.5 -160t-116.5 -141 q-18 -16 -47 -2l-45 30q-23 16 -2 52q94 145 94 182q0 20 -24.5 38.5t-102.5 47.5q-23 8 -89.5 31.5t-93 34t-66.5 31t-66 40.5q-125 95 -125 279z" />
<glyph unicode="&#x3b7;" horiz-adv-x="1034" d="M109 35v928q0 35 32 34h84q37 0 37 -34v-74q4 -2 6 -2q201 131 361 131q96 0 157.5 -26.5t91 -83t39 -116t9.5 -153.5v-604q0 -35 -37 -35h-86q-35 0 -35 35v606q0 139 -34 187.5t-130 48.5q-109 0 -342 -117v-725q0 -35 -37 -35h-84q-32 0 -32 35z" />
<glyph unicode="&#x3b8;" horiz-adv-x="1081" d="M90 741q0 711 445 711q115 0 197.5 -37t131.5 -98.5t79 -156.5t39 -192.5t9 -226.5q0 -127 -7 -220t-33.5 -201.5t-74 -176t-134.5 -113.5t-207 -46q-100 0 -176 27.5t-123.5 83t-78 118.5t-44 158.5t-18.5 175t-5 194.5zM250 696q2 -299 64.5 -436t220.5 -137 q166 0 230 130t66 443h-581zM252 827h579q-8 258 -73.5 374t-222.5 116q-143 0 -209 -120t-74 -370z" />
<glyph unicode="&#x3b9;" horiz-adv-x="456" d="M152 35v928q0 35 36 34h84q33 0 33 -34v-928q0 -35 -33 -35h-84q-36 0 -36 35z" />
<glyph unicode="&#x3ba;" horiz-adv-x="913" d="M125 35v928q0 35 35 34h84q37 0 37 -34v-379l4 -2l403 391q27 27 49 26h111q20 0 25.5 -12t-7.5 -26l-340 -332l377 -592q8 -12 1 -24.5t-21 -12.5h-107q-29 0 -47 29l-311 493l-137 -133v-354q0 -35 -37 -35h-84q-35 0 -35 35z" />
<glyph unicode="&#x3bb;" horiz-adv-x="927" d="M16 33l381 956l-65 223q-20 68 -42 93.5t-69 25.5l-39 -2q-29 -2 -32 17l-9 65q-2 16 23 27q43 14 92 14q94 0 135 -36t74 -140l350 -1112q6 -23 11 -33t17.5 -20.5t30.5 -10.5h21q20 0 23 -12l6 -59q2 -16 -21 -27q-20 -10 -74 -10q-72 0 -102.5 26.5t-52.5 100.5 l-168 545l-43 133l-78 -203l-213 -565q-8 -29 -31 -29h-108q-27 0 -17 33z" />
<glyph unicode="&#x3bd;" horiz-adv-x="948" d="M41 965q-12 33 16 32h111q20 0 33 -28l205 -563q63 -188 71 -213h2l72 215l205 563q8 27 30 26h111q29 0 14 -30l-354 -940q-10 -27 -35 -27h-90q-23 0 -33 25z" />
<glyph unicode="&#x3be;" horiz-adv-x="765" d="M76 395q0 319 221 398v6q-98 35 -149.5 107.5t-51.5 164.5q0 184 110.5 283.5t297.5 99.5q213 0 305 -47q25 -10 20 -35l-8 -51q-6 -29 -47 -27q-219 16 -264 17q-127 0 -188.5 -62.5t-59.5 -177.5q0 -57 27.5 -99t73 -63.5t92.5 -31t96 -9.5h164q33 0 33 -30v-68 q0 -33 -33 -33h-156q-158 0 -239.5 -71.5t-81.5 -233.5q0 -121 53 -178t252 -135q186 -72 227 -105q61 -45 61 -112q0 -63 -48 -140t-109 -137q-18 -16 -49 -2l-43 31q-25 18 -2 51q82 133 82 162q0 23 -20.5 40t-80.5 40q-25 10 -78 30.5t-78.5 30.5t-71.5 30.5t-69.5 37 t-58.5 41t-53.5 51.5t-38 61.5t-27.5 75.5t-10 90z" />
<glyph unicode="&#x3bf;" horiz-adv-x="1030" d="M94 516q0 502 414 502q109 0 189.5 -30t125.5 -75t71 -115.5t34 -134t8 -147.5q0 -72 -4 -124t-17.5 -119.5t-42 -113.5t-73.5 -89t-119 -64.5t-172 -21.5q-113 0 -192.5 33.5t-121.5 81.5t-66 127t-29 140.5t-5 149.5zM252 501.5q0 -200.5 52 -287.5t204 -87 q160 0 214 85t54 290q0 203 -54 289t-214 86q-152 0 -204 -87.5t-52 -288z" />
<glyph unicode="&#x3c0;" horiz-adv-x="1044" d="M113 35v928q0 35 34 34h750q35 0 35 -36v-926q0 -35 -37 -35h-86q-33 0 -33 35v823h-510v-823q0 -35 -35 -35h-84q-34 0 -34 35z" />
<glyph unicode="&#x3c1;" horiz-adv-x="1040" d="M98 -322v840q0 500 422 500q221 0 321.5 -128t100.5 -380q0 -268 -89 -398t-316 -130q-123 0 -281 57l-2 -6v-355q0 -39 -37 -38h-84q-20 0 -27.5 7.5t-7.5 30.5zM254 166q156 -43 293 -43q127 0 180 83t53 310q0 203 -66.5 280.5t-189.5 77.5q-66 0 -116 -18t-77.5 -55 t-45 -69t-23.5 -86t-7 -76.5t-1 -67.5v-336z" />
<glyph unicode="&#x3c2;" horiz-adv-x="856" d="M92 512q0 506 422 506q203 0 309 -47q29 -12 21 -43l-8 -47q-6 -29 -54 -23q-168 20 -268 21q-145 0 -200.5 -93.5t-55.5 -271.5q0 -141 60.5 -215t244.5 -160q141 -66 187.5 -109.5t46.5 -101.5q0 -59 -48.5 -136t-109.5 -136q-25 -23 -49 -2l-45 33q-23 16 -2 51 q82 131 82 164q0 25 -31 45t-127 63q-225 102 -300 209t-75 293z" />
<glyph unicode="&#x3c3;" horiz-adv-x="1054" d="M90 506q0 492 418 493h481q35 0 35 -34v-72q0 -35 -35 -35h-162l-4 -4q68 -49 89.5 -136t21.5 -212q0 -86 -5 -146.5t-30 -137.5t-69 -124t-126.5 -80.5t-199.5 -33.5q-94 0 -166 20.5t-116 62.5t-71.5 87t-40 111.5t-16.5 117.5t-4 123zM250 492q0 -197 51 -281t203 -84 q160 0 215 83t55 281.5t-54 281.5t-216 83q-150 0 -202 -84.5t-52 -279.5z" />
<glyph unicode="&#x3c4;" horiz-adv-x="749" d="M18 893v68q0 37 35 36h635q35 0 35 -34v-70q0 -35 -35 -35h-270v-608q0 -92 45 -107.5t199 -5.5q25 2 34 -3t11 -21l8 -47q2 -27 -19 -39q-76 -41 -211 -41q-125 0 -173 55t-48 162v655h-211q-35 0 -35 35z" />
<glyph unicode="&#x3c5;" horiz-adv-x="1038" d="M115 360v603q0 35 37 34h84q33 0 32 -34v-598q0 -119 50.5 -179.5t195.5 -60.5q139 0 195.5 62.5t56.5 177.5v598q0 35 37 34h86q35 0 35 -34v-603q0 -170 -101.5 -272t-308.5 -102q-399 -1 -399 374z" />
<glyph unicode="&#x3c6;" horiz-adv-x="1310" d="M96 510q0 158 67.5 290t211.5 193q29 12 43 -14l33 -53q14 -20 -13 -37q-182 -111 -182 -395q0 -369 324 -377v850q0 47 45 47h104q485 0 485 -516q0 -233 -122.5 -369.5t-360.5 -146.5v-308q0 -35 -35 -34h-82q-37 0 -36 34v306q-482 22 -482 530zM731 119 q326 18 326 366q0 385 -326 387v-753z" />
<glyph unicode="&#x3c7;" horiz-adv-x="886" d="M22.5 10q-4.5 10 2.5 23l325 475l-309 457q-8 12 -3 22t19 10h123q16 0 37 -26l223 -338l222 338q16 27 36 26h125q14 0 19.5 -10t-2.5 -22l-312 -455l326 -477q8 -12 3 -22.5t-19 -10.5h-125q-25 0 -41 27l-234 360l-235 -360q-16 -27 -43 -27h-119q-14 0 -18.5 10z" />
<glyph unicode="&#x3c8;" horiz-adv-x="1202" d="M115 354v609q0 35 37 34h86q33 0 32 -34v-605q0 -111 55.5 -173t196.5 -70v929q0 35 35 35h84q33 0 33 -35v-929q256 14 256 243v605q0 35 37 34h84q33 0 32 -34v-609q0 -348 -409 -379v-299q0 -35 -33 -34h-84q-18 0 -26.5 7t-8.5 27v301q-215 14 -311 107.5t-96 269.5z " />
<glyph unicode="&#x3c9;" horiz-adv-x="1531" d="M94 489q0 90 9.5 160t36 144.5t84 127t143.5 78.5q29 8 45 -14l28 -45q18 -27 -16 -51q-6 -4 -31.5 -21.5t-36 -25.5t-29 -27.5t-30.5 -43t-23 -56.5q-18 -61 -18 -228q0 -188 52 -275t167 -87q127 0 170 70.5t43 181.5v282q0 20 8.5 27.5t26.5 7.5h84q33 0 33 -35v-282 q2 -111 47 -181.5t172 -70.5q115 0 167 87t52 275q0 164 -18 228q-12 39 -34 70.5t-31 42t-48 36.5l-37 25q-35 25 -16 51l28 45q12 23 43 14q86 -27 144.5 -79t85 -126.5t36 -144t9.5 -160.5q0 -506 -381 -505q-197 0 -293 143h-4q-92 -143 -287 -143q-381 -1 -381 505z " />
<glyph unicode="&#x3ca;" horiz-adv-x="456" d="M-43 1249q0 84 86 84q49 0 66.5 -21.5t17.5 -62.5q0 -90 -84 -90q-51 0 -68.5 23.5t-17.5 66.5zM152 35v928q0 35 36 34h84q33 0 33 -34v-928q0 -35 -33 -35h-84q-36 0 -36 35zM334 1249q0 84 84 84q49 0 67.5 -21.5t18.5 -62.5q0 -90 -86 -90q-84 0 -84 90z" />
<glyph unicode="&#x3cb;" horiz-adv-x="1038" d="M115 360v603q0 35 37 34h84q33 0 32 -34v-598q0 -119 50.5 -179.5t195.5 -60.5q139 0 195.5 62.5t56.5 177.5v598q0 35 37 34h86q35 0 35 -34v-603q0 -170 -101.5 -272t-308.5 -102q-399 -1 -399 374zM250 1249q0 84 86 84q49 0 66.5 -21.5t17.5 -62.5q0 -90 -84 -90 q-51 0 -68.5 23.5t-17.5 66.5zM627 1249q0 84 84 84q49 0 67.5 -21.5t18.5 -62.5q0 -90 -86 -90q-84 0 -84 90z" />
<glyph unicode="&#x3cc;" horiz-adv-x="1030" d="M94 516q0 502 414 502q109 0 189.5 -30t125.5 -75t71 -115.5t34 -134t8 -147.5q0 -72 -4 -124t-17.5 -119.5t-42 -113.5t-73.5 -89t-119 -64.5t-172 -21.5q-113 0 -192.5 33.5t-121.5 81.5t-66 127t-29 140.5t-5 149.5zM252 501.5q0 -200.5 52 -287.5t204 -87 q160 0 214 85t54 290q0 203 -54 289t-214 86q-152 0 -204 -87.5t-52 -288zM446 1161l144 293q8 18 35 6l94 -41q23 -10 6 -30l-182 -271q-10 -14 -31 -6l-59 21q-17 5 -7 28z" />
<glyph unicode="&#x3cd;" horiz-adv-x="1038" d="M115 360v603q0 35 37 34h84q33 0 32 -34v-598q0 -119 50.5 -179.5t195.5 -60.5q139 0 195.5 62.5t56.5 177.5v598q0 35 37 34h86q35 0 35 -34v-603q0 -170 -101.5 -272t-308.5 -102q-399 -1 -399 374zM438 1161l144 293q8 18 34 6l95 -41q23 -10 6 -30l-182 -271 q-10 -14 -31 -6l-60 21q-16 5 -6 28z" />
<glyph unicode="&#x3ce;" horiz-adv-x="1531" d="M94 489q0 90 9.5 160t36 144.5t84 127t143.5 78.5q29 8 45 -14l28 -45q18 -27 -16 -51q-6 -4 -31.5 -21.5t-36 -25.5t-29 -27.5t-30.5 -43t-23 -56.5q-18 -61 -18 -228q0 -188 52 -275t167 -87q127 0 170 70.5t43 181.5v282q0 20 8.5 27.5t26.5 7.5h84q33 0 33 -35v-282 q2 -111 47 -181.5t172 -70.5q115 0 167 87t52 275q0 164 -18 228q-12 39 -34 70.5t-31 42t-48 36.5l-37 25q-35 25 -16 51l28 45q12 23 43 14q86 -27 144.5 -79t85 -126.5t36 -144t9.5 -160.5q0 -506 -381 -505q-197 0 -293 143h-4q-92 -143 -287 -143q-381 -1 -381 505z M709 1161l143 293q8 18 35 6l94 -41q23 -10 6 -30l-182 -271q-10 -14 -31 -6l-59 21q-16 5 -6 28z" />
<glyph unicode="&#x400;" horiz-adv-x="1034" d="M152 33v1290q0 35 36 35h707q35 0 35 -33v-80q0 -35 -37 -35h-582v-432h523q35 0 34 -33v-79q0 -33 -34 -33h-523v-488h598q33 0 33 -34v-78q0 -33 -35 -33h-719q-36 0 -36 33zM283 1624l65 80q18 23 33 10l262 -194q20 -14 8 -27l-43 -47q-14 -14 -30 -6l-285 153 q-24 13 -10 31z" />
<glyph unicode="&#x401;" horiz-adv-x="1034" d="M152 33v1290q0 35 36 35h707q35 0 35 -33v-80q0 -35 -37 -35h-582v-432h523q35 0 34 -33v-79q0 -33 -34 -33h-523v-488h598q33 0 33 -34v-78q0 -33 -35 -33h-719q-36 0 -36 33zM276 1552q0 84 84 84q49 0 66.5 -20.5t17.5 -63.5t-17 -65.5t-67 -22.5q-51 0 -67.5 22.5 t-16.5 65.5zM629 1552q0 84 84 84q49 0 66.5 -20.5t17.5 -63.5t-17.5 -65.5t-66.5 -22.5q-51 0 -67.5 22.5t-16.5 65.5z" />
<glyph unicode="&#x402;" horiz-adv-x="1458" d="M35 1245v80q0 33 35 33h1022q35 0 34 -33v-80q0 -35 -36 -35h-519v-399q221 119 387 119q180 0 281.5 -118t101.5 -333q0 -326 -170 -536q-35 -43 -102.5 -94.5t-128.5 -75.5q-18 -8 -26.5 -7t-11.5 5t-11 18l-23 45q-14 27 13 39q164 100 233.5 250.5t69.5 370.5 q0 152 -65.5 224.5t-178.5 72.5q-164 0 -369 -127v-629q0 -35 -32 -35h-88q-37 0 -37 35v1175h-342q-37 0 -37 35z" />
<glyph unicode="&#x403;" horiz-adv-x="929" d="M156 35v1290q0 33 37 33h696q35 0 35 -33v-80q0 -35 -37 -35h-572v-1175q0 -35 -32 -35h-90q-37 0 -37 35zM377 1493q-12 12 8 27l262 194q14 12 33 -10l65 -80q14 -18 -10 -31l-284 -153q-16 -8 -31 6z" />
<glyph unicode="&#x404;" horiz-adv-x="1077" d="M127 692q0 115 12.5 208t47 184.5t91 151.5t150.5 98t219 38q238 0 371 -55q29 -10 22 -45l-10 -53q-8 -29 -41 -25q-229 29 -348 29q-96 0 -163.5 -34t-104.5 -99.5t-54.5 -139t-21.5 -172.5h510q35 0 35 -33v-79q0 -33 -35 -33h-512q2 -115 16.5 -196t50 -154.5 t107.5 -111.5t178 -38q131 0 342 29q31 4 39 -23l10 -57q6 -31 -24 -45q-135 -53 -367 -53q-129 0 -224 39.5t-150.5 104.5t-89 161t-45 190t-11.5 213z" />
<glyph unicode="&#x405;" horiz-adv-x="1077" d="M100 84l15 57q6 23 35 21q229 -29 364 -29q152 0 231.5 57.5t79.5 161.5q0 137 -57 189.5t-227 81.5q-86 14 -141.5 27.5t-118 40t-97 62t-58.5 95t-24 137.5q0 186 114 285.5t325 99.5q238 0 366 -53q35 -12 27 -45l-12 -55q-8 -27 -39 -25q-211 29 -342 29 q-154 0 -216.5 -58.5t-62.5 -171t58.5 -150.5t232.5 -69q84 -14 137 -27.5t114.5 -42t96.5 -67.5t58.5 -104.5t23.5 -153.5q0 -209 -129 -302t-338 -93q-94 0 -210 15t-179 42q-33 14 -27 45z" />
<glyph unicode="&#x406;" horiz-adv-x="520" d="M176 35v1286q0 37 37 37h90q35 0 35 -37v-1286q0 -35 -35 -35h-90q-37 0 -37 35z" />
<glyph unicode="&#x407;" horiz-adv-x="520" d="M-2 1552q0 84 84 84q49 0 66.5 -20.5t17.5 -63.5t-17.5 -65.5t-66.5 -22.5q-51 0 -67.5 22.5t-16.5 65.5zM176 35v1286q0 37 37 37h90q35 0 35 -37v-1286q0 -35 -35 -35h-90q-37 0 -37 35zM350 1552q0 84 84 84q49 0 66.5 -20.5t17.5 -63.5t-17.5 -65.5t-66.5 -22.5 q-51 0 -67.5 22.5t-16.5 65.5z" />
<glyph unicode="&#x408;" horiz-adv-x="856" d="M18 74l15 57q6 27 37 21q133 -18 213 -19q137 0 187 49t50 160v979q0 37 37 37h88q37 0 37 -37v-993q0 -170 -90 -258t-293 -88q-143 0 -250 43q-41 18 -31 49z" />
<glyph unicode="&#x409;" horiz-adv-x="1775" d="M10 78q0 27 29 31q68 12 105.5 30.5t64.5 58.5t39 104.5t21.5 168.5t19.5 256q2 51 4 78l33 516q0 37 36 37l619 -2q35 0 35 -35v-524h319q119 0 203 -36t127 -97.5t61.5 -128t18.5 -142.5q0 -190 -119 -291.5t-303 -101.5h-430q-37 0 -37 33v1175h-387l-29 -450 q-4 -43 -8 -119t-6 -118t-9 -107.5t-14.5 -103.5t-21.5 -89t-32.5 -80.5t-46.5 -63.5t-61.5 -51.5t-80.5 -29.5t-103 -12q-29 0 -37 8t-8 28zM1016 143h295q129 0 202.5 63.5t73.5 188.5q0 260 -258 260h-313v-512z" />
<glyph unicode="&#x40a;" horiz-adv-x="1736" d="M147 35v1286q0 37 37 37h88q33 0 33 -37v-528h492v528q0 35 37 35h88q35 0 34 -35v-528h310q123 0 209 -35t130 -96.5t62.5 -126t18.5 -142.5q0 -190 -119 -291.5t-303 -101.5h-430q-37 0 -37 33v612h-492v-610q0 -35 -33 -35h-88q-37 0 -37 35zM956 143h295 q129 0 203 63.5t74 188.5q0 117 -56.5 183.5t-201.5 66.5h-314v-502z" />
<glyph unicode="&#x40b;" horiz-adv-x="1409" d="M35 1245v80q0 33 35 33h1011q35 0 35 -33v-80q0 -35 -37 -35h-508v-403q70 43 185.5 86t218.5 43q203 0 270.5 -95.5t67.5 -283.5v-522q0 -35 -37 -35h-82q-35 0 -35 35v543q0 123 -52 168t-157 45q-125 0 -379 -127v-629q0 -35 -32 -35h-88q-37 0 -37 35v1175h-342 q-37 0 -37 35z" />
<glyph unicode="&#x40c;" horiz-adv-x="1126" d="M143 35v1286q0 37 37 37h88q33 0 33 -37v-557h221q53 0 93 11t85 57.5t72 130.5l111 354q12 39 51 39h67q33 0 40.5 -13.5t-3.5 -37.5l-106 -347q-61 -211 -195 -256q141 -43 207 -268l115 -383q10 -25 3 -38t-40 -13h-78q-39 0 -51 39l-109 369q-39 123 -100 166.5 t-152 43.5h-231v-583q0 -35 -33 -35h-88q-37 0 -37 35zM416 1493q-12 12 8 27l262 194q14 12 33 -10l65 -80q14 -18 -10 -31l-285 -153q-16 -8 -30 6z" />
<glyph unicode="&#x40d;" horiz-adv-x="1288" d="M147 33v1288q0 37 33 37h84q37 0 37 -37v-1042h6l170 268l494 778q23 33 51 33h84q33 0 33 -31v-1292q0 -35 -37 -35h-84q-35 0 -35 35v1055h-6l-137 -224l-529 -833q-20 -33 -53 -33h-78q-33 0 -33 33zM428 1624l66 80q18 23 32 10l262 -194q20 -14 9 -27l-43 -47 q-14 -14 -31 -6l-285 153q-24 13 -10 31z" />
<glyph unicode="&#x40e;" horiz-adv-x="1095" d="M55 1329q-4 10 0 18.5t17 8.5h121q27 0 38 -25l160 -413l166 -443h6l174 461l152 397q14 25 43 25h100q33 0 19 -31l-416 -1038q-76 -170 -135.5 -237.5t-167.5 -69.5q-70 0 -129 12q-43 8 -37 45l8 55q4 31 37 29q111 -4 151.5 17.5t79.5 101.5l33 65zM260 1624l43 33 q16 12 35 -6q66 -78 113 -109t116 -31q45 0 85 20.5t56.5 37t75.5 82.5q18 18 35 6l43 -29q12 -8 -6 -53q-45 -94 -124 -143.5t-169 -49.5q-205 0 -297 189q-16 43 -6 53z" />
<glyph unicode="&#x40f;" horiz-adv-x="1220" d="M150 37v1286q0 35 36 35h88q33 0 33 -35v-1176h608v1176q0 35 37 35h88q33 0 33 -35v-1286q0 -37 -33 -37h-338l-12 -268q-2 -43 -33 -43h-84q-18 0 -25 6t-9 31l-13 274h-340q-36 0 -36 37z" />
<glyph unicode="&#x410;" horiz-adv-x="1122" d="M33 33l428 1292q8 31 39 31h114q29 0 39 -31l428 -1296q8 -29 -16 -29h-125q-27 0 -35 27l-100 335h-500l-106 -329q-10 -33 -43 -33h-107q-28 0 -16 33zM352 508h408l-103 342l-98 332h-6l-96 -326z" />
<glyph unicode="&#x411;" horiz-adv-x="1087" d="M147 33v1290q0 31 27 33h723q35 0 35 -33v-80q0 -35 -37 -35h-588v-411h318q119 0 203.5 -36t127.5 -97.5t61.5 -127t18.5 -143.5q0 -190 -118.5 -291.5t-303.5 -101.5h-430q-37 0 -37 33zM307 143h295q129 0 203 63.5t74 188.5q0 260 -258 260h-314v-512z" />
<glyph unicode="&#x412;" horiz-adv-x="1140" d="M147 35v1288q0 33 37 33h432q193 0 295.5 -94.5t102.5 -253.5q0 -84 -40 -167t-134 -128l2 -2q113 -35 163 -133.5t50 -204.5q0 -166 -107.5 -269.5t-263.5 -103.5h-494q-43 0 -43 35zM305 145h328q254 0 254 242q0 104 -64.5 175t-189.5 71h-328v-488zM305 776h322 q90 0 154.5 63.5t64.5 155.5q0 98 -62.5 157.5t-187.5 59.5h-291v-436z" />
<glyph unicode="&#x413;" horiz-adv-x="929" d="M156 35v1290q0 33 37 33h696q35 0 35 -33v-80q0 -35 -37 -35h-572v-1175q0 -35 -32 -35h-90q-37 0 -37 35z" />
<glyph unicode="&#x414;" horiz-adv-x="1273" d="M23 92q-2 39 34 49l54 11q74 72 109.5 161.5t49.5 253.5l66 748q4 43 49 43h711q33 0 32 -37v-1171l74 -9q29 -6 29 -43l-21 -360q-2 -43 -26 -43h-82q-27 0 -29 43l-12 262h-871l-12 -262q-2 -27 -9 -35t-26 -8h-77q-27 0 -29 43zM303 147h668v1063h-492l-51 -616 q-16 -193 -42 -290.5t-83 -156.5z" />
<glyph unicode="&#x415;" horiz-adv-x="1034" d="M152 33v1290q0 35 36 35h707q35 0 35 -33v-80q0 -35 -37 -35h-582v-432h523q35 0 34 -33v-79q0 -33 -34 -33h-523v-488h598q33 0 33 -34v-78q0 -33 -35 -33h-719q-36 0 -36 33z" />
<glyph unicode="&#x416;" horiz-adv-x="1726" d="M64.5 13.5q-7.5 13.5 3.5 37.5l114 383q66 225 207 268q-133 45 -194 256l-107 347q-10 25 -3 38t40 13h70q39 0 51 -39l110 -354q27 -84 72 -130.5t85 -57.5t93 -11h178v557q0 37 37 37h88q33 0 33 -37v-557h178q53 0 93 11t85 57.5t72 130.5l111 354q12 39 51 39h70 q33 0 40 -13.5t-4 -37.5l-106 -347q-61 -211 -195 -256q141 -43 207 -268l115 -383q10 -25 3 -38t-40 -13h-80q-39 0 -51 39l-109 369q-39 123 -100 166.5t-152 43.5h-188v-583q0 -35 -33 -35h-88q-37 0 -37 35v583h-188q-90 0 -151.5 -44t-100.5 -166l-108 -369 q-12 -39 -52 -39h-80q-32 0 -39.5 13.5z" />
<glyph unicode="&#x417;" horiz-adv-x="991" d="M8 84l10 53q8 29 41 25q279 -35 357 -35q340 0 340 262q0 256 -322 256h-51q-20 0 -26.5 6t-6.5 25v72q0 37 33 36h51q289 0 289 220q0 74 -24.5 122t-69.5 68t-85 27.5t-93 7.5q-74 0 -304 -29q-33 -4 -41 25l-10 51q-6 35 23 45q150 57 356 57q221 0 320.5 -88 t99.5 -266q0 -102 -60.5 -186t-148.5 -115v-4q106 -29 172 -113t66 -223q0 -190 -137.5 -295.5t-360.5 -105.5q-84 0 -207 15t-188 42q-29 10 -23 45z" />
<glyph unicode="&#x418;" horiz-adv-x="1288" d="M147 33v1288q0 37 33 37h84q37 0 37 -37v-1042h6l170 268l494 778q23 33 51 33h84q33 0 33 -31v-1292q0 -35 -37 -35h-84q-35 0 -35 35v1055h-6l-137 -224l-529 -833q-20 -33 -53 -33h-78q-33 0 -33 33z" />
<glyph unicode="&#x419;" horiz-adv-x="1288" d="M147 33v1288q0 37 33 37h84q37 0 37 -37v-1042h6l170 268l494 778q23 33 51 33h84q33 0 33 -31v-1292q0 -35 -37 -35h-84q-35 0 -35 35v1055h-6l-137 -224l-529 -833q-20 -33 -53 -33h-78q-33 0 -33 33zM328 1624l43 33q16 12 35 -6q66 -78 112.5 -109t116.5 -31 q45 0 85 20.5t56.5 37t75.5 82.5q18 18 35 6l43 -29q12 -8 -6 -53q-45 -94 -124 -143.5t-169 -49.5q-205 0 -297 189q-16 43 -6 53z" />
<glyph unicode="&#x41a;" horiz-adv-x="1126" d="M143 35v1286q0 37 37 37h88q33 0 33 -37v-557h221q53 0 93 11t85 57.5t72 130.5l111 354q12 39 51 39h67q33 0 40.5 -13.5t-3.5 -37.5l-106 -347q-61 -211 -195 -256q141 -43 207 -268l115 -383q10 -25 3 -38t-40 -13h-78q-39 0 -51 39l-109 369q-39 123 -100 166.5 t-152 43.5h-231v-583q0 -35 -33 -35h-88q-37 0 -37 35z" />
<glyph unicode="&#x41b;" horiz-adv-x="1200" d="M10 78q0 27 29 31q68 12 105.5 30.5t64.5 58.5t39 104.5t21.5 168.5t19.5 256q2 51 4 78l33 516q0 37 36 37h662q33 0 33 -37v-1286q0 -35 -33 -35h-88q-37 0 -37 35v1175h-430l-29 -452q-4 -43 -8 -119t-6 -118t-9 -107.5t-14.5 -103.5t-21.5 -89t-32.5 -80.5 t-46.5 -63.5t-61.5 -51.5t-80.5 -29.5t-103 -12q-29 0 -37 8t-8 28z" />
<glyph unicode="&#x41c;" horiz-adv-x="1513" d="M152 35v1292q0 31 30 31h90q31 0 45 -31l340 -706l99 -213h4l100 221l340 696q18 33 51 33h82q31 0 31 -31v-1292q0 -35 -35 -35h-88q-37 0 -37 35v971h-6l-72 -158l-299 -610q-12 -27 -41 -27h-59q-31 0 -43 25l-311 634l-64 136h-4v-971q0 -35 -33 -35h-86 q-34 0 -34 35z" />
<glyph unicode="&#x41d;" horiz-adv-x="1218" d="M147 35v1286q0 37 37 37h88q33 0 33 -37v-528h608v528q0 37 37 37h88q33 0 33 -37v-1286q0 -35 -33 -35h-88q-37 0 -37 35v610h-608v-610q0 -35 -33 -35h-88q-37 0 -37 35z" />
<glyph unicode="&#x41e;" horiz-adv-x="1306" d="M127 698q0 676 522 676q135 0 234.5 -40t155 -101.5t88 -154.5t43 -180t10.5 -200q0 -115 -8.5 -200.5t-40 -189t-86 -170t-157 -111.5t-241.5 -45q-100 0 -180 23.5t-133 61t-92 96t-60.5 117t-35 136.5t-16.5 140t-3 142zM291 678q0 -272 76.5 -412.5t279.5 -140.5 q211 0 292 137t81 416q0 283 -82 420t-291 137q-195 0 -275.5 -141.5t-80.5 -415.5z" />
<glyph unicode="&#x41f;" horiz-adv-x="1220" d="M150 35v1286q0 37 36 37h854q33 0 33 -37v-1286q0 -35 -33 -35h-88q-37 0 -37 35v1175h-608v-1175q0 -35 -33 -35h-88q-36 0 -36 35z" />
<glyph unicode="&#x420;" horiz-adv-x="1054" d="M147 35v1290q0 33 37 33h389q188 0 305 -101.5t117 -293.5q0 -76 -20.5 -144.5t-65.5 -131t-131 -99.5t-203 -37h-268v-516q0 -35 -35 -35h-88q-37 0 -37 35zM307 692h266q264 0 265 269q0 125 -74 188t-203 63h-254v-520z" />
<glyph unicode="&#x421;" horiz-adv-x="1101" d="M133 664q0 119 11.5 213t45 190t89 160.5t150.5 104.5t224 40q231 0 367 -53q33 -14 27 -45l-13 -57q-8 -27 -39 -23q-211 29 -342 29q-92 0 -158.5 -31t-103.5 -79t-57.5 -126t-26.5 -149.5t-6 -173.5q0 -90 7 -161t29.5 -143.5t60.5 -119.5t102.5 -77t152.5 -30 q111 0 340 29q33 4 41 -25l10 -53q6 -35 -22 -45q-133 -55 -369 -55q-125 0 -219 37.5t-150.5 98t-91 151.5t-47 184.5t-12.5 208.5z" />
<glyph unicode="&#x422;" horiz-adv-x="985" d="M35 1245v80q0 33 35 33h848q35 0 34 -33v-80q0 -35 -37 -35h-344v-1175q0 -35 -32 -35h-88q-37 0 -37 35v1175h-342q-37 0 -37 35z" />
<glyph unicode="&#x423;" horiz-adv-x="1095" d="M55 1329q-4 10 0 18.5t17 8.5h121q27 0 38 -25l160 -413l166 -443h6l174 461l152 397q14 25 43 25h100q33 0 19 -31l-416 -1038q-76 -170 -135.5 -237.5t-167.5 -69.5q-70 0 -129 12q-43 8 -37 45l8 55q4 31 37 29q111 -4 151.5 17.5t79.5 101.5l33 65z" />
<glyph unicode="&#x424;" horiz-adv-x="1509" d="M123 688q0 74 13.5 144.5t51 150.5t97 141.5t160 106.5t231.5 55v35q0 37 37 37h88q35 0 37 -37v-35q135 -8 237.5 -52t160.5 -103.5t93 -140.5t46 -151.5t11 -150.5q0 -117 -26.5 -216t-87 -186t-172 -142.5t-264.5 -67.5v-41q0 -35 -35 -35h-88q-35 0 -35 35v41 q-133 6 -235.5 48t-162 101.5t-96.5 141.5t-49 158.5t-12 162.5zM281 682q0 -211 91 -330t306 -139v938q-209 -16 -303 -144t-94 -325zM836 213q391 23 391 467q0 70 -10.5 130t-37 121.5t-69.5 106.5t-112.5 75t-161.5 36v-936z" />
<glyph unicode="&#x425;" horiz-adv-x="1069" d="M37 9q-4 9 4 22l408 667l-377 627q-8 12 -4 22.5t18 10.5h119q27 0 43 -27l160 -278l124 -217l127 223l158 270q14 27 47 27h111q14 2 19 -9.5t-1 -21.5l-377 -627l408 -669q8 -10 3 -19.5t-19 -9.5h-117q-29 0 -45 29l-180 305l-134 227l-122 -213l-191 -319 q-16 -29 -47 -29h-117q-14 0 -18 9z" />
<glyph unicode="&#x426;" horiz-adv-x="1220" d="M150 37v1286q0 35 36 35h88q33 0 33 -35v-1176h608v1176q0 35 37 35h88q33 0 33 -35v-1171l86 -9q29 -6 29 -43l-21 -360q-2 -43 -26 -43h-82q-27 0 -29 43l-12 260h-832q-36 0 -36 37z" />
<glyph unicode="&#x427;" horiz-adv-x="1148" d="M90 926v395q0 37 35 37h90q35 0 35 -37v-358q0 -121 53 -191t197 -70q203 0 342 43v580q0 33 35 33h88q37 0 36 -33v-1290q0 -35 -36 -35h-88q-35 0 -35 35v575q-145 -59 -371 -59q-381 0 -381 375z" />
<glyph unicode="&#x428;" horiz-adv-x="1671" d="M150 39v1286q0 35 36 35h88q33 0 33 -35v-1175h453v1171q0 37 37 37h90q35 0 35 -37v-1171h442v1175q0 35 37 35h88q33 0 33 -35v-1286q0 -39 -33 -39h-1303q-36 0 -36 39z" />
<glyph unicode="&#x429;" horiz-adv-x="1671" d="M150 39v1286q0 35 36 35h88q33 0 33 -35v-1175h453v1171q0 37 37 37h90q35 0 35 -37v-1174h442v1178q0 35 37 35h88q33 0 33 -35v-1173l86 -9q29 -6 28 -43l-20 -360q-2 -43 -27 -43h-82q-27 0 -28 43l-13 260h-1280q-36 0 -36 39z" />
<glyph unicode="&#x42a;" horiz-adv-x="1419" d="M10 1243v80q0 33 35 33h528q35 0 35 -35v-524h310q123 0 209.5 -36t129.5 -97.5t61.5 -127t18.5 -143.5q0 -190 -118.5 -291.5t-303.5 -101.5h-430q-37 0 -36 33v1175h-402q-37 0 -37 35zM608 143h295q129 0 203 63.5t74 188.5q0 260 -258 260h-314v-512z" />
<glyph unicode="&#x42b;" horiz-adv-x="1503" d="M143 33v1288q0 35 37 35h88q35 0 35 -35v-524h309q121 0 208 -36t131 -97.5t62.5 -127t18.5 -143.5q0 -190 -118.5 -291.5t-303.5 -101.5h-430q-37 0 -37 33zM303 143h295q129 0 202.5 63.5t73.5 188.5q0 260 -258 260h-313v-512zM1198 35v1286q0 37 37 37h90 q35 0 35 -37v-1286q0 -35 -35 -35h-90q-37 0 -37 35z" />
<glyph unicode="&#x42c;" horiz-adv-x="1093" d="M143 33v1288q0 35 37 35h88q35 0 35 -35v-524h309q121 0 207 -36t130 -97.5t63.5 -128t19.5 -142.5q0 -190 -118.5 -291.5t-303.5 -101.5h-430q-37 0 -37 33zM303 143h295q129 0 202.5 63.5t73.5 188.5q0 260 -258 260h-313v-512z" />
<glyph unicode="&#x42d;" horiz-adv-x="1101" d="M115 82l12 57q8 27 39 23q211 -29 342 -29q106 0 181 38t115 110.5t58.5 156.5t20.5 195h-512q-35 0 -35 33v79q0 33 35 33h510q-6 102 -19.5 172t-47.5 137.5t-101.5 101.5t-167.5 34q-92 0 -322 -29q-33 -4 -41 25l-10 53q-6 35 23 45q133 55 350 55q109 0 192.5 -24.5 t138 -73.5t90 -107.5t54 -141.5t25 -158.5t6.5 -174.5q0 -709 -543 -708q-231 0 -367 53q-32 14 -26 45z" />
<glyph unicode="&#x42e;" horiz-adv-x="1611" d="M150 35v1286q0 37 36 37h88q33 0 33 -37v-528h168q4 88 16.5 158.5t46 153.5t85 138t141.5 93t209 38q113 0 200 -25.5t141 -76.5t90 -109.5t52.5 -142.5t22.5 -155.5t6 -166.5q0 -72 -2 -124t-9.5 -123.5t-22.5 -123t-38.5 -108.5t-62.5 -97t-91.5 -74t-125 -50 t-160.5 -16q-131 0 -225.5 40.5t-145.5 100t-80.5 156t-38 176.5t-10.5 190h-166v-610q0 -35 -33 -35h-88q-36 0 -36 35zM637 678q0 -133 14.5 -227.5t50 -172t103 -115.5t168.5 -38q199 0 275.5 137t76.5 416q0 289 -72.5 423t-279.5 134q-193 0 -264.5 -138t-71.5 -419z " />
<glyph unicode="&#x42f;" horiz-adv-x="1116" d="M64.5 13.5q-7.5 13.5 3.5 37.5l100 357q51 172 151 229q-96 31 -147 121t-51 196q0 195 123 299.5t293 104.5h397q35 0 35 -33v-1290q0 -35 -35 -35h-88q-35 0 -35 37v553h-244q-86 -4 -148.5 -49t-96.5 -160l-95 -342q-12 -39 -51 -39h-72q-32 0 -39.5 13.5zM287 969 q0 -238 276 -238h248v479h-260q-96 0 -180 -57t-84 -184z" />
<glyph unicode="&#x430;" horiz-adv-x="1052" d="M90 266q0 176 90 260t291 84h283v70q0 113 -52.5 156t-187.5 43q-133 0 -289 -19q-35 -6 -41 19l-12 53q-6 29 33 45q117 41 340 41q121 0 195.5 -24.5t110.5 -78t47 -110.5t11 -152v-452q0 -59 11.5 -71.5t62.5 -16.5q35 -2 35 -27v-51q0 -31 -41 -37q-37 -6 -72 -6 q-72 0 -105.5 26.5t-43.5 92.5h-4q-215 -127 -385 -127q-145 0 -211 70.5t-66 211.5zM248 272q0 -84 33.5 -115.5t124.5 -31.5q145 0 348 117v239h-301q-100 0 -152.5 -46t-52.5 -163z" />
<glyph unicode="&#x431;" horiz-adv-x="1030" d="M104 451q0 137 4.5 229t16.5 195.5t38.5 172t69.5 134t110 109.5t157 73q96 29 336 76q33 8 36 -17l17 -63q12 -39 -23 -47q-8 -2 -252 -58q-188 -49 -259.5 -138t-88.5 -281q2 0 4 -2q96 119 301 118q373 0 373 -479q0 -78 -9 -141.5t-36 -131t-73 -112.5t-125.5 -74.5 t-186.5 -29.5q-410 0 -410 467zM260 449q0 -68 9.5 -118t35 -100.5t79.5 -77t136 -26.5q84 0 139.5 26.5t81 78t34.5 104.5t9 127q0 78 -8 133t-32.5 108.5t-73.5 81t-125 27.5q-90 0 -150.5 -32.5t-88 -91t-37 -113.5t-9.5 -127z" />
<glyph unicode="&#x432;" horiz-adv-x="995" d="M109 41v920q0 37 45 36h403q164 0 244 -69.5t80 -192.5q0 -141 -119 -209q78 -35 112.5 -102.5t34.5 -136.5q0 -127 -94 -207t-231 -80h-422q-53 0 -53 41zM264 143h285q109 0 156 46.5t47 103.5q0 68 -42 114t-130 46h-316v-310zM264 586h303q70 0 114 41t44 100 q0 57 -42 94t-136 37h-283v-272z" />
<glyph unicode="&#x433;" horiz-adv-x="862" d="M113 41v915q0 41 49 41h624q45 0 45 -41v-59q0 -41 -47 -41h-516v-815q0 -23 -9 -32t-34 -9h-63q-49 0 -49 41z" />
<glyph unicode="&#x434;" horiz-adv-x="1146" d="M23 86q-2 33 34 43l54 8q59 33 87.5 99.5t51.5 195.5l72 473q14 92 118 92h504q53 0 53 -51v-805l68 -8q33 -8 29 -43l-21 -319q-2 -43 -26 -43h-76q-27 0 -29 43l-8 229h-756l-16 -229q-2 -43 -27 -43h-78q-27 0 -28 43zM309 143h535v711h-387l-43 -324 q-27 -197 -46.5 -263.5t-58.5 -123.5z" />
<glyph unicode="&#x435;" horiz-adv-x="1001" d="M94 498q0 520 416 520q100 0 176 -26.5t119 -66.5t69.5 -103.5t36 -122t13.5 -134.5q4 -117 -90 -116h-578q2 -184 62.5 -254t205.5 -70q70 0 285 25q41 4 47 -27l8 -45q6 -29 -22 -41q-131 -55 -328 -55q-109 0 -187.5 29.5t-122.5 74.5t-69.5 117.5t-33 138.5t-7.5 156 zM256 578h502q0 61 -9.5 108t-34 94t-77.5 73t-131 26q-129 0 -184.5 -75.5t-65.5 -225.5z" />
<glyph unicode="&#x436;" horiz-adv-x="1380" d="M45 11.5q-6 11.5 2 31.5l86 262q31 94 64.5 142.5t105.5 72.5q-86 27 -149 215l-74 219q-10 20 -4 31.5t35 11.5h75q33 0 43 -32l78 -226q35 -100 87 -133t122 -33h96v394q0 31 31 30h96q29 0 29 -30v-394h96q45 0 77 9.5t70 48.5t62 108l78 226q10 33 43 32h76 q29 0 35 -11t-5 -32l-73 -219q-63 -188 -150 -215q72 -25 106 -73t64 -142l86 -262q8 -20 2 -31.5t-32 -11.5h-84q-33 0 -43 33l-78 237q-33 100 -88.5 133t-137.5 33h-104v-407q0 -29 -29 -29h-96q-31 0 -31 29v407h-104q-53 0 -89 -9t-75 -48t-61 -109l-78 -237 q-10 -33 -43 -33h-84q-27 0 -33 11.5z" />
<glyph unicode="&#x437;" horiz-adv-x="841" d="M10 80l8 41q4 33 45 24q180 -20 265 -20q127 0 193.5 36t66.5 140q0 88 -58.5 129t-150.5 41h-68q-18 0 -25 5t-7 24v69q0 16 6 21.5t26 5.5h64q80 0 136 33t56 104q0 145 -198 146q-23 0 -252 -17q-43 -6 -49 27l-9 49q-2 25 23 37q92 45 299 45q350 0 350 -268 q0 -68 -41 -125.5t-112 -81.5v-4q86 -27 132 -88.5t46 -141.5q0 -172 -113 -249.5t-289 -77.5q-231 0 -323 53q-27 14 -21 43z" />
<glyph unicode="&#x438;" horiz-adv-x="1058" d="M113 41v913q0 25 9 34t32 9h67q45 0 45 -43v-686l219 295l312 404q27 31 55 30h51q43 0 43 -39v-917q0 -41 -45 -41h-61q-47 0 -47 41v721l-183 -250l-364 -481q-25 -31 -58 -31h-34q-23 0 -32 9t-9 32z" />
<glyph unicode="&#x439;" horiz-adv-x="1058" d="M113 41v913q0 25 9 34t32 9h67q45 0 45 -43v-686l219 295l312 404q27 31 55 30h51q43 0 43 -39v-917q0 -41 -45 -41h-61q-47 0 -47 41v721l-183 -250l-364 -481q-25 -31 -58 -31h-34q-23 0 -32 9t-9 32zM225 1343l43 33q16 12 35 -6q66 -78 113 -108.5t116 -30.5 q45 0 85 20.5t56.5 37t76.5 81.5q18 18 34 6l43 -28q12 -8 -6 -54q-45 -94 -124 -143t-169 -49q-205 0 -297 188q-16 43 -6 53z" />
<glyph unicode="&#x43a;" horiz-adv-x="931" d="M113 29v938q0 31 30 30h97q29 0 28 -30v-394h138q45 0 76.5 9.5t69.5 48.5t62 108l78 226q10 33 43 32h76q29 0 35 -11t-4 -32l-74 -219q-63 -188 -150 -215q72 -25 106 -73t64 -142l86 -262q8 -20 2 -31.5t-32 -11.5h-84q-33 0 -43 33l-78 237q-33 100 -88 133t-137 33 h-146v-407q0 -29 -28 -29h-97q-30 0 -30 29z" />
<glyph unicode="&#x43b;" horiz-adv-x="1040" d="M10 14v56q0 25 27 28q106 23 140 73t50 222l49 504q6 55 34 77.5t85 22.5h486q47 0 47 -43v-913q0 -41 -43 -41h-68q-43 0 -43 41v815h-364l-43 -512q-8 -90 -19.5 -143.5t-42.5 -108.5t-92 -81.5t-158 -28.5q-27 0 -36 7t-9 25z" />
<glyph unicode="&#x43c;" horiz-adv-x="1226" d="M113 41v917q0 39 41 39h67q37 0 53 -30q43 -74 205 -373q4 -8 57.5 -109.5t81.5 -150.5l148 274l197 357q18 33 55 32h57q39 0 39 -39v-917q0 -41 -43 -41h-65q-45 0 -45 41v623h-9l-118 -226l-144 -260q-18 -29 -49 -28h-51q-37 0 -49 26l-135 246l-134 244h-6v-625 q0 -41 -45 -41h-65q-43 0 -43 41z" />
<glyph unicode="&#x43d;" horiz-adv-x="1052" d="M113 41v913q0 43 45 43h63q45 0 45 -43v-356h520v356q0 43 50 43h59q45 0 45 -43v-913q0 -41 -45 -41h-59q-49 0 -50 41v420h-520v-420q0 -41 -45 -41h-63q-45 0 -45 41z" />
<glyph unicode="&#x43e;" horiz-adv-x="1030" d="M94 516q0 502 414 502q109 0 189.5 -30t125.5 -75t71 -115.5t34 -134t8 -147.5q0 -72 -4 -124t-17.5 -119.5t-42 -113.5t-73.5 -89t-119 -64.5t-172 -21.5q-113 0 -192.5 33.5t-121.5 81.5t-66 127t-29 140.5t-5 149.5zM252 501.5q0 -200.5 52 -287.5t204 -87 q160 0 214 85t54 290q0 203 -54 289t-214 86q-152 0 -204 -87.5t-52 -288z" />
<glyph unicode="&#x43f;" horiz-adv-x="1044" d="M113 35v928q0 35 34 34h750q35 0 35 -36v-926q0 -35 -37 -35h-86q-33 0 -33 35v823h-510v-823q0 -35 -35 -35h-84q-34 0 -34 35z" />
<glyph unicode="&#x440;" horiz-adv-x="1019" d="M113 -322v1285q0 35 34 34h84q35 0 35 -34v-74l6 -4q207 131 349 131q186 0 259.5 -125t73.5 -383q0 -270 -88 -398t-313 -128q-137 0 -283 57l-2 -2v-359q0 -39 -37 -38h-84q-20 0 -27 7.5t-7 30.5zM268 168q156 -45 295 -45q131 0 180.5 85t49.5 306q0 152 -21.5 231.5 t-58.5 104t-107 24.5q-123 0 -338 -116v-590z" />
<glyph unicode="&#x441;" horiz-adv-x="870" d="M92 506q0 88 8.5 154.5t34 137t68.5 115.5t119.5 75t181.5 30q199 0 311 -47q25 -10 21 -43l-9 -47q-8 -27 -53 -23q-209 20 -272 21q-139 0 -191.5 -81t-52.5 -290q0 -221 53.5 -303t190.5 -82q117 0 280 20q41 4 45 -26l9 -43q6 -29 -23 -43q-102 -47 -309 -47 q-104 0 -180 27.5t-120 72.5t-69.5 115.5t-34 140.5t-8.5 166z" />
<glyph unicode="&#x442;" horiz-adv-x="862" d="M23 899v57q0 41 47 41h725q45 0 45 -41v-57q0 -25 -10.5 -34t-36.5 -9h-283v-815q0 -41 -45 -41h-59q-49 0 -50 41v815h-284q-49 0 -49 43z" />
<glyph unicode="&#x443;" horiz-adv-x="954" d="M51 965q-12 33 17 32h108q23 0 33 -28l168 -469l110 -314l115 328l156 457q8 27 33 26h110q25 0 14 -30l-469 -1299q-10 -29 -40 -28h-95q-29 0 -18 32l119 328z" />
<glyph unicode="&#x444;" horiz-adv-x="1302" d="M92 485q0 98 20.5 182.5t70.5 165t150.5 129t244.5 52.5v309q0 35 34 35h78q37 0 37 -35v-309q143 -4 243.5 -48t149.5 -121t69.5 -160t20.5 -187q0 -233 -122.5 -369.5t-360.5 -146.5v-312q0 -31 -29 -30h-86q-35 0 -34 34v308q-240 10 -363 141t-123 362zM250 485 q0 -348 328 -366v753q-328 -2 -328 -387zM727 119q326 18 326 366q0 385 -326 387v-753z" />
<glyph unicode="&#x445;" horiz-adv-x="886" d="M22.5 10q-4.5 10 2.5 23l325 475l-309 457q-8 12 -3 22t19 10h123q16 0 37 -26l223 -338l222 338q16 27 36 26h125q14 0 19.5 -10t-2.5 -22l-312 -455l326 -477q8 -12 3 -22.5t-19 -10.5h-125q-25 0 -41 27l-234 360l-235 -360q-16 -27 -43 -27h-119q-14 0 -18.5 10z" />
<glyph unicode="&#x446;" horiz-adv-x="1064" d="M113 43v913q0 41 45 41h65q43 0 43 -41v-813h488v813q0 41 47 41h59q47 0 47 -41l2 -809l74 -6q33 -2 29 -43l-21 -313q-2 -43 -26 -43h-78q-27 0 -29 43l-6 215h-694q-45 0 -45 43z" />
<glyph unicode="&#x447;" horiz-adv-x="968" d="M61 688v275q0 35 37 34h86q35 0 35 -34v-244q0 -129 34 -175t130 -46q123 0 319 98v367q0 35 37 34h84q33 0 33 -34v-926q0 -35 -33 -35h-84q-37 0 -37 35v430l-2 2q-172 -113 -342 -113q-96 0 -158.5 26t-91 77t-38 102t-9.5 127z" />
<glyph unicode="&#x448;" horiz-adv-x="1402" d="M113 45v909q0 43 45 43h63q45 0 45 -43v-811h365v811q0 43 47 43h59q47 0 47 -43v-811h353v811q0 43 49 43h63q23 0 32 -9t9 -34v-909q0 -45 -41 -45h-1091q-45 0 -45 45z" />
<glyph unicode="&#x449;" horiz-adv-x="1445" d="M113 45v909q0 43 45 43h63q45 0 45 -43v-811h365v811q0 43 47 43h59q47 0 47 -43v-811h353v811q0 43 49 43h63q23 0 32 -9t9 -34v-809l74 -6q33 -2 29 -43l-19 -317q-2 -43 -26 -43h-78q-27 0 -29 43l-8 221h-1075q-45 0 -45 45z" />
<glyph unicode="&#x44a;" horiz-adv-x="1163" d="M8 897v61q0 23 9.5 31t35.5 8h379q45 0 45 -41v-348h293q176 0 254 -86t78 -217q0 -143 -100.5 -224t-253.5 -81h-373q-51 0 -51 41v815h-269q-27 0 -37 9t-10 32zM477 143h273q92 0 146 41t54 121q0 160 -186 160h-287v-322z" />
<glyph unicode="&#x44b;" horiz-adv-x="1273" d="M113 41v915q0 41 51 41h57q45 0 45 -41v-348h314q162 0 236.5 -86t74.5 -217q0 -143 -97.5 -224t-236.5 -81h-393q-51 0 -51 41zM266 143h293q82 0 131 42t49 120q0 72 -41 116t-125 44h-307v-322zM1006 41v913q0 43 47 43h63q45 0 45 -43v-913q0 -41 -45 -41h-63 q-47 0 -47 41z" />
<glyph unicode="&#x44c;" horiz-adv-x="952" d="M113 41v915q0 41 51 41h57q45 0 45 -41v-348h314q162 0 236.5 -86t74.5 -217q0 -143 -97.5 -224t-236.5 -81h-393q-51 0 -51 41zM266 143h293q82 0 131 42t49 120q0 72 -41 116t-125 44h-307v-322z" />
<glyph unicode="&#x44d;" horiz-adv-x="888" d="M53 78l8 43q4 31 45 26q164 -20 281 -20q129 0 183.5 70.5t60.5 259.5h-404q-25 0 -34 7t-9 32v57q0 20 9.5 28.5t33.5 8.5h402q-8 162 -61.5 227.5t-180.5 65.5q-39 0 -250 -21q-45 -4 -53 23l-8 47q-4 33 20 43q113 47 305 47q104 0 179 -29.5t116 -74t64.5 -117 t30 -137t6.5 -154.5q0 -258 -87 -390t-325 -132q-207 0 -309 47q-29 14 -23 43z" />
<glyph unicode="&#x44e;" horiz-adv-x="1296" d="M113 41v913q0 43 45 43h65q43 0 43 -43v-356h135q20 420 394 420q80 0 142 -16.5t104 -42t73 -67.5t47.5 -82t26.5 -95.5t12 -98.5t2 -100q0 -63 -1 -100t-9 -100.5t-22.5 -103.5t-45 -88t-72.5 -74.5t-107.5 -46t-149.5 -19.5q-104 0 -179 30.5t-116 73.5t-63.5 112.5 t-29 126t-6.5 134.5h-135v-420q0 -41 -43 -41h-65q-45 0 -45 41zM559 502q0 -205 44 -290t192 -85q156 0 201.5 87t45.5 288q0 197 -46 286t-201 89q-145 0 -190.5 -90t-45.5 -285z" />
<glyph unicode="&#x44f;" horiz-adv-x="1011" d="M65.5 11.5q-6.5 11.5 2.5 31.5l77 236q43 131 109 167q-152 45 -152 248q0 143 97.5 224t240.5 81h408q51 0 51 -41v-915q0 -41 -51 -41h-57q-45 0 -46 41v365h-282q-63 -6 -101 -41t-67 -123l-70 -211q-10 -33 -43 -33h-84q-26 0 -32.5 11.5zM254 694q0 -154 195 -153 h296v315h-282q-92 0 -150.5 -42t-58.5 -120z" />
<glyph unicode="&#x450;" horiz-adv-x="1001" d="M94 498q0 520 416 520q100 0 176 -26.5t119 -66.5t69.5 -103.5t36 -122t13.5 -134.5q4 -117 -90 -116h-578q2 -184 62.5 -254t205.5 -70q70 0 285 25q41 4 47 -27l8 -45q6 -29 -22 -41q-131 -55 -328 -55q-109 0 -187.5 29.5t-122.5 74.5t-69.5 117.5t-33 138.5t-7.5 156 zM256 578h502q0 61 -9.5 108t-34 94t-77.5 73t-131 26q-129 0 -184.5 -75.5t-65.5 -225.5zM324 1389q-16 20 6 30l94 41q27 12 35 -6l143 -293q10 -23 -6 -28l-59 -27q-20 -8 -31 6z" />
<glyph unicode="&#x451;" horiz-adv-x="1001" d="M94 498q0 520 416 520q100 0 176 -26.5t119 -66.5t69.5 -103.5t36 -122t13.5 -134.5q4 -117 -90 -116h-578q2 -184 62.5 -254t205.5 -70q70 0 285 25q41 4 47 -27l8 -45q6 -29 -22 -41q-131 -55 -328 -55q-109 0 -187.5 29.5t-122.5 74.5t-69.5 117.5t-33 138.5t-7.5 156 zM256 578h502q0 61 -9.5 108t-34 94t-77.5 73t-131 26q-129 0 -184.5 -75.5t-65.5 -225.5zM266 1264q0 84 86 84q49 0 66.5 -21.5t17.5 -62.5q0 -90 -84 -90q-51 0 -68.5 23.5t-17.5 66.5zM643 1264q0 84 84 84q49 0 67.5 -21.5t18.5 -62.5q0 -90 -86 -90q-84 0 -84 90z" />
<glyph unicode="&#x452;" horiz-adv-x="1126" d="M35 1153v53q0 37 35 37h102v166q0 35 33 35h84q37 0 37 -35v-166h422q35 0 34 -35v-55q0 -35 -34 -35h-422v-262q172 90 331 94q172 2 274.5 -115.5t102.5 -353.5q0 -203 -102.5 -382t-304.5 -277q-27 -10 -37 -7t-21 23l-22 43q-14 27 12 39q311 186 311 582 q0 162 -67.5 234.5t-177.5 72.5q-137 0 -299 -88v-686q0 -35 -33 -35h-84q-37 0 -37 35v1083h-102q-35 0 -35 35z" />
<glyph unicode="&#x453;" horiz-adv-x="862" d="M113 41v915q0 41 49 41h624q45 0 45 -41v-59q0 -41 -47 -41h-516v-815q0 -23 -9 -32t-34 -9h-63q-49 0 -49 41zM365 1161l143 293q8 18 35 6l94 -41q23 -10 6 -30l-182 -271q-10 -14 -31 -6l-59 21q-16 5 -6 28z" />
<glyph unicode="&#x454;" horiz-adv-x="899" d="M92 506q0 88 8.5 154.5t34 137t68.5 115.5t119.5 75t181.5 30q199 0 311 -47q25 -10 21 -43l-9 -47q-8 -27 -53 -23q-209 20 -272 21q-127 0 -180.5 -65.5t-61.5 -227.5h402q25 0 34 -8.5t9 -28.5v-57q0 -25 -9.5 -32t-33.5 -7h-404q6 -188 60.5 -259t183.5 -71 q117 0 280 20q41 4 45 -26l9 -43q6 -29 -23 -43q-102 -47 -309 -47q-106 0 -181 25.5t-120 67.5t-69.5 112.5t-33 142.5t-8.5 174z" />
<glyph unicode="&#x455;" horiz-adv-x="892" d="M90 74l8 43q4 31 45 26q184 -23 289 -22q113 0 164 36t51 113q0 90 -39 122t-162 50q-84 12 -137 27.5t-108.5 45.5t-83 82t-27.5 128q0 141 95.5 217t263.5 76q197 0 307 -45q29 -14 20 -43l-8 -49q-4 -27 -53 -23q-211 20 -269 21q-113 0 -154.5 -34t-41.5 -116 q0 -74 40 -97.5t171 -43.5q84 -12 134 -26.5t105.5 -46.5t82 -88t26.5 -140q0 -158 -108.5 -230.5t-274.5 -72.5q-211 0 -313 47q-27 12 -23 43z" />
<glyph unicode="&#x456;" horiz-adv-x="456" d="M141 1264q0 88 88 88q51 0 69.5 -21.5t18.5 -66.5t-18 -69t-70 -24q-53 0 -70.5 24t-17.5 69zM152 35v928q0 35 36 34h84q33 0 33 -34v-928q0 -35 -33 -35h-84q-36 0 -36 35z" />
<glyph unicode="&#x457;" horiz-adv-x="456" d="M-39 1249q0 84 86 84q49 0 66.5 -21.5t17.5 -62.5q0 -90 -84 -90q-51 0 -68.5 23.5t-17.5 66.5zM152 35v928q0 35 36 34h84q33 0 33 -34v-928q0 -35 -33 -35h-84q-36 0 -36 35zM338 1249q0 84 84 84q49 0 67.5 -21.5t18.5 -62.5q0 -90 -86 -90q-84 0 -84 90z" />
<glyph unicode="&#x458;" horiz-adv-x="491" d="M-100 -336q-2 33 28 39q156 31 203 69t47 154v1037q0 35 37 34h82q37 0 37 -34v-1033q0 -82 -13.5 -138t-52.5 -109.5t-119.5 -79t-203.5 -21.5q-39 0 -41 35zM168 1264q0 88 88 88q51 0 69.5 -21.5t18.5 -66.5t-18.5 -69t-69.5 -24q-53 0 -70.5 24t-17.5 69z" />
<glyph unicode="&#x459;" horiz-adv-x="1560" d="M10 14v56q0 25 27 28q106 23 140 73t50 222l49 504q6 55 34 77.5t85 22.5h436q43 0 43 -41v-348h293q176 0 254 -86t78 -217q0 -143 -100.5 -224t-253.5 -81h-373q-51 0 -51 41v817l-311 -2l-43 -512q-8 -90 -19.5 -143.5t-42.5 -108.5t-92 -81.5t-158 -28.5q-27 0 -36 7 t-9 25zM874 143h273q92 0 146.5 41t54.5 121q0 160 -187 160h-287v-322z" />
<glyph unicode="&#x45a;" horiz-adv-x="1499" d="M113 41v913q0 43 47 43h63q43 0 43 -43v-354h404v356q0 41 51 41h57q45 0 45 -41v-348h293q176 0 254 -86t78 -217q0 -143 -100.5 -224t-253.5 -81h-373q-51 0 -51 41v426h-404v-426q0 -41 -43 -41h-63q-47 0 -47 41zM823 143h273q92 0 146 41t54 121q0 160 -186 160 h-287v-322z" />
<glyph unicode="&#x45b;" horiz-adv-x="1075" d="M2 1151v53q0 37 35 37h102v168q0 35 33 35h84q37 0 37 -35v-168h434q35 0 35 -35v-55q0 -35 -35 -35h-434v-266q0 -4 2 -4q201 131 364 131q96 0 158 -26.5t91.5 -83t38.5 -116t9 -153.5v-563q0 -35 -36 -35h-86q-35 0 -35 35l2 583q0 129 -35 173.5t-131 44.5 q-109 0 -342 -117v-684q0 -35 -37 -35h-84q-33 0 -33 35v1081h-102q-35 0 -35 35z" />
<glyph unicode="&#x45c;" horiz-adv-x="931" d="M113 29v938q0 31 30 30h97q29 0 28 -30v-394h138q45 0 76.5 9.5t69.5 48.5t62 108l78 226q10 33 43 32h76q29 0 35 -11t-4 -32l-74 -219q-63 -188 -150 -215q72 -25 106 -73t64 -142l86 -262q8 -20 2 -31.5t-32 -11.5h-84q-33 0 -43 33l-78 237q-33 100 -88 133t-137 33 h-146v-407q0 -29 -28 -29h-97q-30 0 -30 29zM375 1161l143 293q8 18 35 6l94 -41q23 -10 6 -30l-182 -271q-10 -14 -31 -6l-59 21q-16 5 -6 28z" />
<glyph unicode="&#x45d;" horiz-adv-x="1058" d="M113 41v913q0 25 9 34t32 9h67q45 0 45 -43v-686l219 295l312 404q27 31 55 30h51q43 0 43 -39v-917q0 -41 -45 -41h-61q-47 0 -47 41v721l-183 -250l-364 -481q-25 -31 -58 -31h-34q-23 0 -32 9t-9 32zM326 1389q-16 20 6 30l94 41q27 12 35 -6l143 -293q10 -23 -6 -28 l-59 -27q-20 -8 -31 6z" />
<glyph unicode="&#x45e;" horiz-adv-x="954" d="M51 965q-12 33 17 32h108q23 0 33 -28l168 -469l110 -314l115 328l156 457q8 27 33 26h110q25 0 14 -30l-469 -1299q-10 -29 -40 -28h-95q-29 0 -18 32l119 328zM186 1376l43 33q16 12 35 -6q66 -78 113 -108.5t117 -30.5q68 0 108.5 29.5t108.5 109.5q18 18 34 6l43 -29 q10 -10 -6 -53q-45 -94 -123.5 -143t-169.5 -49q-205 0 -296 188q-17 43 -7 53z" />
<glyph unicode="&#x45f;" horiz-adv-x="1044" d="M113 43v913q0 41 45 41h63q45 0 45 -41v-813h510v813q0 41 49 41h62q45 0 45 -41v-913q0 -43 -45 -43h-285l-12 -229q-2 -43 -27 -43h-78q-29 0 -28 43l-13 229h-286q-45 0 -45 43z" />
<glyph unicode="&#x490;" horiz-adv-x="980" d="M156 35v1290q0 33 37 33h610l33 221q4 27 10 35t20 8h56q25 0 24 -43v-326q0 -43 -33 -43h-598v-1175q0 -35 -32 -35h-90q-37 0 -37 35z" />
<glyph unicode="&#x491;" horiz-adv-x="860" d="M141 41v915q0 41 49 41h515l32 203q4 18 8.5 22.5t14.5 4.5h45q23 0 22 -27v-293q0 -49 -30 -49h-502v-817q0 -23 -9.5 -32t-33.5 -9h-62q-49 0 -49 41z" />
<glyph unicode="&#x4d9;" horiz-adv-x="1005" d="M84 434q-4 117 90 117h578q-2 184 -58.5 253.5t-201.5 69.5q-78 0 -293 -24q-41 -4 -47 27l-9 45q-6 29 23 41q55 25 155.5 40t180.5 15q109 0 186.5 -30t120.5 -75t67.5 -117.5t30.5 -138t6 -155.5t-15 -168t-55 -164t-130 -137t-224 -51q-102 0 -176.5 26.5 t-116.5 66.5t-67 104.5t-33 119.5t-12 135zM250 422q0 -66 7 -110t29.5 -93t73 -73.5t127.5 -24.5q137 0 195.5 75.5t69.5 225.5h-502z" />
<glyph unicode="&#x1e80;" horiz-adv-x="1669" d="M41 1327q-6 31 20 31h107q29 0 37 -29q223 -774 252 -874l59 -209h4l58 200q45 180 176 623l-74 256q-10 33 18 33h107q31 0 39 -29q223 -774 252 -874l57 -209h6l53 200l250 883q8 29 39 29h103q27 0 16 -37l-375 -1290q-8 -31 -39 -31h-106q-33 0 -41 29l-193 659 l-32 117l-5 -2l-32 -121l-191 -653q-8 -29 -37 -29h-112q-29 0 -35 29zM504 1624l65 80q18 23 33 10l262 -194q20 -14 8 -27l-43 -47q-14 -14 -30 -6l-285 153q-24 13 -10 31z" />
<glyph unicode="&#x1e81;" horiz-adv-x="1409" d="M39 965q-12 33 16 32h111q25 0 35 -28q20 -68 71.5 -227.5t77.5 -245.5l90 -289h4l93 282q14 45 45.5 138.5t48.5 142.5l-58 195q-8 33 17 32h108q27 0 33 -28l148 -459q2 -10 38.5 -128t55.5 -179h4l100 332l135 436q8 27 31 26h113q25 0 14 -30l-313 -940 q-8 -27 -35 -27h-90q-27 0 -35 24.5t-47 139.5t-59 178q-12 39 -40 121t-42 125h-4l-80 -244l-105 -317q-8 -27 -33 -27h-90q-25 0 -35 25zM471 1389q-16 20 6 30l94 41q27 12 35 -6l144 -293q10 -23 -7 -28l-59 -27q-20 -8 -31 6z" />
<glyph unicode="&#x1e82;" horiz-adv-x="1669" d="M41 1327q-6 31 20 31h107q29 0 37 -29q223 -774 252 -874l59 -209h4l58 200q45 180 176 623l-74 256q-10 33 18 33h107q31 0 39 -29q223 -774 252 -874l57 -209h6l53 200l250 883q8 29 39 29h103q27 0 16 -37l-375 -1290q-8 -31 -39 -31h-106q-33 0 -41 29l-193 659 l-32 117l-5 -2l-32 -121l-191 -653q-8 -29 -37 -29h-112q-29 0 -35 29zM709 1493q-12 12 8 27l262 194q14 12 33 -10l65 -80q14 -18 -10 -31l-285 -153q-16 -8 -30 6z" />
<glyph unicode="&#x1e83;" horiz-adv-x="1409" d="M39 965q-12 33 16 32h111q25 0 35 -28q20 -68 71.5 -227.5t77.5 -245.5l90 -289h4l93 282q14 45 45.5 138.5t48.5 142.5l-58 195q-8 33 17 32h108q27 0 33 -28l148 -459q2 -10 38.5 -128t55.5 -179h4l100 332l135 436q8 27 31 26h113q25 0 14 -30l-313 -940 q-8 -27 -35 -27h-90q-27 0 -35 24.5t-47 139.5t-59 178q-12 39 -40 121t-42 125h-4l-80 -244l-105 -317q-8 -27 -33 -27h-90q-25 0 -35 25zM610 1161l144 293q8 18 34 6l95 -41q23 -10 6 -30l-182 -271q-10 -14 -31 -6l-60 21q-16 5 -6 28z" />
<glyph unicode="&#x1e84;" horiz-adv-x="1669" d="M41 1327q-6 31 20 31h107q29 0 37 -29q223 -774 252 -874l59 -209h4l58 200q45 180 176 623l-74 256q-10 33 18 33h107q31 0 39 -29q223 -774 252 -874l57 -209h6l53 200l250 883q8 29 39 29h103q27 0 16 -37l-375 -1290q-8 -31 -39 -31h-106q-33 0 -41 29l-193 659 l-32 117l-5 -2l-32 -121l-191 -653q-8 -29 -37 -29h-112q-29 0 -35 29zM565 1552q0 84 84 84q49 0 66.5 -20.5t17.5 -63.5t-17.5 -65.5t-66.5 -22.5q-51 0 -67.5 22.5t-16.5 65.5zM918 1552q0 84 83 84q49 0 66.5 -20.5t17.5 -63.5t-17 -65.5t-67 -22.5q-51 0 -67 22.5 t-16 65.5z" />
<glyph unicode="&#x1e85;" horiz-adv-x="1409" d="M39 965q-12 33 16 32h111q25 0 35 -28q20 -68 71.5 -227.5t77.5 -245.5l90 -289h4l93 282q14 45 45.5 138.5t48.5 142.5l-58 195q-8 33 17 32h108q27 0 33 -28l148 -459q2 -10 38.5 -128t55.5 -179h4l100 332l135 436q8 27 31 26h113q25 0 14 -30l-313 -940 q-8 -27 -35 -27h-90q-27 0 -35 24.5t-47 139.5t-59 178q-12 39 -40 121t-42 125h-4l-80 -244l-105 -317q-8 -27 -33 -27h-90q-25 0 -35 25zM430 1249q0 84 86 84q49 0 66.5 -21.5t17.5 -62.5q0 -90 -84 -90q-51 0 -68.5 23.5t-17.5 66.5zM807 1249q0 84 84 84 q49 0 67.5 -21.5t18.5 -62.5q0 -90 -86 -90q-84 0 -84 90z" />
<glyph unicode="&#x1ef2;" horiz-adv-x="1038" d="M35 1329q-4 10 0 18.5t16 8.5h121q27 0 39 -25l190 -358l113 -211h12l121 219l191 350q14 25 43 25h106q33 0 19 -31l-408 -719v-571q0 -35 -33 -35h-86q-37 0 -37 35v571zM260 1624l66 80q18 23 32 10l263 -194q20 -14 8 -27l-43 -47q-14 -14 -31 -6l-285 153 q-24 13 -10 31z" />
<glyph unicode="&#x1ef3;" horiz-adv-x="954" d="M51 965q-12 33 17 32h108q23 0 33 -28l168 -469l110 -314l115 328l156 457q8 27 33 26h110q25 0 14 -30l-469 -1299q-10 -29 -40 -28h-95q-29 0 -18 32l119 328zM276 1389q-16 20 7 30l94 41q27 12 35 -6l143 -293q10 -23 -6 -28l-60 -27q-20 -8 -30 6z" />
<glyph unicode="&#x2000;" horiz-adv-x="894" />
<glyph unicode="&#x2001;" horiz-adv-x="1792" />
<glyph unicode="&#x2002;" horiz-adv-x="894" />
<glyph unicode="&#x2003;" horiz-adv-x="1792" />
<glyph unicode="&#x2004;" horiz-adv-x="595" />
<glyph unicode="&#x2005;" horiz-adv-x="446" />
<glyph unicode="&#x2006;" horiz-adv-x="296" />
<glyph unicode="&#x2007;" horiz-adv-x="296" />
<glyph unicode="&#x2008;" horiz-adv-x="223" />
<glyph unicode="&#x2009;" horiz-adv-x="358" />
<glyph unicode="&#x200a;" horiz-adv-x="98" />
<glyph unicode="&#x2010;" horiz-adv-x="757" d="M72 629v63q0 27 28 27h557q29 0 29 -27v-63q0 -25 -29 -25h-557q-28 0 -28 25z" />
<glyph unicode="&#x2011;" horiz-adv-x="757" d="M72 629v63q0 27 28 27h557q29 0 29 -27v-63q0 -25 -29 -25h-557q-28 0 -28 25z" />
<glyph unicode="&#x2012;" horiz-adv-x="757" d="M72 629v63q0 27 28 27h557q29 0 29 -27v-63q0 -25 -29 -25h-557q-28 0 -28 25z" />
<glyph unicode="&#x2013;" horiz-adv-x="1028" d="M61 489v58q0 31 31 31h844q31 0 31 -31v-58q0 -29 -29 -28h-848q-29 -1 -29 28z" />
<glyph unicode="&#x2014;" horiz-adv-x="2048" d="M61 489v58q0 31 31 31h1864q31 0 31 -31v-58q0 -29 -29 -28h-1868q-29 -1 -29 28z" />
<glyph unicode="&#x2015;" horiz-adv-x="2080" d="M59 489v58q0 31 31 31h1892q31 0 31 -31v-58q0 -29 -28 -28h-1897q-29 -1 -29 28z" />
<glyph unicode="&#x2018;" horiz-adv-x="430" d="M111 1073q0 100 48 184t115 127q25 12 31 7l29 -29q12 -12 -6 -27q-68 -59 -68 -147q0 -74 51 -139q16 -20 -10 -41l-80 -64q-27 -18 -51 4q-59 53 -59 125z" />
<glyph unicode="&#x2019;" horiz-adv-x="430" d="M104 973q-12 12 7 26q68 59 67 148q0 74 -51 139q-16 23 10 41l80 64q25 16 51 -2q59 -57 60 -125q0 -100 -48.5 -185.5t-115.5 -128.5q-25 -12 -31 -6z" />
<glyph unicode="&#x201a;" horiz-adv-x="399" d="M82 -246q-8 10 8 27q68 59 68 145q0 78 -52 140q-16 20 9 43l82 61q25 20 51 -2q59 -53 59 -125q0 -100 -48 -185t-116 -126q-23 -16 -32 -6z" />
<glyph unicode="&#x201c;" horiz-adv-x="638" d="M86 1073q0 100 48 184t118 127q20 14 31 7l28 -29q8 -12 -8 -27q-68 -59 -67 -147q0 -74 51 -139q16 -20 -8 -41l-82 -64q-27 -18 -50 4q-61 53 -61 125zM344 1073q0 100 48 184t118 127q20 14 31 7l28 -29q8 -12 -8 -27q-68 -59 -67 -147q0 -74 51 -139q16 -20 -8 -41 l-82 -64q-27 -18 -49 4q-62 53 -62 125z" />
<glyph unicode="&#x201d;" horiz-adv-x="638" d="M86 973q-8 12 8 26q68 59 68 148q0 74 -51 139q-16 20 8 41l82 64q25 16 51 -2q59 -57 59 -125q0 -100 -48 -185.5t-116 -128.5q-25 -12 -32 -6zM344 973q-8 12 8 26q68 59 68 148q0 74 -51 139q-16 20 8 41l82 64q25 16 51 -2q59 -57 59 -125q0 -100 -48 -185.5 t-115 -128.5q-25 -12 -33 -6z" />
<glyph unicode="&#x201e;" horiz-adv-x="638" d="M86 -246q-8 12 8 27q68 59 68 147q0 74 -51 140q-16 20 8 41l82 63q25 16 51 -2q59 -57 59 -125q0 -100 -48 -185t-116 -128q-25 -12 -32 -6zM344 -246q-8 12 8 27q68 59 68 147q0 74 -51 140q-16 20 8 41l82 63q25 16 51 -2q59 -57 59 -125q0 -100 -48 -185t-115 -128 q-25 -12 -33 -6z" />
<glyph unicode="&#x2020;" horiz-adv-x="989" d="M49 901v70q0 33 35 33h338v376q0 35 37 35h76q35 0 34 -35v-376h338q35 0 35 -33v-70q0 -35 -37 -35h-336v-929q0 -35 -34 -35h-76q-37 0 -37 35v929h-336q-37 0 -37 35z" />
<glyph unicode="&#x2021;" horiz-adv-x="989" d="M49 348v70q0 35 37 35h336v413h-336q-37 0 -37 35v70q0 33 35 33h338v385q2 29 35 28h75q37 0 37 -35v-378h338q35 0 35 -33v-70q0 -35 -37 -35h-336v-413h336q37 0 37 -35v-70q0 -33 -35 -33h-338v-385q-2 -29 -34 -28h-76q-35 0 -37 28v385h-338q-35 0 -35 33z" />
<glyph unicode="&#x2022;" horiz-adv-x="579" d="M109 518q0 76 54 131.5t130 55.5t130 -55.5t54 -131.5t-54 -130t-130 -54t-130 54t-54 130z" />
<glyph unicode="&#x2023;" horiz-adv-x="1036" d="M166 135v842l805 -410z" />
<glyph unicode="&#x2026;" horiz-adv-x="1337" d="M90 80q0 94 94 94q53 0 72.5 -23.5t19.5 -70.5q0 -98 -92 -98q-57 0 -75.5 25.5t-18.5 72.5zM573 80q0 94 95 94q53 0 72.5 -23.5t19.5 -70.5q0 -98 -92 -98q-57 0 -76 25.5t-19 72.5zM1057 80q0 94 94 94q55 0 74.5 -23.5t19.5 -70.5q0 -98 -94 -98q-57 0 -75.5 25.5 t-18.5 72.5z" />
<glyph unicode="&#x202f;" horiz-adv-x="358" />
<glyph unicode="&#x2030;" horiz-adv-x="2422" d="M51 940q0 426 318 426q88 0 151.5 -26.5t97 -65.5t53 -99.5t24.5 -112.5t5 -122q0 -66 -4 -114t-22.5 -116.5t-51 -112.5t-98 -77t-155.5 -33q-88 0 -151.5 31t-94.5 72t-48.5 110.5t-20.5 117.5t-3 122zM184 926q0 -164 35 -242t150 -78q119 0 158.5 82t39.5 238 q0 172 -37.5 248.5t-160.5 76.5q-59 0 -97.5 -24.5t-56.5 -73.5t-24.5 -100t-6.5 -127zM508 -16l565 1423q12 27 33 27h65q27 0 17 -31l-563 -1426q-10 -25 -31 -24h-66q-30 0 -20 31zM979 440q0 426 317 426q88 0 151.5 -26.5t97.5 -65.5t53.5 -99.5t24.5 -112.5t5 -122 q0 -66 -4 -113.5t-22.5 -116.5t-51 -113t-98.5 -76.5t-156 -32.5q-88 0 -151.5 30.5t-94 71.5t-48 110.5t-20.5 117.5t-3 122zM1112 426q0 -164 35 -242t149 -78q119 0 159 82t40 238q0 172 -38 249t-161 77q-59 0 -97 -25t-56.5 -74t-24.5 -100t-6 -127zM1722 440 q0 426 318 426q88 0 151.5 -26.5t97 -65.5t53 -99.5t25 -112.5t5.5 -122q0 -66 -4.5 -113.5t-22.5 -116.5t-51 -113t-98.5 -76.5t-155.5 -32.5q-88 0 -151.5 30.5t-94.5 71.5t-48 110.5t-20.5 117.5t-3.5 122zM1855 426q0 -164 35 -242t150 -78q119 0 158.5 82t39.5 238 q0 172 -37.5 249t-160.5 77q-59 0 -97 -25t-56.5 -74t-25 -100t-6.5 -127z" />
<glyph unicode="&#x2032;" horiz-adv-x="415" d="M74 899l119 453q8 27 36 20l99 -31q20 -4 12 -30l-166 -443q-8 -14 -29 -10l-61 14q-16 4 -10 27z" />
<glyph unicode="&#x2033;" horiz-adv-x="679" d="M74 899l119 453q8 27 36 20l99 -31q20 -4 12 -30l-166 -443q-8 -14 -29 -10l-61 14q-16 4 -10 27zM338 899l119 453q8 27 37 20l98 -31q20 -4 12 -30l-166 -443q-8 -14 -28 -10l-62 14q-16 4 -10 27z" />
<glyph unicode="&#x2034;" horiz-adv-x="921" d="M74 899l119 453q8 27 36 20l99 -31q20 -4 12 -30l-166 -443q-8 -14 -29 -10l-61 14q-16 4 -10 27zM328 899l118 453q8 27 37 20l99 -31q20 -4 12 -30l-166 -443q-8 -14 -29 -10l-61 14q-16 4 -10 27zM580 899l118 453q8 27 37 20l99 -31q20 -4 12 -30l-166 -443 q-8 -14 -29 -10l-61 14q-16 4 -10 27z" />
<glyph unicode="&#x2039;" horiz-adv-x="536" d="M84 348q-23 27 2 58l201 253q27 31 51 31h106q14 0 17.5 -10t-2.5 -18l-228 -285l238 -289q6 -8 3 -15t-11 -7h-123q-29 0 -47 26z" />
<glyph unicode="&#x203a;" horiz-adv-x="536" d="M73 73q-3 7 3 15l237 289l-227 285q-6 8 -3 18t17 10h107q25 0 51 -31l201 -253q25 -31 2 -58l-207 -256q-18 -27 -47 -26h-123q-8 0 -11 7z" />
<glyph unicode="&#x2044;" horiz-adv-x="231" d="M-215 -16l565 1423q12 27 33 27h66q27 0 16 -31l-563 -1426q-8 -25 -31 -24h-66q-30 0 -20 31z" />
<glyph unicode="&#x2215;" horiz-adv-x="231" d="M-215 -16l565 1423q12 27 33 27h66q27 0 16 -31l-563 -1426q-8 -25 -31 -24h-66q-30 0 -20 31z" />
<glyph unicode="&#x205f;" horiz-adv-x="446" />
<glyph unicode="&#x2070;" horiz-adv-x="741" d="M53 1124q0 426 318 426q88 0 151.5 -26.5t97 -65.5t53 -99.5t24.5 -112.5t5 -122q0 -66 -4 -113.5t-22.5 -116.5t-51 -113t-98 -76.5t-155.5 -32.5q-88 0 -151.5 30.5t-94.5 71.5t-48.5 110.5t-20.5 117.5t-3 122zM186 1110q0 -164 35 -241.5t150 -77.5q119 0 158.5 81.5 t39.5 237.5q0 172 -37.5 249t-160.5 77q-59 0 -97 -25t-56.5 -74t-25 -100t-6.5 -127z" />
<glyph unicode="&#x2074;" horiz-adv-x="741" d="M16 940v49q0 27 17 45l432 486q20 23 49 22h51q33 0 33 -29v-483h88q33 0 33 -35v-55q0 -31 -33 -31h-88v-188q0 -35 -35 -35h-63q-33 0 -33 33v190h-416q-35 0 -35 31zM193 1030h274v318z" />
<glyph unicode="&#x2075;" horiz-adv-x="741" d="M61 762l9 33q6 31 43 26q147 -20 219 -20q94 0 146 40t52 154q0 78 -118 101l-285 45q-55 8 -45 57l51 324q4 29 41 28h418q31 0 31 -28v-58q0 -31 -33 -30h-344l-29 -185l252 -37q88 -12 141.5 -67t53.5 -148q0 -176 -86 -244.5t-254 -68.5q-156 0 -240 35q-27 8 -23 43 z" />
<glyph unicode="&#x2076;" horiz-adv-x="741" d="M51 1081q0 61 4 110.5t15.5 107t36 99.5t61.5 78.5t95.5 55t133.5 18.5q147 0 228 -34q35 -12 24 -41l-14 -43q-8 -23 -39 -19q-123 16 -201 17q-193 0 -207 -240q150 16 254 16q256 0 256 -276q0 -133 -90 -195.5t-237 -62.5q-109 0 -176.5 27.5t-97 90t-38 124 t-8.5 167.5zM184 1067q0 -166 27 -215q41 -66 164 -66q188 0 188 142q0 82 -29.5 117.5t-109.5 35.5q-111 0 -240 -14z" />
<glyph unicode="&#x2077;" horiz-adv-x="690" d="M25 1454v55q0 33 34 33h551q20 0 30.5 -11t10.5 -24v-43q0 -25 -12 -49l-375 -721q-16 -31 -47 -18l-59 24q-29 12 -13 45l355 678h-443q-32 0 -32 31z" />
<glyph unicode="&#x2078;" horiz-adv-x="741" d="M39 913q0 145 133 222q-51 23 -77.5 69.5t-26.5 95.5q0 121 78.5 185.5t222.5 64.5q139 0 218 -62.5t79 -182.5q0 -47 -30 -96.5t-77 -73.5q139 -63 139 -213q0 -115 -90 -183.5t-243 -68.5q-326 -1 -326 243zM174 926q0 -141 191 -142q80 0 137 33t57 96q0 131 -197 179 q-188 -39 -188 -166zM203 1309q0 -90 162 -121q166 27 165 121q0 61 -44 94t-117 33q-166 0 -166 -127z" />
<glyph unicode="&#x2079;" horiz-adv-x="741" d="M49 1292q0 133 89 195.5t235 62.5q88 0 149.5 -21.5t94 -53t50 -92t21.5 -110.5t4 -134q0 -78 -5 -133.5t-24.5 -123t-54.5 -110.5t-100.5 -71.5t-157.5 -28.5q-152 0 -231 35q-18 8 -23.5 15t0.5 30l10 34q4 14 10.5 17.5t30.5 -0.5q80 -14 197 -15q193 0 213 242 q-170 -14 -254 -14q-254 0 -254 276zM184 1292q0 -82 29 -118.5t106 -36.5q84 0 240 14q4 166 -24 217q-37 66 -166 66q-185 -1 -185 -142z" />
<glyph unicode="&#x207a;" horiz-adv-x="741" d="M98 1083v43q0 25 8.5 33t30.5 8h170v158q0 37 37 37h55q39 0 39 -37v-158h166q41 0 41 -41v-43q0 -37 -41 -36h-166v-166q0 -41 -39 -41h-55q-37 0 -37 41v166h-170q-39 -1 -39 36z" />
<glyph unicode="&#x207b;" horiz-adv-x="493" d="M29 1083v39q0 39 41 39h354q41 0 41 -39v-39q0 -37 -41 -36h-354q-41 -1 -41 36z" />
<glyph unicode="&#x207c;" horiz-adv-x="741" d="M98 985v47q0 35 39 35h467q41 0 41 -35v-47q0 -37 -41 -37h-467q-39 0 -39 37zM98 1184v43q0 39 39 39h467q41 0 41 -39v-43q0 -37 -41 -37h-467q-39 0 -39 37z" />
<glyph unicode="&#x207d;" horiz-adv-x="385" d="M63 1085q0 270 179 500q20 23 41 10l30 -20q23 -14 9 -39q-129 -215 -129 -451q0 -303 129 -479q16 -23 -9 -41l-24 -16q-29 -18 -49 10q-177 235 -177 526z" />
<glyph unicode="&#x207e;" horiz-adv-x="389" d="M76 606q129 176 129 479q0 258 -129 451q-12 27 8 39l31 20q20 12 41 -10q178 -229 178 -500q0 -291 -176 -526q-18 -27 -47 -10l-27 16q-24 18 -8 41z" />
<glyph unicode="&#x207f;" horiz-adv-x="712" d="M68 535v595q0 31 34 31h56q20 0 28.5 -6t8.5 -25v-30q137 76 237 76q131 0 172 -62.5t41 -191.5v-387q0 -33 -37 -33h-57q-35 0 -35 33v389q0 84 -21.5 111.5t-78.5 27.5q-84 0 -221 -72v-456q0 -33 -37 -33h-56q-34 0 -34 33z" />
<glyph unicode="&#x2080;" horiz-adv-x="741" d="M53 256q0 426 318 426q88 0 151.5 -26.5t97 -65.5t53 -99.5t24.5 -112.5t5 -122q0 -66 -4 -114t-22.5 -116.5t-51 -112.5t-98 -77t-155.5 -33q-88 0 -151.5 31t-94.5 72t-48.5 110.5t-20.5 117.5t-3 122zM186 242q0 -164 35 -242t150 -78q119 0 158.5 82t39.5 238 q0 172 -37.5 248.5t-160.5 76.5q-59 0 -97 -24.5t-56.5 -73.5t-25 -100t-6.5 -127z" />
<glyph unicode="&#x2081;" horiz-adv-x="634" d="M86 557v29q0 31 25 37l122 41q37 10 56 10h55q18 0 28.5 -5t11.5 -11.5t1 -18.5v-709h131q33 0 33 -32v-50q0 -33 -33 -32h-385q-33 0 -33 32v50q0 33 33 32h119v598h-129q-20 0 -27.5 5.5t-7.5 23.5z" />
</font>
</defs>
</svg>
